<?xml version="1.0" encoding="utf-8"?>
<!-- Generator: Adobe Illustrator 18.0.0, SVG Export Plug-In . SVG Version: 6.00 Build 0)  -->
<!DOCTYPE svg PUBLIC "-//W3C//DTD SVG 1.1//EN" "http://www.w3.org/Graphics/SVG/1.1/DTD/svg11.dtd">
<svg version="1.1" id="Capa_1" xmlns="http://www.w3.org/2000/svg" xmlns:xlink="http://www.w3.org/1999/xlink" x="0px" y="0px"
	 viewBox="0 0 60 60" style="enable-background:new 0 0 60 60;" xml:space="preserve">
<style type="text/css">
	.st0{fill:#96281B;}
</style>
<path class="st0" d="M59.9,55.4l-1.6-1.8l-2.8-4.8l0,0l-4.8-5.3c1.1-1.6,1.1-3.7-0.1-5c-0.1-0.2-0.3-0.3-0.4-0.4l-9.8-10.6
	c-0.1-0.1-0.2-0.2-0.3-0.3c-1-1.2-2.7-1.5-4.3-1l-0.3-0.3l4.2-1.1L39.2,21l0,0l-0.3-0.6l2.4-1.4l1.9,1.2c0,0,0,0.1,0.1,0.1
	c0.2,0.3,0.7,0.3,0.9,0.1s0.3-0.7,0-0.9c-0.1-0.1-0.2-0.2-0.3-0.2l-1.4-0.9l0.4-0.2l-1.4-2.4l-1.5,0.9l-1.4-0.9l0,0c0,0,0,0-0.1,0
	c-0.2-0.1-0.5,0.1-0.6,0.3c-0.1,0.3-0.1,0.6,0.1,0.7l0,0l0.9,0.6l-1.3,0.8l-0.8-1.4L31,20l-1.7-1.9c0,0,0-0.1-0.1-0.1
	c-0.3-0.3-0.9-0.3-1.5,0.1L23.9,14c0.3-0.2,0.3-0.8,0.2-1.3c0,0,0,0,0,0c0.1-0.1,0.1-0.4,0-0.6c-0.1-0.2-0.4-0.4-0.5-0.3
	c-0.5-0.6-1.1-0.9-1.5-0.7l0,0l0,0c0,0,0,0,0,0c0,0,0,0,0,0l-0.4,0.2l-2.5-1l-1.5-3.7c0-0.5-0.2-1-0.5-1.4c0,0,0,0-0.1-0.1l0,0l0,0
	c-0.8-0.8-2-0.9-2.8-0.2c-0.8,0.7-0.9,2-0.1,2.9c0.1,0.1,0.1,0.1,0.2,0.2l0.1,0.3L11,6.8c-0.1-0.4-0.4-0.7-0.8-0.9
	C9.5,5.6,8.8,5.8,8.5,6.4S8.6,7.7,9.3,8c0.6,0.3,1.3,0.1,1.6-0.4l3.9,1.7l1.6,4.1L0.1,23l2.6,4.4l3.6-2.1l4.6,6.6l-1.1,0.6L8.4,31
	c0.1-0.4,0-0.7-0.3-1c-0.5-0.5-1.4-0.5-2,0c-0.7,0.6-0.8,1.5-0.3,2c0.3,0.3,0.6,0.4,1,0.4l1.1,1.2l-1.1,0.7l2.6,4.4l22-12.9l2,2.1
	c-1.3,1.7-1.5,4-0.2,5.4c0.2,0.2,0.3,0.3,0.5,0.5l9.6,10.5c0.1,0.1,0.2,0.3,0.3,0.4c1.2,1.4,3.3,1.6,5.1,0.7l4.9,5.3l4.5,3.2
	l1.6,1.8L59.9,55.4z M20.8,11.8L20,12.3l-0.4-1L20.8,11.8z M21.7,15.4l1.9-1.1l3.8,4.1c-0.6,0.6-0.9,1.4-0.5,1.8
	c0,0,0.1,0.1,0.1,0.1l1.3,1.4l-1.5,0.9L21.7,15.4z"/>
</svg>
