<?xml version="1.0" encoding="utf-8"?>
<!-- Generator: Adobe Illustrator 18.0.0, SVG Export Plug-In . SVG Version: 6.00 Build 0)  -->
<!DOCTYPE svg PUBLIC "-//W3C//DTD SVG 1.1//EN" "http://www.w3.org/Graphics/SVG/1.1/DTD/svg11.dtd">
<svg version="1.1" id="Capa_1" xmlns="http://www.w3.org/2000/svg" xmlns:xlink="http://www.w3.org/1999/xlink" x="0px" y="0px"
	 viewBox="0 0 60 60" style="enable-background:new 0 0 60 60;" xml:space="preserve">
<style type="text/css">
	.st0{fill:#96281B;}
</style>
<path class="st0" d="M53.1,23.3L32.6,2.8c-1.4-1.4-3.8-1.4-5.2,0L6.9,23.3c-1.3,1.3-1.4,3.3-0.4,4.7h3.6v27.6c0,1.5,1.2,2.7,2.7,2.7
	h10.7c0-0.1,0-0.2,0-0.2V43.8c0-1.5,1.2-2.7,2.7-2.7h7.6c1.5,0,2.7,1.2,2.7,2.7v14.3c0,0.1,0,0.2,0,0.2h10.7c1.5,0,2.7-1.2,2.7-2.7
	V28h3.6C54.5,26.6,54.4,24.6,53.1,23.3z"/>
</svg>
