<?xml version="1.0" encoding="utf-8"?>
<!-- Generator: Adobe Illustrator 18.0.0, SVG Export Plug-In . SVG Version: 6.00 Build 0)  -->
<!DOCTYPE svg PUBLIC "-//W3C//DTD SVG 1.1//EN" "http://www.w3.org/Graphics/SVG/1.1/DTD/svg11.dtd">
<svg version="1.1" id="Capa_1" xmlns="http://www.w3.org/2000/svg" xmlns:xlink="http://www.w3.org/1999/xlink" x="0px" y="0px"
	 viewBox="0 0 75 75" style="enable-background:new 0 0 75 75;" xml:space="preserve">
<style type="text/css">
	.st0{fill:#316197;}
	.st1{fill:#FFFFFF;}
</style>
<g>
	<rect x="0" y="0" class="st0" width="75.4" height="75.4"/>
	<path class="st1" d="M19.2,12.9h36.9c3.5,0,6.4,2.9,6.4,6.4v36.9c0,3.5-2.9,6.4-6.4,6.4H19.2c-3.5,0-6.4-2.9-6.4-6.4V19.2
		C12.9,15.7,15.7,12.9,19.2,12.9z M49,18.4c-1.2,0-2.2,1-2.2,2.2V26c0,1.2,1,2.2,2.2,2.2h5.6c1.2,0,2.2-1,2.2-2.2v-5.3
		c0-1.2-1-2.2-2.2-2.2H49z M56.9,33.9h-4.4c0.4,1.4,0.6,2.8,0.6,4.3c0,8.3-6.9,14.9-15.4,14.9c-8.5,0-15.4-6.7-15.4-14.9
		c0-1.5,0.2-2.9,0.6-4.3h-4.6v21c0,1.1,0.9,2,2,2h34.6c1.1,0,2-0.9,2-2V33.9z M37.7,27.9c-5.5,0-10,4.3-10,9.7c0,5.3,4.5,9.7,10,9.7
		c5.5,0,10-4.3,10-9.7C47.7,32.2,43.2,27.9,37.7,27.9z"/>
</g>
</svg>
