<?xml version="1.0" encoding="utf-8"?>
<!-- Generator: Adobe Illustrator 18.0.0, SVG Export Plug-In . SVG Version: 6.00 Build 0)  -->
<!DOCTYPE svg PUBLIC "-//W3C//DTD SVG 1.1//EN" "http://www.w3.org/Graphics/SVG/1.1/DTD/svg11.dtd">
<svg version="1.1" id="Capa_1" xmlns="http://www.w3.org/2000/svg" xmlns:xlink="http://www.w3.org/1999/xlink" x="0px" y="0px"
	 viewBox="0 0 265.6 167.3" style="enable-background:new 0 0 265.6 167.3;" xml:space="preserve">
<style type="text/css">
	.st0{fill:#FFFFFF;}
</style>
<g>
	<g>
		<path class="st0" d="M0,25.7v-0.3h0.2v0.3H0z M20.1,22.1c-0.8-1.1-2-2.2-3.6-3.4c-1.8-1.3-3.1-2.5-3.9-3.4
			c0.1-0.1,0.1-0.2,0.1-0.4c-0.1,0.2-0.3,0.2-0.4,0.2c-0.1,0-0.1,0-0.1-0.1c0-0.1,0-0.1-0.1-0.1c-0.1,0-0.3,0-0.4,0.1
			c0,0.1,0.1,0.2,0.3,0.3c0.1,0.1,0.1,0.3,0,0.5c0,0-0.2-0.1-0.5-0.4v0.1c-0.2,0.2-0.5,0.3-0.9,0.3c-0.1,0-0.2-0.1-0.4-0.2
			c-0.1-0.1-0.3-0.2-0.4-0.2c-0.1,0-0.2,0.1-0.4,0.2C8.6,15.9,8,16,7.5,16c0,0-0.1,0.1-0.3,0.2c-0.1,0.1-0.3,0.2-0.4,0.2
			c-0.1,0-0.2,0-0.4-0.1c-0.1,0-0.2-0.1-0.3-0.1C6.1,16.2,6,16.1,5.9,16c0.5-0.3,0.8-0.5,0.9-0.7C7,15,7.3,14.8,7.5,14.8
			c0.1,0,0.2,0.1,0.2,0.3c0.1,0.3,0.2,0.5,0.2,0.6c0.6-0.6,1.2-1,1.7-1c0.1,0,0.2,0.1,0.4,0.2c0.2,0.1,0.3,0.2,0.4,0.2
			c0-0.2,0.1-0.3,0.2-0.1c-0.1-0.1-0.2-0.2-0.5-0.4s-0.4-0.3-0.5-0.4c0.3-0.3,0.5-0.4,0.6-0.4c0.1,0,0.1,0,0.1,0c0,0,0,0,0.1,0
			c0.2,0,0.3-0.1,0.5-0.2c0.2-0.1,0.3-0.2,0.3-0.3l0.1,0.4c-0.2,0.1-0.3,0.2-0.4,0.2c0,0.2,0,0.3-0.2,0.5c0.2-0.1,0.3-0.2,0.4-0.2
			c0,0,0.1,0.1,0.3,0.2h0.7c-0.4-0.1-0.5-0.3-0.6-0.5c0.1-0.1,0.2-0.1,0.3,0c0.2,0.1,0.3,0.1,0.4,0c-0.2-0.3-0.3-0.6-0.3-0.9
			c-0.2,0-0.3,0-0.3-0.1c0-0.1,0-0.2,0.1-0.4s0.1-0.3,0.1-0.4c0.4,0.1,0.6,0.1,0.9,0c0-0.3,0-0.4,0-0.4c0.7-0.5,1.3-0.9,1.6-1.2
			c-0.3-0.1-0.4-0.2-0.4-0.4c0.2-0.1,0.3-0.2,0.4-0.2l0.2,0.2c-0.1,0.1-0.1,0.2,0,0.4c0.1-0.3,0.2-0.4,0.5-0.4
			c-0.2-0.1-0.4-0.2-0.6-0.3c-0.1,0-0.1-0.1-0.1-0.3c0-0.2,0.1-0.4,0.2-0.5c0.1,0.3,0.4,0.4,0.9,0.5c0.3,0.1,0.4,0.3,0.4,0.8
			c0.3-0.1,0.5-0.2,0.5-0.3c0.1,0.3,0.2,0.5,0.2,0.7c0.7,0.2,1.2,0.3,1.6,0.3c1.4,0.4,2,0.6,1.9,0.6h0.5v-1.1c0-0.1-0.1-0.3-0.4-0.5
			s-0.4-0.3-0.4-0.4c0.1,0,0.3,0,0.4,0c0.2,0,0.3,0,0.3,0V8c0-0.1-0.1-0.2-0.2-0.2c-0.2,0-0.2-0.1-0.2-0.1c0.1-0.1,0.2-0.2,0.3-0.2
			c0,0.1,0-0.2,0-0.8c0-1.4,0-2.2-0.1-2.4C20.4,3.8,20.5,3,20.4,2c-0.2,0.3-0.5,0.4-0.8,0.4c-0.1,0-0.4,0-0.9-0.1
			c-0.5,0-0.8-0.1-0.9-0.1s-0.2,0-0.3,0c-0.1,0-0.2,0-0.2,0L17,1.9C16.8,2,16.6,2,16.6,2c-0.1,0-0.4,0-0.9-0.1
			c-0.2-0.1-0.4-0.2-0.5-0.3c-0.1,0.3-0.2,0.4-0.4,0.4c-0.2,0-0.3,0-0.3-0.1c0-0.1,0-0.2,0-0.4c0-0.2,0-0.3,0-0.4
			c-0.4,0.6-0.7,0.9-1,0.9c-0.1,0-0.2,0-0.3-0.1c-0.1-0.1-0.1-0.1-0.1,0c-0.1-0.2-0.1-0.4,0-0.6c-0.4,0.6-0.7,1-0.8,1.2
			c-0.1,0-0.2-0.1-0.3-0.3c-0.1-0.1-0.2-0.2-0.3-0.2c-0.4,0-0.8,0-1.1,0c-0.2,0.3-0.4,0.4-0.6,0.4C9.8,2.3,9.7,2.2,9.5,2.2
			c0,0,0.1,0.1,0.1,0.2c0,0.1,0.1,0.1,0.1,0.2C9.3,2.8,9.1,2.9,9.1,3L8.9,2.8C8.9,2.7,9,2.6,9,2.3c-0.2,0-0.4,0.1-0.8,0.2
			c0.2,0.2,0.2,0.3,0,0.4C8,2.9,7.9,2.8,7.9,2.5C7.6,2.7,7.2,2.8,6.8,3C6.4,3.3,6.1,3.5,6.1,3.6c0,0.1,0.1,0.2,0.2,0.3
			C6.4,4,6.5,4.1,6.5,4.1c-0.1,0.1-0.2,0.1-0.2,0L5.6,3.8C5.4,3.8,5,4.1,4.5,4.5C4,4.9,3.7,5.2,3.7,5.3c0,0.2-0.1,0.4-0.1,0.5
			C2.7,6.2,2.1,7,1.9,8.2c0,0.1-0.1,0.2-0.2,0.3C1.6,8.6,1.5,8.7,1.5,8.8v0.6C1.8,9.2,2,9.2,2.1,9.3c0,0.3,0,0.4,0,0.4
			C1.8,9.6,1.5,9.6,1.3,9.6c-0.4,1.7-0.5,2.9-0.5,3.7c0,1.1,0.1,1.9,0.4,2.4c0.2-0.1,0.4,0,0.6,0.1C1.9,15.6,2,15.5,2,15.4
			c0.2,0.3,0.3,0.5,0.5,0.5c0.1,0,0.2,0,0.2-0.1c0.1-0.1,0.1-0.1,0.2-0.1c0.1,0,0.3,0.1,0.4,0.2C3.5,16,3.6,16,3.6,16l-0.5,0.3
			C2.9,16.1,2.8,16,2.7,16c-0.1,0-0.2,0-0.3,0.1c-0.1,0.1-0.2,0.1-0.3,0.1S2,16.2,1.9,16.1c-0.1-0.1-0.2-0.2-0.3-0.2
			c-0.2,0-0.3,0-0.4,0.1v0.5c0,0.8,0.3,1.6,0.9,2.4c0.3,0.2,0.5,0.3,0.7,0.3c-0.1,0.4-0.2,0.8-0.2,1c0,0.2-0.1,0.4-0.2,0.7
			c-0.1,0.3,0,0.4,0.2,0.4c0.2,0.3,0.3,0.5,0.4,0.7c0.2-0.3,0.4-0.5,0.6-0.5c0.1,0,1.4,1.1,4,3.4c0.1,0.2,0.2,0.4,0.2,0.5
			c1.1,0.9,1.6,1.8,1.6,2.7c0,1.9-1.3,2.8-3.8,2.8C5.5,31,5,31,4,30.8c-0.9-0.1-1.5-0.2-1.6-0.2c-0.3,0-0.7,0.1-1.1,0.4v9.7h10
			c0.1,0,0.4-0.1,0.8-0.4c0.4-0.3,0.8-0.4,0.9-0.4c1.2-0.1,2.4-0.7,3.7-1.7c1.5-1.1,2.5-2.2,3.2-3.6c1-2.1,1.6-3.9,1.6-5.3
			c0.1-0.2,0.2-0.3,0.2-0.3C21.9,26.2,21.3,23.9,20.1,22.1z M1.9,12.3c0-0.3,0.1-0.5,0.2-0.5c0.1,0,0.2,0.1,0.3,0.2
			C2.2,12.1,2,12.2,1.9,12.3z M7.5,10.4c-0.4,0.4-0.6,0.8-0.9,1.1c-0.1,0.2-0.1,0.4-0.1,0.5c-1.1,1.5-1.8,2.7-2.3,3.6
			c0,0-0.1-0.1-0.3-0.3c0.6-0.9,1-1.6,1.2-2c-0.1-0.1-0.3-0.1-0.6-0.1c0.1-0.2,0.4-0.5,0.8-0.8V12l-0.2-0.2C5.1,12,5,12.1,4.8,12.1
			c-0.1,0.2-0.2,0.3-0.2,0.4c0.2-0.4,0.4-0.6,0.5-0.7c0-0.5,0.4-0.9,1.1-1.2c0,0,0.1-0.1,0.1-0.2c0-0.1,0.1-0.2,0.1-0.2L6,10
			c-0.3,0.1-0.4,0.3-0.3,0.6c-0.2,0-0.3,0-0.4-0.1c-0.1,0-0.1,0.1-0.1,0.4H4.7c0.2-0.2,0.3-0.3,0.4-0.4c-0.2-0.2-0.4-0.3-0.5-0.3
			h0.7c0.1-0.1,0-0.2-0.1-0.4c0.2,0,0.4-0.1,0.7-0.2c-0.3-0.1-0.5-0.1-0.6,0C5.1,9.7,5,9.8,4.9,9.8c-0.1,0-0.1,0-0.1-0.1
			c0-0.1,0-0.1,0-0.1c0,0,0,0.2,0,0.6c0,0-0.1-0.1-0.3-0.3C4,10,3.7,10.1,3.5,10.2c-0.2,0.3-0.3,0.6-0.4,0.8c0,0.2,0,0.3-0.1,0.5
			c0-0.1,0-0.4,0-0.8c0-0.3-0.1-0.5-0.3-0.6c0,0.1,0.1-0.2,0.4-0.7c0,0,0.2,0.1,0.4,0.3c0.1,0,0.2-0.1,0.2-0.4L4,9.6
			c0.1,0,0.3-0.1,0.4-0.2C4.1,9,4,8.8,3.9,8.8c-0.3,0-0.7,0.1-1.3,0.2V8.6C3,8.7,3.5,8.7,3.9,8.7c0.1,0,0.2,0,0.5-0.1
			c0.2-0.1,0.3-0.1,0.4-0.1C5,8.1,5.1,7.9,5.2,7.7C5.1,7.6,5,7.5,5,7.4h0.4c0,0.3,0,0.4,0,0.4c0.1-0.2,0.2-0.4,0.2-0.5h0.4
			c0,0.1,0,0.2,0.1,0.3C6.1,7.8,5.8,7.9,5.4,8.1c0.4,0.1,0.7,0.1,0.9,0l0.4-0.2C6.8,7.9,7,7.9,7,8c0.1,0.1,0.2,0.1,0.3,0.1
			C7.6,8.1,8,8,8.5,7.9C8.6,8,8.7,8,8.8,8.2C8.2,9.1,7.8,9.9,7.5,10.4z M3.4,15.1H2.9v0.2h0.5V15.1z M3.9,12.4c-0.1,0-0.2,0-0.3,0
			c-0.1,0-0.2,0-0.3,0V12C3.4,12,3.5,12,3.6,12c0.1-0.1,0.1-0.2,0.1-0.5c0,0,0.1,0.1,0.3,0.4c0.2-0.3,0.4-0.4,0.4-0.4V12
			C4.1,12.3,4,12.4,3.9,12.4z M3.9,8.4H3.7c0-0.1,0-0.2,0-0.3c0-0.1-0.1-0.2-0.3-0.2c0.2-0.1,0.3-0.2,0.4-0.3l0.3,0.2
			C4.1,8,4,8.2,3.9,8.4z M4,6.7V6.3C4,6.1,4.1,6,4.3,6l0.3,0.3C4.4,6.5,4.2,6.7,4,6.7z M4.7,11.6c-0.2,0-0.4-0.2-0.6-0.6
			c0.4,0.2,0.7,0.3,0.9,0.4C4.9,11.5,4.8,11.6,4.7,11.6z M4.8,6.3c0-0.1,0-0.3-0.1-0.6c-0.1-0.3-0.1-0.6,0-0.8c0.1,0,0.2,0,0.3,0.1
			C5,5.1,5.1,5.1,5.1,5.2c0.1,0.2,0.1,0.3,0,0.3c0,0.1,0.2,0.3,0.5,0.5C5.4,6.2,5.1,6.3,4.8,6.3z M5.5,4.8V4.7l0.2-0.1l0.1,0.1
			L5.5,4.8z M5.6,12v0.4c0.4-0.3,0.4-0.5,0.3-0.7L5.6,12z M6.9,6.4v0.8c0,0-0.1,0-0.3,0.1c-0.2,0-0.3,0.1-0.4,0.1V7.1
			C6.4,6.8,6.6,6.6,6.9,6.4z M6.4,8.8H6.2v0.4h0.2V8.8z M6.6,10.3l-0.1,0l0.1,0.3h0.1L6.6,10.3z M7,4.8c0,0-0.1-0.1-0.3-0.1
			C6.6,4.5,6.5,4.5,6.5,4.4c0.4,0,0.7,0.1,0.8,0.3v0.5C7.1,5.2,7,5,7,4.8z M8.3,7.9C8.1,7.7,7.9,7.6,7.6,7.4c0.4,0,0.6,0,0.7,0
			C8.3,7.7,8.3,7.8,8.3,7.9z M8.5,14.1c-0.1,0.5-0.2,0.9-0.2,1.2c-0.3-0.5-0.5-0.8-0.7-1c0-0.1,0-0.1,0.1-0.2c0-0.1,0.1-0.2,0.1-0.2
			h0.3c0,0,0.1,0,0.1,0.1c0,0,0.1,0.1,0.1,0.1c0.1-0.2,0.2-0.4,0.3-0.6h0.3c0,0,0,0.1,0,0.1c0,0.1,0,0.1,0.1,0.1
			c0.2,0,0.3-0.1,0.3-0.2c0,0.3,0.1,0.5,0.2,0.5C9.4,14.1,9.1,14.2,8.5,14.1z M7.8,5.6V5.1H8v0.4H7.8z M8.1,7.1L7.8,6.8l0.1-0.1
			L8.2,7L8.1,7.1z M8,13.4v-0.2h0.3v0.2H8z M8.4,11.2c0-0.1-0.1-0.2-0.1-0.3c0.3-0.3,0.4-0.4,0.4-0.4C8.7,10.8,8.6,11,8.4,11.2z
			 M8.8,5.1l-0.2,0l0.3-0.7h0.2L8.8,5.1z M9.6,11l-0.1,0.9c-0.2,0.2-0.4,0.4-0.5,0.5c-0.2-0.4-0.3-0.8-0.3-1.1
			C8.8,11.5,9,11.6,9,11.6c0.1-0.1,0.1-0.1,0.2-0.2c0,0,0-0.1-0.1-0.2C9.1,11,9,10.9,9,10.8c0-0.2,0.1-0.3,0.4-0.2
			C9.6,10.7,9.6,10.8,9.6,11z M10.3,10.1L10,10l-0.3,0.2H9.1c0.3-0.3,0.5-0.4,0.6-0.4c0.1,0,0.1,0,0.1,0c0,0,0,0,0.1,0l0.4-0.4
			C10.3,9.5,10.3,9.7,10.3,10.1z M9.2,16.8v-0.2l0.2-0.1l0.1,0.2L9.2,16.8z M10.1,13.3c0,0-0.1,0-0.4,0c-0.1-0.1-0.2,0-0.3,0
			c-0.1,0-0.1,0-0.2,0c-0.1,0-0.1,0,0,0c0.1-0.1,0.1-0.3,0.1-0.6c0.1,0,0.2,0.1,0.4,0.2s0.4,0.2,0.5,0.3
			C10.3,13.2,10.2,13.2,10.1,13.3z M9.5,18.3v-0.2L9.8,18l0,0.2L9.5,18.3z M10,4.3L9.7,4l0.1-0.1l0.3,0.3L10,4.3z M9.8,15.1
			l-0.1,0.1l0.3,0.2l0-0.2L9.8,15.1z M17.6,8.5c0,0.2,0,0.3,0,0.3c0,0,0.1,0,0.4,0C18,9,18,9.1,17.8,9.1c-0.1,0.1,0,0.2,0.1,0.4
			c-0.2,0-0.3,0-0.4,0.1c-0.2-0.5-0.4-0.9-0.5-1.2c-0.1,0-0.2,0.1-0.2,0.4c-0.1,0-0.3,0-0.5,0.1c-0.3,0.1-0.4,0.1-0.5,0.1
			c0,0-0.3-0.2-0.8-0.7c-0.1,0-0.2,0.1-0.2,0.3c-0.2,0-0.3,0-0.4-0.1c-0.1,0.1-0.2,0.2-0.3,0.4c-0.1,0.2-0.2,0.3-0.2,0.3
			c-0.2-0.1-0.3-0.2-0.4-0.3c0,0.1,0.1,0,0.4-0.2c0.1-0.1,0-0.1-0.2-0.1c-0.1,0-0.4,0.3-1,0.9c-0.2-0.3-0.3-0.4-0.4-0.4
			c-0.4,0-0.8,0-1,0.1c-0.1-0.3-0.1-0.5-0.1-0.6c-0.2,0-0.4,0-0.7,0c-0.3,0-0.6,0-0.7,0c0.2-0.3,0.3-0.5,0.4-0.7
			c0.1,0.1,0.1,0.2,0,0.3c0.1,0.1,0.2,0.2,0.3,0.2c0.1-0.3,0.3-0.5,0.5-0.5c0.1,0,0.2,0,0.2,0.1c0,0,0.1,0.1,0.1,0.1
			c0-0.3,0-0.5,0-0.6c0.2,0,0.4,0.1,0.5,0.4h-0.3c0.4,0.3,0.7,0.6,0.9,0.8c0.2,0,0.3-0.1,0.4-0.3c-0.1-0.1-0.4-0.1-0.7-0.1
			c0.4-0.4,0.8-0.8,1.1-0.9c0,0,0,0.1-0.1,0.2C13,7.8,12.9,7.9,12.9,8c0.1,0,0.2,0.1,0.3,0.2c0.1-0.1,0.1-0.3,0-0.4
			c0.3-0.2,0.6-0.2,0.8-0.1L13.7,8c0.3,0,0.4-0.1,0.4-0.2c0,0.3,0.2,0.4,0.5,0.4c0.2,0,0.4-0.3,0.6-0.9c0.4,0.2,0.8,0.5,1,1
			c-0.2,0,0-0.1,0.4-0.3c-0.2-0.2-0.2-0.3-0.2-0.3c0.2-0.1,0.3-0.2,0.2-0.3c0,0,0.1,0,0.2-0.1s0.3-0.1,0.4-0.1
			c0.2,0,0.3,0.1,0.3,0.3c-0.2,0-0.3,0-0.3-0.1L17,7.7C17.2,7.8,17.2,8,17.3,8c0.1-0.1,0.2-0.2,0.3-0.1c0.2,0,0.3,0.2,0.5,0.6
			C17.8,8.4,17.7,8.5,17.6,8.5z M9.7,16.8c0-0.1,0.1-0.4,0.3-0.7c0.1,0.2,0.1,0.3,0.1,0.4C10.1,16.6,9.9,16.6,9.7,16.8z M10.1,32.4
			v-0.1l0.3-0.1l0.1,0.1L10.1,32.4z M10.6,35.5c0-0.2,0-0.3-0.1-0.3c0,0-0.1,0-0.2,0c-0.1,0-0.2,0-0.2,0c0.1-0.1,0.1-0.2,0.1-0.3H11
			c0,0,0,0.1,0,0.3s0,0.2,0,0.3H10.6z M11,12.4c-0.1,0.5-0.1,0.8,0,1.1c-0.1-0.2-0.2-0.3-0.3-0.5c-0.1-0.1-0.2-0.2-0.5-0.2v-1.2
			c0.3,0,0.5,0.1,0.6,0.3l0.2-0.2c0.1,0.1,0.2,0.3,0.2,0.4C11.3,12.3,11.2,12.4,11,12.4z M10.3,9.2V9h0.5v0.2H10.3z M10.5,15.4
			c0,0.1,0,0.2,0.1,0.3c0.1-0.1,0.3-0.1,0.5-0.1L10.5,15.4z M14,9.9c-0.1,0.4-0.2,0.6-0.1,0.7c-0.3-0.2-0.5-0.3-0.6-0.3l-0.2,0.2
			c0,0,0,0.1,0.1,0.2c0.1,0.1,0.2,0.2,0.2,0.3v0.4l-0.3-0.2c-0.1,0-0.2,0-0.3,0.1c-0.1,0.1-0.2,0.1-0.3,0.1c-0.1,0-0.2,0-0.2-0.1
			c0-0.1-0.1-0.1-0.2-0.1s-0.1,0-0.1,0.1s0,0.1-0.1,0.1c-0.1,0-0.2-0.1-0.2-0.2c0-0.1,0-0.2,0-0.2c-0.1,0.2-0.2,0.4-0.2,0.6
			l-0.7-0.6c-0.2-0.3-0.2-0.5,0-0.9c0.4-0.3,0.6-0.4,0.7-0.4c0.2,0,0.3,0.1,0.5,0.3c-0.2,0-0.4,0-0.4-0.1c-0.4,0.5-0.6,0.8-0.7,0.9
			c0.6,0,0.9,0,1,0c0.1-0.3,0-0.4-0.1-0.6c0,0,0.1,0,0.1,0c0.1,0,0.2,0,0.3,0c0.2,0,0.2-0.1,0.2-0.2c0.2,0.4,0.4,0.7,0.5,1
			c0.2-0.2,0.3-0.4,0.2-0.6c-0.1-0.5-0.1-0.7-0.1-0.7h0.5C13.3,9.6,13.5,9.7,14,9.9z M10.7,7.4l-0.1-0.1L10.9,7l0.1,0.1L10.7,7.4z
			 M10.8,19.2c0-0.3,0.1-0.5,0.3-0.5c0.1,0,0.2,0.1,0.2,0.4C11.3,19.2,11.1,19.2,10.8,19.2z M11.4,31.2v-0.4
			c-0.1,0.1-0.2,0.1-0.2,0.1v-0.4c0.1,0.1,0.2,0.1,0.4,0.1C11.6,30.8,11.6,31,11.4,31.2z M11.4,32.1L11.2,32l0.1-0.3l0.2,0
			L11.4,32.1z M11.3,22.8v-0.2h0.3v0.2H11.3z M11.9,13.6l-0.2-0.2l0.1-0.1L11.9,13.6L11.9,13.6z M12.2,10.5c0,0-0.1,0.1-0.3,0.3
			c0.2,0.1,0.3,0.2,0.3,0.2V10.5z M12.2,12v-0.2h0.3V12H12.2z M12.2,18.3v-0.2h0.3v0.2H12.2z M12.5,29.2l-0.2,0l0.2-0.3l0.1,0
			L12.5,29.2z M12.5,19.3v-0.4h0.2v0.4H12.5z M12.7,35.4c0.5,0,1,0.1,1.2,0.3c0.1-0.2,0.1-0.3,0.1-0.3
			C13.6,35.2,13.2,35.2,12.7,35.4z M13,6.6V6.4l0.3-0.1l0,0.1L13,6.6z M13.4,24.8l-0.3-0.3l0.1-0.1l0.3,0.4L13.4,24.8z M13.6,6
			c-0.2-0.2-0.2-0.3-0.2-0.4c0,0,0.1,0,0.2,0c0.1,0,0.2,0,0.2,0C13.7,5.8,13.7,5.9,13.6,6z M14,24.6c-0.1,0-0.1,0.1-0.1,0.3h0.5
			C14.4,24.9,14.2,24.8,14,24.6z M14.1,5.6V5.1h0.2v0.4H14.1z M14.9,5V4.4c0,0,0.1,0,0.3,0c0.2,0,0.3,0,0.4,0
			C15.5,4.7,15.2,4.8,14.9,5z M15.1,9.2V9h0.3v0.2H15.1z M15.7,7.6c0-0.1,0-0.2,0.1-0.3c0-0.1-0.1-0.1-0.3-0.1l0.1-0.4
			c0,0.1,0.1,0.2,0.2,0.3c0.1,0.1,0.2,0.2,0.2,0.3L15.7,7.6z M17.2,6.9c-0.1,0-0.1-0.1-0.1-0.2c0-0.1,0-0.2-0.1-0.2
			c-0.1,0-0.2,0-0.5,0.1c-0.2,0.1-0.4,0.1-0.5,0.1c0.1-0.3,0.3-0.4,0.6-0.4c0.1,0,0.2,0,0.2,0c0.1,0,0.1,0,0.2,0s0.2,0,0.2-0.1
			c0-0.1,0.1-0.1,0.2-0.1c0.1,0,0.2,0.1,0.4,0.2C17.9,6.5,18,6.6,18,6.6v0.5C17.9,7,17.6,6.9,17.2,6.9z M16.6,9.8
			c-0.2,0-0.3-0.1-0.4-0.2c0.2-0.3,0.4-0.5,0.6-0.5C16.9,9.2,16.8,9.4,16.6,9.8z M16.9,6.2C16.9,6,16.8,6,16.7,6V5.3
			c0,0,0.1,0,0.2-0.1c0.1,0,0.2-0.1,0.3-0.1c0,0,0,0.1,0.1,0.3c0,0.2,0.1,0.3,0.1,0.4L16.9,6.2z M18.1,3.5C18,3.6,18,3.6,18,3.6
			c0-0.1-0.1-0.2-0.2-0.2c0,0.2,0,0.4,0.1,0.5c-0.1,0.1-0.3,0-0.7-0.2c0.3-0.3,0.4-0.5,0.5-0.6h0.4C18.2,3.2,18.2,3.4,18.1,3.5z
			 M17.7,4.8C17.7,5,17.8,5,18,5l-0.2,0.8c-0.1-0.4-0.3-0.9-0.4-1.4c0,0,0.1,0,0.3-0.1c0.1-0.1,0.2-0.1,0.3-0.1l0.3,0.3
			C18,4.7,17.8,4.8,17.7,4.8z M18.1,8.7V7.9h0.4c0,0.1,0.1,0.3,0.2,0.8H18.1z M19.2,7c0,0.1,0.1,0.2,0.3,0.4
			c-0.2,0.2-0.4,0.3-0.6,0.3c0-0.1,0-0.3,0-0.4c-0.2-0.1-0.3-0.2-0.4-0.2V6.9c0.2,0.1,0.6-0.1,1.2-0.7c0,0.1,0,0.2,0.1,0.3
			c0,0.1,0.1,0.2,0.1,0.3C19.6,6.9,19.3,7,19.2,7z M18.7,5.3V5.1L19.1,5l0,0.1L18.7,5.3z M19.4,28.2V28h0.3v0.2H19.4z M19.5,8.8
			c0-0.4,0.1-0.6,0.2-0.7c0,0,0,0.1,0.1,0.2c0,0.1,0.1,0.2,0.1,0.2C19.7,8.7,19.6,8.8,19.5,8.8z M19.9,7.4l0.3-0.3
			c0.1,0.1,0.1,0.2,0.1,0.3H19.9z"/>
		<path class="st0" d="M62.5,40.7c-1.4,0.1-3.2,0.1-5.4,0.1c0-0.1-0.1-0.3-0.2-0.5c0,0-0.2,0.1-0.4,0.2c-0.2,0.2-0.4,0.2-0.6,0.2h-2
			c0,0-0.4,0-1.2-0.1c-0.8-0.1-1.4-0.1-1.8,0c-0.3-0.7-0.7-1.8-1.2-3.2c-0.1-0.3-0.4-0.5-0.7-0.7c-0.7-0.3-1.4-0.4-2.1-0.4
			c-0.1,0-0.1,0-0.1,0.1c0,0-0.1,0-0.2,0c0,0-0.2-0.1-0.4-0.4c-0.1,0-0.2,0.1-0.2,0.4c-0.5,0-1.2,0-2.3,0.1
			c-0.9,0.1-1.6,0.1-2.1,0.1c-1.2,0-3.3,0-6.3,0.1c-0.2,0.3-0.4,0.6-0.5,0.9l-0.2,0.1c0,0.1,0,0.2,0,0.4c-0.3,0.7-0.7,1.6-1.2,2.7
			c-0.2,0-0.5,0-0.9,0c-0.1,0-0.3,0-0.6-0.1c-0.3,0-0.5-0.1-0.6-0.1c-0.1,0-0.3,0-0.5,0.1c-0.2,0.1-0.4,0.1-0.5,0.1
			c-0.1,0-0.3,0-0.5-0.1c-0.2-0.1-0.3-0.1-0.4-0.1c-0.2,0-0.5,0.3-0.9,1c-0.1-0.1-0.1-0.3,0.1-0.4C28.5,41.1,28.3,41,28,41
			c-0.4,0-1,0-2.1,0.1c-0.4,0.1-0.6,0.2-0.8,0.3c0-0.2,0-0.3-0.1-0.4c-0.2,0-0.3,0.1-0.3,0.4c-0.1-0.2-0.4-0.4-0.9-0.4
			c-0.4,0-0.9,0-1.4,0c0.1-0.2,0.4-1.3,1-3.2c0.3-1,0.7-2.1,1.2-3.3c0-0.3,0.1-0.8,0.3-1.4c0.4-1.3,1.2-3.6,2.4-6.8
			c0.1-0.1,0-0.4-0.1-0.7c0.4-0.3,0.6-0.7,0.7-1c0-0.2,0-0.2-0.2-0.2c0.8-0.9,1.1-1.6,0.9-2.4c0.4-0.5,0.7-1.5,1.1-2.9
			c0.2-0.2,0.4-0.4,0.6-0.8c0-0.3,0.1-0.7,0.2-1.3c0.7-1.9,1.8-4.8,3.1-8.7c0.5-1.6,1.2-3.7,2-6.2h12.4c0.9,2.1,3.5,9,7.9,20.5
			c0,0.1-0.1,0.3-0.3,0.5c0,0.1,0.1,0.2,0.4,0.2c0.5,0.9,0.8,1.5,0.8,2c0.2,0.1,0.3,0.4,0.3,0.8c0,0.4,0,0.6,0,0.8
			c0.1,0.1,0.2,0,0.3,0c0.8,2.1,1.8,4.8,3,8.2c0,0.1,0,0.3-0.1,0.6c0.2,0.2,0.4,0.4,0.7,0.7C61.1,36.9,61.6,38.3,62.5,40.7z
			 M26.3,28.3c-0.2-0.2-0.5-0.2-0.8-0.2c0.1-0.2,0.3-0.4,0.6-0.6C26.1,27.7,26.1,28,26.3,28.3z M26,21.5l-0.2,0.3l-0.1,0l0.1-0.3
			L26,21.5z M26.5,22.3c0,0-0.1,0-0.3,0.1c-0.1,0.1-0.2,0.1-0.3,0.1c0.1,0,0.2-0.1,0.2-0.4C26.2,22.3,26.4,22.3,26.5,22.3z
			 M27.5,42.4l-0.2,0.3l-0.1,0l0.1-0.3L27.5,42.4z M27.6,19.6l-0.1,0.3l-0.2,0l0.2-0.3L27.6,19.6z M28,38.5V38h-0.2v0.5H28z
			 M29.3,42.8L29,43.1h-0.6c0-0.1,0.1-0.3,0.3-0.5L29.3,42.8z M29,41.2h-0.2v-0.3H29V41.2z M29.4,38.2l0-0.2l-0.3,0.1v0.2L29.4,38.2
			z M32.1,30.4l-0.2-0.2l-0.1,0.1l0.2,0.2L32.1,30.4z M32.4,36.1v-0.2h-0.3v0.2H32.4z M32.6,37.4c-0.2-0.3-0.4-0.5-0.6-0.5v0.5H32.6
			z M32.4,25.2v-0.5h-0.2v0.5H32.4z M32.8,26.3c-0.1,0-0.3-0.1-0.5-0.3v0.6c0.1,0,0.2,0,0.3,0.1C32.6,26.5,32.7,26.4,32.8,26.3z
			 M33.1,30.4V30h-0.2v0.4H33.1z M33.6,39v-0.7H33C33.2,38.7,33.4,38.9,33.6,39z M33.7,28.7l-0.2,0l-0.1,0.3l0.1,0.1L33.7,28.7z
			 M34.2,31.9v-0.2h-0.3v0.2H34.2z M34.5,33.8c-0.2-0.2-0.4-0.2-0.6,0c0.1,0,0.2,0.1,0.4,0.3C34.4,34.1,34.4,34,34.5,33.8z
			 M34.4,36.6v-0.4h-0.5C34.1,36.4,34.2,36.5,34.4,36.6z M34.3,35.5V35h-0.2v0.5H34.3z M36,31.5v-0.4h-0.2v0.4H36z M45.7,24.3
			l-0.2,0.2L42,16.7l-3.5,9.8c0,0.1,0,0.2,0.1,0.3c1,0,2.1,0,3.2,0c1.2,0,1.7,0,1.6,0c0.2,0,0.6,0.1,1.2,0.4
			c0.1-0.1,0.4-0.2,0.9-0.4C45.5,26.1,45.6,25.3,45.7,24.3z M41.4,32.3c0-0.1,0-0.2-0.1-0.4c0-0.2-0.1-0.3-0.1-0.3
			c-0.1,0.1-0.2,0.4-0.2,0.8C41.2,32.4,41.3,32.4,41.4,32.3z M42.1,10.4h-0.2l-0.1,0.4l0.2,0L42.1,10.4z M42.8,32.2
			c0-0.1,0-0.2-0.1-0.3l-0.3,0.3H42.8z M43.3,28.1c0-0.2-0.1-0.4-0.3-0.6c0,0.1,0,0.3,0,0.5c0,0.2,0,0.3,0,0.4
			C43.2,28.2,43.3,28.1,43.3,28.1z M43.6,32.4l-0.2,0l-0.1,0.3l0.2,0L43.6,32.4z M44.2,35.8l-0.5-0.1v0.2l0.4,0.1L44.2,35.8z
			 M47.3,34.1c-0.3,0-0.5-0.1-0.6-0.4c-0.1-0.3-0.2-0.5-0.4-0.6c-0.2,0.4-0.2,0.7,0,1H47.3z M47.2,33.1l-0.2,0l-0.1,0.3l0.2,0.1
			L47.2,33.1z M47.2,31.5v-0.3H47v0.3H47.2z M47.8,33.1c0,0.1-0.1,0.1-0.3,0.1c0.1,0.1,0.1,0.3,0.1,0.5
			C47.8,33.6,47.8,33.4,47.8,33.1z M48,32.8l-0.2-0.2l-0.1,0.1l0.2,0.2L48,32.8z M48.6,35.2c0,0,0-0.1-0.1-0.2
			c0-0.1-0.1-0.2-0.1-0.2c0,0-0.2,0.1-0.5,0.4l0.3,0.3C48.3,35.5,48.4,35.4,48.6,35.2z M48.4,29.3v-0.6h-0.2v0.6H48.4z M48.9,32.5
			v-0.2h-0.5v0.2H48.9z M49.5,28.8v-0.2H49v0.2H49.5z M49.6,26.2V26h-0.4v0.2H49.6z M49.6,27.1c0-0.2,0-0.4-0.1-0.5
			c-0.1,0.1-0.1,0.2-0.2,0.3C49.3,27,49.4,27.1,49.6,27.1z M49.9,33l-0.2-0.2l-0.1,0.1l0.2,0.1L49.9,33z M50,8.6V8.4h-0.3v0.2H50z
			 M51.1,34.2c0,0,0-0.2,0-0.4c0-0.2,0-0.3,0-0.4c-0.1-0.1-0.2-0.2-0.3-0.3c0,0.1,0,0.2-0.1,0.3c-0.1,0.1-0.1,0.3-0.1,0.4
			C50.6,34,50.8,34.2,51.1,34.2z M51.2,21.4v-0.6h-0.2v0.6H51.2z M51.2,22.1v-0.4h-0.2v0.4H51.2z M51.6,35.3l-0.2,0l-0.1,0.3l0.2,0
			L51.6,35.3z M53.2,37.8c-0.1,0-0.2,0.1-0.2,0.4L52.7,38c-0.1,0-0.3,0.2-0.4,0.5c-0.2-0.1-0.5-0.1-0.9-0.1v0.5
			c0.2-0.2,0.3-0.2,0.5-0.2c0.1,0,0.2,0,0.2,0.1c0,0.1,0.1,0.1,0.2,0.1c0.2,0,0.4-0.2,0.6-0.5S53.2,37.9,53.2,37.8z M52.5,35.2
			l-0.3-0.3c-0.2,0.2-0.3,0.4-0.3,0.5l0.3,0.7C52.2,35.7,52.3,35.4,52.5,35.2z M53,27.3l-0.1-0.2l-0.3,0.1v0.2L53,27.3z M54,36.5
			h-0.2L53.7,37l0.2,0.1L54,36.5z M54.7,37.1l-0.1,0l-0.2,0.3l0.2,0L54.7,37.1z M55.3,37.6c-0.2-0.1-0.5-0.1-0.9,0.1
			c0.1,0,0.2,0,0.3,0.1C54.9,37.9,55.1,37.8,55.3,37.6z M55,40v-0.6h-0.2V40H55z M56.1,38.7L56,38.6l-0.4,0.3l0.1,0.2L56.1,38.7z
			 M56.7,39.3h-0.2l-0.1,0.4l0.1,0L56.7,39.3z M57,34.7l-0.1-0.5l-0.2,0l0.1,0.4H57z M57.1,36h-0.2l-0.1,0.6H57L57.1,36z M57.1,35.3
			v-0.3h-0.2v0.3H57.1z M57.5,38.3l-0.1-0.1c-0.1,0.1-0.1,0.2-0.2,0.3c0.1,0,0.2,0,0.3-0.1C57.5,38.3,57.6,38.3,57.5,38.3z
			 M57.7,36.5l-0.1-0.1l-0.2,0.3l0.2,0L57.7,36.5z M57.6,39.2v-0.6h-0.2v0.6H57.6z M58.6,38.3h-0.1l-0.1,0.4l0.1,0.1L58.6,38.3z
			 M59.9,36.6l-0.5-0.1c0,0.1,0,0.2,0.1,0.3C59.7,36.7,59.8,36.6,59.9,36.6z M59.7,35.5v-0.3h-0.2v0.3H59.7z"/>
		<path class="st0" d="M98.8,41.2c-0.1,0-1,0.2-2.8,0.4l-13.7-13c-0.1,0-0.2,0-0.4,0c-0.6-0.6-1.3-1.2-1.9-1.7
			c-0.8-0.7-1.2-1.2-1.2-1.5c0,0.1,0,0.1,0,0.2c-0.3-0.1-0.6-0.3-0.8-0.6c-0.1,0-0.2-0.1-0.3-0.1c-0.3-0.3-0.6-0.7-1.1-1.2
			c-0.2-0.1-0.5-0.4-1.1-0.8c0.1,0.2,0.1,0.1,0.1-0.3l-0.2-0.1c-0.2,0.4-0.3,0.8-0.5,1.1c-0.1-0.2-0.2-0.5-0.5-0.8
			c-0.1,0.2-0.2,0.4-0.1,0.5c0,0.4,0,0.6,0,0.8c0,0.1,0.1,0.1,0.3,0.1s0.3-0.1,0.3-0.2c0,0.4-0.1,0.5-0.2,0.5l-0.3-0.1
			c0,0,0,0.1,0,0.2c0,0.1,0,0.2,0,0.3c0.1,0.1,0.3,0.1,0.5,0.1c0,0.3-0.1,0.7-0.3,1.3l0.2,0.2c0-0.1,0-0.2,0-0.5h0.6v3.9
			c0,0-0.1,0-0.2,0c-0.1,0-0.2,0-0.2,0l-0.2,0.2c0.1,0.3,0.3,0.5,0.6,0.8c0,0.1,0,1,0,2.8c0,0.1,0,0.2,0.1,0.3s0.1,0.3,0.1,0.4v6.7
			c-0.5,0-1.8,0-4,0c-0.6,0-0.9,0-1,0s-0.2-0.2-0.4-0.5v0.3c-0.4,0-1.2,0-2.3,0.1c-1.2,0-1.9,0-2.3,0l-0.2-0.1l0.4-15.9
			c0,0-0.1,0-0.1-0.1v-1.9c0-0.1,0-0.3,0.1-0.6c0.1-0.3,0.1-0.5,0.1-0.6c0-0.2-0.1-0.3-0.3-0.4c0-0.4,0-1.3,0.1-2.8
			c0.1-1.2,0.1-2.2,0-2.9c0-0.1,0-0.3-0.1-0.6s-0.1-0.6-0.1-0.6V7.9L65.5,2c0.6,0.2,1.6,0.6,2.7,1.1c0.7,0.4,1.7,1.3,3.1,2.5
			c1,0.9,1.9,1.8,2.9,2.7c0.9,0.7,2,1.8,3.6,3.2c0.1,0,0.2,0.1,0.4,0.2c2.4,2.2,6.1,5.6,11,10c0,0,0.1-0.1,0.1-0.2c0-0.4,0-1.1,0-2
			c0-1,0-1.4,0-1.3v-4.3L89,3.4c0.1-0.1,0.2-0.1,0.4-0.2c0.8-0.1,2.3-0.2,4.3-0.5c1.9-0.3,2.9-0.4,3-0.4c0.6,0,1.1,0.1,1.4,0.2
			c0.1,0.1,0.2,0,0.3-0.2L98.8,41.2z M66.5,23.8c0.1,0.1,0.1,0.4-0.1,1v-1.1L66.5,23.8z M67.5,14.7l-0.2-0.6l-0.1,0l0.2,0.5H67.5z
			 M67.7,24.1l-0.1-0.3l-0.1,0l0.1,0.3H67.7z M67.7,13v-0.4h-0.2V13H67.7z M67.7,26.4v-0.3h-0.2v0.3H67.7z M68.3,24.1L67.8,24v0.2
			l0.4,0.1L68.3,24.1z M68.6,22.6v-0.4c-0.2,0.2-0.4,0.6-0.7,1c0.1,0,0.2,0,0.3,0c0.1,0,0.2,0,0.2,0c-0.1-0.2-0.1-0.3-0.1-0.4
			C68.4,22.6,68.5,22.6,68.6,22.6z M69.3,25.8v-0.7h-0.2v0.7H69.3z M70.8,26.9v-0.1c-0.3-0.1-0.4-0.2-0.4-0.1
			C70.5,26.8,70.7,26.9,70.8,26.9z M71.4,32.3v-0.5h-0.2v0.5H71.4z M71.5,14.5l-0.1,0l-0.1,0.3l0.1,0.1L71.5,14.5z M71.5,25.9h-0.1
			l-0.1,0.4l0.1,0L71.5,25.9z M72.3,17.6v-0.4h-0.2v0.4H72.3z M72.3,20.1v-0.4h-0.2v0.4H72.3z M73.5,19.7c-0.1-0.1-0.2-0.5-0.4-1.2
			c-0.1,0.5-0.3,0.9-0.4,1.2c0.1,0,0.2,0,0.4,0c0.1,0,0.2,0,0.3,0C73.5,19.5,73.5,19.6,73.5,19.7z M73.2,24.4l-0.5-0.1v0.2l0.4,0.1
			L73.2,24.4z M73.6,36.1c0,0.3,0,0.4-0.1,0.6c0-0.2-0.1-0.3-0.2-0.4C73.4,36.2,73.5,36.1,73.6,36.1z M74.1,24.2
			c-0.1-0.2-0.2-0.5-0.3-0.9c0,0.5,0,0.8-0.1,1L73.4,24c0,0.2,0.1,0.3,0.3,0.3C73.9,24.4,74,24.3,74.1,24.2z M74,22.6v-0.7h-0.2v0.7
			H74z M74.3,31.4c-0.2,0-0.3,0.1-0.3,0.3c0,0.1,0,0.2,0.1,0.3c0,0.1,0.1,0.1,0.1,0.1C74.2,32.1,74.3,31.8,74.3,31.4z M74.4,33.4
			c-0.3,0.1-0.4,0.4-0.4,0.7c0,0.2,0.1,0.5,0.3,0.8c-0.1-0.2-0.1-0.5,0-0.8C74.4,33.7,74.4,33.5,74.4,33.4z M74.7,36.8l-0.1,0.1
			l-0.2-0.1l0.1-0.1L74.7,36.8z M74.8,26.9v-0.3h-0.2v0.3H74.8z M75,29.2v-0.7h-0.2v0.7H75z M75.3,25.2c0-0.1,0-0.6,0-1.5
			c-0.1,0.4-0.2,0.9-0.4,1.6c0,0,0.1,0,0.2-0.1C75.2,25.2,75.2,25.2,75.3,25.2z M76,17.1v-0.2h-0.4v0.2H76z M76.9,17.3v-0.2h-0.4
			v0.2H76.9z M76.8,15v-0.7h-0.2V15H76.8z M78.3,21.6l-0.2,0L78,21.8l0.2,0.1L78.3,21.6z M79.1,24.7c-0.2-0.2-0.3-0.3-0.2-0.3
			c-0.2,0.2-0.2,0.4-0.2,0.6C78.8,24.8,79,24.7,79.1,24.7z M79,23.8l-0.2,0L78.7,24l0.1,0L79,23.8z M79.1,19.6l-0.2-0.2l-0.1,0.1
			l0.1,0.1L79.1,19.6z M79.2,22.7l-0.2-0.1l-0.1,0.3l0.1,0L79.2,22.7z M81.8,16.2l-0.2,0l-0.1,0.3l0.2,0L81.8,16.2z M83.2,21.8
			c0-0.1,0-0.1-0.1-0.2s-0.1-0.2-0.1-0.2c0-0.2,0-0.4,0-0.7c0,0.2-0.3,0.5-0.8,1v0.3l0.1,0.1C82.5,22,82.8,21.9,83.2,21.8z
			 M82.8,26.2l-0.1-0.5l-0.2,0.1l0.1,0.4H82.8z M83,22.6v-0.3h-0.2v0.3H83z M84,21.2c-0.1,0.1-0.2,0.3-0.4,0.5h0.6L84,21.2z
			 M84.3,18.3V18h-0.2v0.3H84.3z M87,26.3L87,26.3l-0.5,0.3l0.1,0.1L87,26.3z M89,31.2v-0.4h-0.2v0.4H89z M89.7,26.9v-0.4
			c-0.1,0-0.2,0-0.3,0.1L89.7,26.9z M90.4,16.3v-0.2h-0.3v0.2H90.4z M91.3,18.6v-0.7h-0.2v0.7H91.3z M93.8,19.3V19h-0.2v0.3H93.8z
			 M96.3,32.8v-0.4h-0.2v0.4H96.3z"/>
		<path class="st0" d="M129.6,10.7c-1.9,0.4-3.5,0.5-4.6,0.5c-0.1,0-0.5,0-1.3-0.1s-1.2-0.1-1.3-0.1c-0.3,0-0.7,0.2-1.2,0.5
			c0,5.1,0.1,13.6,0.2,25.7c0,0-0.1,0-0.2,0.2c0.2,0.6,0.2,1.7,0.2,3.1c-0.1,0.1-0.2,0.2-0.3,0.3h-1l-0.2-0.2c0,0-0.1,0.1-0.2,0.2
			c-0.4,0-1.5,0-3.4,0c-0.1,0-0.7,0-1.8,0c-1.1,0-1.7,0-1.8,0c-0.1,0-0.2,0-0.4,0.1c-0.2,0.1-0.3,0.1-0.3,0.1c-0.1,0-0.2,0-0.3-0.1
			s-0.2-0.1-0.2-0.1c0-0.4,0-4.8,0-13.2c0-0.1,0-0.2-0.1-0.4c0-0.2-0.1-0.4-0.1-0.5c-0.1-2.5-0.1-4.6-0.1-6.4c0-0.6,0-1.5,0.1-2.6
			c-0.4-1-0.4-1.9,0-2.8c0-0.2-0.1-0.5-0.1-0.7c0-0.3,0.1-0.5,0.3-0.6c-0.2-0.2-0.3-0.5-0.3-1v-1.2c0.2,0-0.1,0-0.7,0
			c-0.1,0-0.3-0.2-0.4-0.5c-0.2,0.3-0.4,0.5-0.7,0.5c-0.1,0-0.4,0-0.8,0c-0.5,0-0.7,0-0.8,0c-0.1,0-0.2,0.1-0.4,0.2
			c-0.2,0.1-0.3,0.2-0.4,0.2H103c-0.1-0.1-0.1-0.3-0.1-0.4c0.2-0.7,0.3-1.6,0.3-2.7c0.1,0,0.2-0.1,0.3-0.2c-0.1-0.1-0.2-0.2-0.3-0.2
			c0-0.1,0.1-0.2,0.2-0.4c0.1-1.3,0.2-3.2,0.3-5.8h6.2c0.1,0.2,0.3,0.4,0.5,0.7c0,0,0,0,0-0.1c0-0.1,0.1-0.1,0.2-0.1
			c0.1,0,0.1,0,0.1,0c0,0,0,0,0.1,0c0.1,0,0.2-0.1,0.3-0.4l0.2,0.2c0.1,0,0.1-0.1,0.1-0.3h6.7c0.1-0.1,0.2-0.1,0.2,0
			c0,0.1,0,0.2-0.2,0.3c0.1,0.1,0.2,0.2,0.4,0.4s0.4,0.3,0.5,0.3c0.1,0,0.2,0,0.2-0.1c0,0,0-0.1,0.1-0.1c0,0,0.3,0.1,0.8,0.4
			c0.1-0.2,0.3-0.5,0.7-0.9c0-0.1-0.1-0.2-0.4-0.3c0.2,0,0.5,0,1-0.1c0.5-0.1,0.7-0.1,0.8-0.1c0.3,0,0.5,0.1,0.7,0.2
			c0.1-0.1,0.1-0.2,0.1-0.2c0.3,0.1,0.6,0.1,0.9,0.1c0.3,0,0.7,0,1.3-0.1c0.6-0.1,1-0.1,1.3-0.1c1.1,0,1.6,0.6,1.6,1.7L129.6,10.7z
			 M104.4,10.4l-0.1-0.2l-0.1,0.1L104.4,10.4L104.4,10.4z M106.6,10.1L106,9.9v0.6C106.1,10.5,106.3,10.3,106.6,10.1z M106.7,9.9
			V9.6h-0.2v0.3H106.7z M107.2,6.5V6.2h-0.3v0.2H107.2z M107.3,8.7l0-0.1l-0.4,0.1v0.1L107.3,8.7z M107.3,10l-0.1-0.1L107,10
			l0.2,0.2L107.3,10z M108,4.8l0-0.2l-0.4,0.1v0.2L108,4.8z M108.3,10.9l-0.2-0.3l-0.1,0l0.1,0.3H108.3z M108.5,8.7l-0.3-0.1l0,0.1
			l0.3,0.2L108.5,8.7z M108.8,6.9l0-0.2l-0.3,0.1v0.2L108.8,6.9z M109,8.2l-0.3,0.3c0.2,0,0.3,0.1,0.3,0.3
			C108.9,8.8,109,8.6,109,8.2z M109.2,9.6c0,0-0.1,0-0.2,0.1c-0.1,0-0.2,0.1-0.2,0.1c0.2,0,0.2,0.1,0.2,0.2c0,0,0-0.1,0.1-0.2
			C109.2,9.6,109.2,9.6,109.2,9.6z M109.3,8.2l-0.1-0.4L109,7.9l0.1,0.3H109.3z M109.7,7.5V6.8c-0.2-0.2-0.3-0.3-0.3-0.4
			c-0.1,0.2-0.2,0.4-0.4,0.8C109.4,7.4,109.6,7.5,109.7,7.5z M110.4,9.3V8.6c-0.1,0-0.2,0-0.4,0c-0.2,0-0.3,0-0.4,0
			c0.1,0,0.2,0.1,0.4,0.3C110.2,9.2,110.4,9.3,110.4,9.3z M110,9.1L109.8,9l-0.1,0.3l0.1,0L110,9.1z M110.3,7.4V7.2l-0.6-0.1v0.2
			L110.3,7.4z M110.7,4.8l-0.2-0.2l-0.1,0.1l0.2,0.2L110.7,4.8z M111.1,2.1l-0.4,0.1V2.1l0.3-0.1L111.1,2.1z M111.3,7.6V6.9h-0.2
			v0.7H111.3z M112,7.3V6.5h-0.2v0.8H112z M112,8V7.5h-0.2V8H112z M112.7,23.9l-0.8-0.1c0,0.1,0,0.2,0.1,0.3
			c0.1,0.1,0.1,0.2,0.1,0.2c0,0,0.1-0.1,0.3-0.1C112.6,24,112.7,23.9,112.7,23.9z M112.5,17.6v-0.2h-0.3v0.2H112.5z M112.5,6.2
			L112.3,6l-0.1,0.1l0.1,0.2L112.5,6.2z M112.8,13.7l-0.5-0.1v0.2l0.4,0.1L112.8,13.7z M112.6,36.4h-0.3v-0.2h0.3V36.4z M113.9,26.7
			c0-0.1-0.1-0.2-0.3-0.4l-0.2,0.2c-0.2-0.4-0.4-0.6-0.8-0.6c0.1,0.1,0.1,0.3-0.1,0.5l0.3,0.3C113.1,26.8,113.5,26.8,113.9,26.7z
			 M113.2,8.8c0,0-0.2-0.3-0.4-0.7v0.7H113.2z M113.9,34.8c-0.2,0-0.3,0-0.4-0.1c0,0.1,0,0.2,0.1,0.3
			C113.7,34.9,113.8,34.9,113.9,34.8z M114.3,26.3v-0.2h-0.7v0.2H114.3z M114.1,24.7l-0.2,0l-0.1,0.3l0.2,0.1L114.1,24.7z
			 M114.3,40.2h-0.5l0.3-0.3C114.2,40,114.3,40.1,114.3,40.2z M114.3,7.2l0-0.1L114,7.2v0.1L114.3,7.2z M114.7,26.8
			c0,0.1-0.1,0.1-0.4,0.1c0.3-0.5,0.4-0.8,0.3-0.8v0.2C114.7,26.6,114.7,26.7,114.7,26.8z M115.2,25.4c-0.1,0-0.2-0.1-0.3-0.2
			c0.1-0.3,0-0.4-0.2-0.5c0,0.2,0,0.4,0,0.6l0.1,0.5C114.8,25.7,115,25.6,115.2,25.4z M115.5,26.3h-0.6c-0.1,0.1,0,0.3,0.1,0.5
			L115.5,26.3z M115.3,37.5c0,0-0.1,0-0.2-0.1c-0.1,0-0.2-0.1-0.2-0.1c0.1-0.1,0.2-0.2,0.4-0.3V37.5z M115.2,7V6.4H115V7H115.2z
			 M115.5,22.6v-0.2H115v0.2H115.5z M115.4,26l-0.2-0.1l-0.1,0.1l0.1,0.2L115.4,26z M115.4,6.3V5.5h-0.2v0.8H115.4z M115.7,25.3
			l-0.3-0.2l-0.1,0.2l0.3,0.1L115.7,25.3z M115.6,6.4V6h-0.2v0.4H115.6z M116.1,33.8c0,0,0-0.2,0-0.4h-0.4c0.1,0.1,0.1,0.3,0,0.4
			H116.1z M116.4,7.3L116.2,7l-0.3,0.3c0,0.1,0.1,0.1,0.3,0.1C116.3,7.4,116.4,7.4,116.4,7.3z M116.1,27.3v-0.4h-0.2v0.4H116.1z
			 M117.3,7.2c0,0-0.1,0-0.3-0.1c-0.1,0-0.2-0.1-0.3-0.1c0,0.4,0.1,0.7,0.4,0.8C117.2,7.7,117.2,7.5,117.3,7.2z M117.9,27.5
			c-0.4-0.4-0.5-0.5-0.6-0.5v0.7c0,0,0.1,0,0.3-0.1S117.9,27.5,117.9,27.5z M117.9,6.5V6.2h-0.3v0.2H117.9z M117.9,37.3l-0.1,0.1
			l-0.2-0.2l0.1-0.1L117.9,37.3z M119.3,31.8l-0.8-0.1c0,0.4,0,0.7,0.1,0.7c0.1-0.2,0.2-0.3,0.3-0.4
			C119.1,31.9,119.2,31.9,119.3,31.8z M119.1,8.8V8.6h-0.4v0.2H119.1z M119.8,37.4c0,0.3,0,0.4,0,0.5c-0.1-0.1-0.2-0.2-0.3-0.2
			C119.7,37.5,119.8,37.4,119.8,37.4z M127.6,10.3l-0.3-0.3v0.7C127.3,10.7,127.4,10.6,127.6,10.3z"/>
		<path class="st0" d="M143.9,4.8l-1.1,1.1c0-0.2-0.1-0.3-0.4-0.3v0.6c0.1,0.1,0.1,0.2,0.2,0.3c0,0.1,0.2,0.1,0.5,0.1
			c0.2,0,0.4,0,0.6-0.1c0.1-0.1,0.2-0.1,0.3-0.1v34.8h-11.1V1.9h11.1V4.8z M135.1,31.6c-0.1-0.1-0.2-0.3-0.2-0.5
			c0-0.2,0.1-0.4,0.2-0.5c-0.1,0-0.3,0-0.5,0.1c-0.2,0.1-0.4,0.1-0.5,0.1C134.4,31.3,134.8,31.6,135.1,31.6z M135.3,33.2v-0.4
			l-1.2,0.3v0.4L135.3,33.2z M138,24.2c-0.1,0-0.1,0-0.2,0.1c-0.1,0-0.3,0.1-0.5,0.1s-0.5-0.2-0.7-0.7s-0.5-0.8-0.7-1
			c0,0.5,0,0.8,0,1c-0.2,0-0.4-0.1-0.7-0.2c-0.3-0.2-0.5-0.2-0.5-0.2c0.2,0.2,0.4,0.4,0.7,0.6c0.3,0.2,0.4,0.4,0.5,0.4
			c-0.2,0.2-0.4,0.1-0.6-0.1c-0.2,0.3-0.3,0.6-0.3,0.9c0.4,0.1,0.8,0.3,1.4,0.5c0-0.1-0.1-0.3-0.4-0.6c0.3-0.3,0.6-0.4,1-0.4
			c0.3,0,0.4,0,0.4,0.1c-0.1,0.3-0.1,0.4-0.1,0.3C137.2,24.9,137.6,24.6,138,24.2z M135.7,31.4v-0.7h-0.4v0.7H135.7z M139.2,21.2
			l-0.7,0.7c0.4,0,0.5,0.1,0.3,0.3c-0.1,0-0.4-0.3-1-0.8c-0.4,0.4-0.9,0.7-1.3,0.8c0.4,0.4,0.7,0.8,0.9,1.4c0-0.2,0.1-0.4,0.2-0.9
			c0.2-0.4,0.2-0.7,0.2-0.9l0.3,0.4c0,0.6,0,1,0.1,1.1C138.9,22.6,139.2,21.9,139.2,21.2z M138.3,20.8c-0.3,0-0.6,0.1-1,0.3
			c-0.4,0.2-0.6,0.3-0.6,0.3c0.2,0,0.3,0.1,0.5,0.3C137.5,21.4,137.8,21.1,138.3,20.8z M138.8,30.9c-0.3-0.2-0.7-0.5-1.2-0.9v0.9
			H138.8z M142.2,23.9l-0.1-0.3l-0.6,0.3v0.4L142.2,23.9z M143.2,30.4v-0.7h-0.4v0.7H143.2z"/>
		<path class="st0" d="M189.1,40.7c-1.4,0.1-3.2,0.1-5.4,0.1c0-0.1-0.1-0.3-0.2-0.5c0,0-0.2,0.1-0.4,0.2c-0.2,0.2-0.4,0.2-0.6,0.2
			h-2c0,0-0.4,0-1.2-0.1c-0.8-0.1-1.4-0.1-1.8,0c-0.3-0.7-0.7-1.8-1.2-3.2c-0.1-0.3-0.4-0.5-0.7-0.7c-0.7-0.3-1.4-0.4-2.1-0.4
			c-0.1,0-0.1,0-0.1,0.1c0,0-0.1,0-0.2,0c0,0-0.2-0.1-0.4-0.4c-0.1,0-0.2,0.1-0.2,0.4c-0.5,0-1.2,0-2.3,0.1
			c-0.9,0.1-1.6,0.1-2.1,0.1c-1.2,0-3.3,0-6.3,0.1c-0.2,0.3-0.4,0.6-0.5,0.9l-0.2,0.1c0,0.1,0,0.2,0,0.4c-0.3,0.7-0.7,1.6-1.2,2.7
			c-0.2,0-0.5,0-0.9,0c-0.1,0-0.3,0-0.6-0.1c-0.3,0-0.5-0.1-0.6-0.1c-0.1,0-0.3,0-0.5,0.1c-0.2,0.1-0.4,0.1-0.5,0.1
			c-0.1,0-0.3,0-0.5-0.1c-0.2-0.1-0.3-0.1-0.4-0.1c-0.2,0-0.5,0.3-0.9,1c-0.1-0.1-0.1-0.3,0.1-0.4c-0.3-0.3-0.5-0.4-0.8-0.4
			c-0.4,0-1,0-2.1,0.1c-0.4,0.1-0.6,0.2-0.8,0.3c0-0.2,0-0.3-0.1-0.4c-0.2,0-0.3,0.1-0.3,0.4c-0.1-0.2-0.4-0.4-0.9-0.4
			c-0.4,0-0.9,0-1.4,0c0.1-0.2,0.4-1.3,1-3.2c0.3-1,0.7-2.1,1.2-3.3c0-0.3,0.1-0.8,0.3-1.4c0.4-1.3,1.2-3.6,2.4-6.8
			c0.1-0.1,0-0.4-0.1-0.7c0.4-0.3,0.6-0.7,0.7-1c0-0.2,0-0.2-0.2-0.2c0.8-0.9,1.1-1.6,0.9-2.4c0.4-0.5,0.7-1.5,1.1-2.9
			c0.2-0.2,0.4-0.4,0.6-0.8c0-0.3,0.1-0.7,0.2-1.3c0.7-1.9,1.8-4.8,3.1-8.7c0.5-1.6,1.2-3.7,2-6.2h12.4c0.9,2.1,3.5,9,7.9,20.5
			c0,0.1-0.1,0.3-0.3,0.5c0,0.1,0.1,0.2,0.4,0.2c0.5,0.9,0.8,1.5,0.8,2c0.2,0.1,0.3,0.4,0.3,0.8c0,0.4,0,0.6,0,0.8
			c0.1,0.1,0.2,0,0.3,0c0.8,2.1,1.8,4.8,3,8.2c0,0.1,0,0.3-0.1,0.6c0.2,0.2,0.4,0.4,0.7,0.7C187.7,36.9,188.3,38.3,189.1,40.7z
			 M152.9,28.3c-0.2-0.2-0.5-0.2-0.8-0.2c0.1-0.2,0.3-0.4,0.6-0.6C152.7,27.7,152.8,28,152.9,28.3z M152.6,21.5l-0.2,0.3l-0.1,0
			l0.1-0.3L152.6,21.5z M153.1,22.3c0,0-0.1,0-0.3,0.1c-0.1,0.1-0.2,0.1-0.3,0.1c0.1,0,0.2-0.1,0.2-0.4
			C152.9,22.3,153,22.3,153.1,22.3z M154.1,42.4l-0.2,0.3l-0.1,0l0.1-0.3L154.1,42.4z M154.2,19.6l-0.1,0.3l-0.2,0l0.2-0.3
			L154.2,19.6z M154.6,38.5V38h-0.2v0.5H154.6z M155.9,42.8l-0.2,0.3h-0.6c0-0.1,0.1-0.3,0.3-0.5L155.9,42.8z M155.6,41.2h-0.2v-0.3
			h0.2V41.2z M156,38.2l0-0.2l-0.3,0.1v0.2L156,38.2z M158.7,30.4l-0.2-0.2l-0.1,0.1l0.2,0.2L158.7,30.4z M159,36.1v-0.2h-0.3v0.2
			H159z M159.3,37.4c-0.2-0.3-0.4-0.5-0.6-0.5v0.5H159.3z M159.1,25.2v-0.5h-0.2v0.5H159.1z M159.4,26.3c-0.1,0-0.3-0.1-0.5-0.3v0.6
			c0.1,0,0.2,0,0.3,0.1C159.3,26.5,159.3,26.4,159.4,26.3z M159.7,30.4V30h-0.2v0.4H159.7z M160.2,39v-0.7h-0.6
			C159.8,38.7,160,38.9,160.2,39z M160.3,28.7l-0.2,0l-0.1,0.3l0.1,0.1L160.3,28.7z M160.8,31.9v-0.2h-0.3v0.2H160.8z M161.1,33.8
			c-0.2-0.2-0.4-0.2-0.6,0c0.1,0,0.2,0.1,0.4,0.3C161,34.1,161.1,34,161.1,33.8z M161,36.6v-0.4h-0.5
			C160.7,36.4,160.9,36.5,161,36.6z M160.9,35.5V35h-0.2v0.5H160.9z M162.7,31.5v-0.4h-0.2v0.4H162.7z M172.4,24.3l-0.2,0.2
			l-3.5-7.8l-3.5,9.8c0,0.1,0,0.2,0.1,0.3c1,0,2.1,0,3.2,0c1.2,0,1.7,0,1.6,0c0.2,0,0.6,0.1,1.2,0.4c0.1-0.1,0.4-0.2,0.9-0.4
			C172.1,26.1,172.2,25.3,172.4,24.3z M168,32.3c0-0.1,0-0.2-0.1-0.4c0-0.2-0.1-0.3-0.1-0.3c-0.1,0.1-0.2,0.4-0.2,0.8
			C167.8,32.4,167.9,32.4,168,32.3z M168.7,10.4h-0.2l-0.1,0.4l0.2,0L168.7,10.4z M169.4,32.2c0-0.1,0-0.2-0.1-0.3l-0.3,0.3H169.4z
			 M169.9,28.1c0-0.2-0.1-0.4-0.3-0.6c0,0.1,0,0.3,0,0.5c0,0.2,0,0.3,0,0.4C169.8,28.2,169.9,28.1,169.9,28.1z M170.2,32.4l-0.2,0
			l-0.1,0.3l0.2,0L170.2,32.4z M170.8,35.8l-0.5-0.1v0.2l0.4,0.1L170.8,35.8z M173.9,34.1c-0.3,0-0.5-0.1-0.6-0.4
			c-0.1-0.3-0.2-0.5-0.4-0.6c-0.2,0.4-0.2,0.7,0,1H173.9z M173.8,33.1l-0.2,0l-0.1,0.3l0.2,0.1L173.8,33.1z M173.8,31.5v-0.3h-0.2
			v0.3H173.8z M174.4,33.1c0,0.1-0.1,0.1-0.3,0.1c0.1,0.1,0.1,0.3,0.1,0.5C174.4,33.6,174.4,33.4,174.4,33.1z M174.7,32.8l-0.2-0.2
			l-0.1,0.1l0.2,0.2L174.7,32.8z M175.2,35.2c0,0,0-0.1-0.1-0.2c0-0.1-0.1-0.2-0.1-0.2c0,0-0.2,0.1-0.5,0.4l0.3,0.3
			C174.9,35.5,175.1,35.4,175.2,35.2z M175.1,29.3v-0.6h-0.2v0.6H175.1z M175.5,32.5v-0.2H175v0.2H175.5z M176.1,28.8v-0.2h-0.5v0.2
			H176.1z M176.2,26.2V26h-0.4v0.2H176.2z M176.2,27.1c0-0.2,0-0.4-0.1-0.5c-0.1,0.1-0.1,0.2-0.2,0.3C175.9,27,176,27.1,176.2,27.1z
			 M176.5,33l-0.2-0.2l-0.1,0.1l0.2,0.1L176.5,33z M176.6,8.6V8.4h-0.3v0.2H176.6z M177.7,34.2c0,0,0-0.2,0-0.4c0-0.2,0-0.3,0-0.4
			c-0.1-0.1-0.2-0.2-0.3-0.3c0,0.1,0,0.2-0.1,0.3c-0.1,0.1-0.1,0.3-0.1,0.4C177.2,34,177.4,34.2,177.7,34.2z M177.8,21.4v-0.6h-0.2
			v0.6H177.8z M177.8,22.1v-0.4h-0.2v0.4H177.8z M178.3,35.3l-0.2,0l-0.1,0.3l0.2,0L178.3,35.3z M179.8,37.8c-0.1,0-0.2,0.1-0.2,0.4
			l-0.3-0.1c-0.1,0-0.3,0.2-0.4,0.5c-0.2-0.1-0.5-0.1-0.9-0.1v0.5c0.2-0.2,0.3-0.2,0.5-0.2c0.1,0,0.2,0,0.2,0.1
			c0,0.1,0.1,0.1,0.2,0.1c0.2,0,0.4-0.2,0.6-0.5S179.8,37.9,179.8,37.8z M179.1,35.2l-0.3-0.3c-0.2,0.2-0.3,0.4-0.3,0.5l0.3,0.7
			C178.8,35.7,178.9,35.4,179.1,35.2z M179.6,27.3l-0.1-0.2l-0.3,0.1v0.2L179.6,27.3z M180.6,36.5h-0.2l-0.1,0.4l0.2,0.1L180.6,36.5
			z M181.3,37.1l-0.1,0l-0.2,0.3l0.2,0L181.3,37.1z M181.9,37.6c-0.2-0.1-0.5-0.1-0.9,0.1c0.1,0,0.2,0,0.3,0.1
			C181.5,37.9,181.7,37.8,181.9,37.6z M181.6,40v-0.6h-0.2V40H181.6z M182.7,38.7l-0.1-0.1l-0.4,0.3l0.1,0.2L182.7,38.7z
			 M183.4,39.3h-0.2l-0.1,0.4l0.1,0L183.4,39.3z M183.6,34.7l-0.1-0.5l-0.2,0l0.1,0.4H183.6z M183.7,36h-0.2l-0.1,0.6h0.2L183.7,36z
			 M183.7,35.3v-0.3h-0.2v0.3H183.7z M184.1,38.3l-0.1-0.1c-0.1,0.1-0.1,0.2-0.2,0.3c0.1,0,0.2,0,0.3-0.1
			C184.2,38.3,184.2,38.3,184.1,38.3z M184.3,36.5l-0.1-0.1l-0.2,0.3l0.2,0L184.3,36.5z M184.2,39.2v-0.6H184v0.6H184.2z
			 M185.2,38.3H185l-0.1,0.4l0.1,0.1L185.2,38.3z M186.5,36.6l-0.5-0.1c0,0.1,0,0.2,0.1,0.3C186.3,36.7,186.4,36.6,186.5,36.6z
			 M186.3,35.5v-0.3h-0.2v0.3H186.3z"/>
		<path class="st0" d="M222.3,40.5c-1.3,0.7-3,1.3-5.1,1.8c-0.8,0.1-1.9,0.3-3.4,0.6c-1.5,0.3-2.8,0.4-3.7,0.4c-0.1,0-0.5,0-1.3,0.1
			c-0.8,0-1.2,0.1-1.3,0.1c-0.1,0-0.3-0.1-0.5-0.2c-0.7,0-1.7-0.1-3-0.2c-1.2-0.1-2.8-0.6-5-1.5c-0.1-0.1-0.3-0.2-0.6-0.4
			c-1.7-0.7-3.4-1.9-5.2-3.5c-0.3-0.2-0.6-0.6-1.1-1.2c0,0-0.2-0.4-0.5-1c-0.2-0.1-0.4-0.3-0.8-0.6c-0.3-0.5-0.7-1.4-1.3-2.5
			s-1-2.6-1.3-4.3c-0.2-1.5-0.3-3-0.5-4.5c0.2,0,0.3,0,0.3,0.1c-0.1-0.3-0.1-0.8,0-1.4c0-0.4,0-1-0.1-1.8c0-0.1,0.1-0.2,0.1-0.3
			c0-0.7,0.2-1.6,0.6-2.7c0.5-1.7,0.8-2.5,0.8-2.6c0-0.1,0.1-0.2,0.3-0.3c0.6-1.8,1.9-3.7,3.9-5.8c2-2.1,3.9-3.5,5.7-4.1
			c2.6-1,4.6-1.6,6-1.8c0.7-0.1,2.7-0.1,5.9-0.1l0.3,0.2c2.4,0.2,4.8,0.8,7.3,2c1.3,0.6,2.1,1.1,2.4,1.6l-1.8,3.9
			c0-0.2-0.1-0.2-0.2-0.2c0,0-0.1,0.1-0.1,0.2c0,0.1-0.1,0.2-0.1,0.2c0.1,0.1,0.2,0.1,0.3,0c-0.3,0.6-1,2.3-2.3,5.3
			c-0.7-0.4-1.9-1.1-3.6-1.9c-0.3,0-0.8-0.1-1.5-0.2c-1.2-0.4-2.4-0.6-3.6-0.6c-2.6,0-4.9,0.9-6.9,2.7c-2,1.8-3,3.9-3.1,6.1
			c-0.1,0-0.2,0-0.2,0.2v3.5c0.2,0.2,0.4,0.6,0.6,1.2c-0.1,0.1-0.2,0.2-0.2,0.2c0.2,0.1,0.4,0.3,0.6,0.5c0.2,0.4,0.5,0.9,0.8,1.3
			c0.8,1.2,1.7,2,2.6,2.6c0.4,0.2,0.9,0.5,1.7,0.9c1.3,0.4,2.1,0.7,2.5,0.7c1.6,0,2.6,0,3-0.1c0.3-0.1,0.9-0.4,1.9-1.1
			c0-0.2,0.1-0.4,0.1-0.6c0-0.2,0.1-0.3,0.3-0.3v-2.8c-0.1-0.1-0.2-0.1-0.3-0.1v-5.6c1.9,0,3.2,0,3.7,0c0.1,0.1,0.1,0.2,0.2,0.2
			c0.1,0,0.1,0,0.1-0.1c0-0.1,0-0.1,0.1-0.1c0.1,0,0.2,0,0.2,0.1c0,0.1,0.1,0.1,0.2,0.1s0.2,0,0.2-0.1c0.1-0.1,0.2-0.1,0.3-0.1
			c0.1,0,0.2,0,0.3,0.1c0.1,0.1,0.2,0.1,0.3,0.1c0.1,0,0.2,0,0.1-0.1c-0.1-0.1,0-0.1,0-0.1c0.7,0,1.3,0,1.7,0
			c-0.1,0.1,0,0.2,0.2,0.2c-0.1,0,0-0.1,0.2-0.2c0.1,0,0.4,0,0.9-0.1c0.4-0.1,0.7-0.1,0.8-0.1c0.5,0,0.8,0,1.1,0.1v3.4
			c-0.1-0.1-0.3-0.1-0.4,0c0,0.2,0.1,0.3,0.4,0.3v4.5c0,0.1,0,0.3,0.1,0.6c0,0.4,0.1,0.6,0.1,0.7V40.5z M189.1,16.8l-0.2-0.2
			l-0.1,0.1l0.1,0.1L189.1,16.8z M190.4,23.1c0.1-0.1,0.1-0.1-0.1-0.2c-0.2-0.1-0.4-0.1-0.6-0.1c-0.1,0-0.1,0-0.1,0
			c0,0.2,0.2,0.3,0.6,0.3H190.4z M190.1,17.5h-0.1l-0.2,0.4l0.2,0.1L190.1,17.5z M190.2,17.2l0-0.2l-0.3,0.2v0.1L190.2,17.2z
			 M190.2,18.9l-0.1-0.2l-0.2,0.1L190,19L190.2,18.9z M190.5,15.5l-0.1-0.1L190,16l0.1,0.1L190.5,15.5z M190.5,27.2v-0.6
			c-0.1,0.1-0.2,0.4-0.4,0.7c0,0,0.1,0,0.2,0C190.4,27.2,190.5,27.2,190.5,27.2z M190.5,20.9l-0.1,0l-0.2,0.3l0.2,0.1L190.5,20.9z
			 M190.4,28.1v-0.5h-0.2v0.5H190.4z M190.8,16.3l-0.2-0.3l-0.1,0l0.1,0.3H190.8z M191.3,25.8c-0.2-0.1-0.3-0.2-0.3-0.4
			c-0.1,0-0.2,0.1-0.2,0.3c0,0,0.1,0,0.2,0C191.2,25.8,191.3,25.8,191.3,25.8z M191.4,14.3l-0.2-0.5l-0.1,0.1l0.1,0.4H191.4z
			 M191.5,22.9l-0.1-0.1l-0.2,0.3l0.2,0.1L191.5,22.9z M192.2,18.4c-0.1-0.1-0.2-0.1-0.3-0.2c-0.1,0-0.3,0.2-0.6,0.5
			c0.1-0.1,0.2-0.1,0.5-0.2C192,18.5,192.1,18.4,192.2,18.4z M192,29.2c-0.1-0.1-0.2-0.2-0.2-0.3c0,0.1-0.1,0.1-0.4,0.1
			C191.5,29.1,191.7,29.2,192,29.2z M192.2,25.1c-0.2,0.1-0.4,0.3-0.7,0.4c-0.1,0.2,0,0.3,0.2,0.3c0.1,0,0.2,0.1,0.2,0.2
			C191.9,25.8,192,25.5,192.2,25.1z M192.2,24.7c0,0,0-0.1-0.1-0.2c0-0.1-0.1-0.2-0.1-0.2c-0.2,0-0.3,0.1-0.3,0.4H192.2z
			 M192.1,14.9h-0.2l-0.1,0.7h0.2L192.1,14.9z M192.3,23.5v-0.1l-0.4-0.2l-0.1,0.2L192.3,23.5z M192.4,13.2
			c-0.3,0.3-0.5,0.5-0.5,0.6c0,0.1,0.1,0.3,0.3,0.6C192.3,13.9,192.3,13.5,192.4,13.2z M192.4,17.3v-0.4h-0.2v0.4H192.4z
			 M192.9,11.7l-0.5-0.1v0.1l0.4,0.2L192.9,11.7z M193,19.9v-0.2h-0.3v0.2H193z M192.9,11.1v-0.4h-0.2v0.4H192.9z M193.2,29.5
			l-0.2,0l-0.1,0.3l0.1,0.1L193.2,29.5z M193.2,30.4l-0.2-0.2l-0.1,0.1l0.2,0.2L193.2,30.4z M193.7,25.2l0-0.1l-0.3,0.1v0.2
			L193.7,25.2z M194.1,29.1l-0.6-0.6l0.1,1.6C194,29.8,194.1,29.4,194.1,29.1z M195.1,25.9c-0.2-0.2-0.3-0.3-0.3-0.3
			c-0.4,0.1-0.6,0.3-0.6,0.6C194.4,26.1,194.7,26,195.1,25.9z M194.9,30c-0.1-0.1-0.1-0.3-0.1-0.5c-0.1,0-0.2,0-0.3,0.1
			c-0.1,0-0.2,0.1-0.2,0.1C194.4,29.8,194.7,30,194.9,30z M194.6,36.3l-0.2-0.2l-0.1,0.1l0.2,0.2L194.6,36.3z M194.6,33v-0.3h-0.2
			V33H194.6z M195.4,22.6c0,0-0.1,0-0.2,0.1s-0.2,0.1-0.3,0.1c0.1,0.1,0.2,0.3,0.4,0.6c-0.3,0.2-0.5,0.2-0.6,0.1
			c0,0.2,0.2,0.4,0.5,0.7c-0.2,0.2-0.4,0.4-0.6,0.8c0.1,0,0.2,0,0.4,0.1c0.2,0,0.3,0.1,0.3,0.1C195.4,24.6,195.4,23.8,195.4,22.6z
			 M194.9,25.2l-0.1-0.1l-0.2,0.3l0.2,0.1L194.9,25.2z M194.9,27.8l-0.1-0.1l-0.2,0.3l0.2,0.1L194.9,27.8z M195,27v-0.5l-0.4,0.3
			C194.7,26.8,194.8,26.8,195,27z M195.3,11.8V11h-0.2v0.7H195.3z M195.6,26.1c0-0.3,0-0.5,0-0.5c-0.1,0-0.2,0.1-0.3,0.2
			C195.5,26,195.6,26.1,195.6,26.1z M195.9,37.4c-0.1-0.1-0.3-0.1-0.5-0.1c0,0.3,0,0.5,0.1,0.6C195.8,37.9,195.9,37.7,195.9,37.4z
			 M195.9,22.7l-0.2-0.1l-0.1,0.2l0.2,0.1L195.9,22.7z M196.1,28.8h-0.5c0,0.3,0.1,0.7,0.3,1.1c0-0.1,0-0.3,0.1-0.6
			C196.1,29,196.1,28.8,196.1,28.8z M196.2,39.6v-0.3h-0.2v0.3H196.2z M197.1,24.1c-0.2-0.5-0.3-0.8-0.2-1.1c-0.3-0.1-0.6-0.1-0.9,0
			c0,0.1,0.1,0.3,0.2,0.6c0.1,0.3,0.2,0.5,0.2,0.6c0,0,0.1,0,0.2,0.1c0.1,0,0.2,0.1,0.2,0.1L197.1,24.1z M196.6,25.4l-0.1-0.6
			c-0.3,0.5-0.4,0.8-0.4,0.9C196.2,25.5,196.4,25.4,196.6,25.4z M196.7,27.5l-0.1-0.1l-0.3,0.1v0.2L196.7,27.5z M197.4,25.9v-0.2
			h-0.5v0.2H197.4z M197.8,27.7c-0.1-0.2-0.3-0.2-0.5-0.2v0.4C197.3,27.9,197.5,27.9,197.8,27.7z M197.8,21.4l-0.2,0l-0.1,0.3l0.2,0
			L197.8,21.4z M205.4,34.1v-0.4h-0.2v0.4H205.4z M208.7,12.9v-0.3h-0.2v0.3H208.7z M209.8,11.7l-0.1-0.1l-0.3,0.1v0.2L209.8,11.7z
			 M210.4,35.5l-0.2-0.2l-0.1,0.1l0.1,0.2L210.4,35.5z M210.5,9V8.7h-0.3V9H210.5z M211.2,12.8l-0.5-0.1v0.2l0.4,0.1L211.2,12.8z
			 M212.2,8.8l-0.2,0l-0.1,0.3l0.2,0.1L212.2,8.8z M212.4,31.8v-0.3h-0.2v0.3H212.4z M213.1,25.4c0-0.2-0.2-0.5-0.6-0.9v2.4l0.3,0.3
			c0-0.2,0-0.6,0.1-1C213,25.8,213.1,25.5,213.1,25.4z M213.3,27c-0.1,0-0.2,0.1-0.4,0.3c0.1,0.1,0.2,0.2,0.2,0.3
			c0-0.1,0-0.2,0.1-0.3C213.3,27.1,213.3,27,213.3,27z M213.4,25.2v-0.7c-0.2,0.1-0.3,0.3-0.3,0.5C213.3,25.1,213.4,25.1,213.4,25.2
			z M213.6,27.4l-0.3,0.3l0.3,0.3C213.6,28,213.6,27.7,213.6,27.4z M214,24.5h-0.2l-0.1,0.4l0.2,0L214,24.5z M214.4,8.4V8.1h-0.2
			v0.3H214.4z M214.5,13.8l-0.2-0.2l-0.1,0.1l0.2,0.2L214.5,13.8z M214.8,12.9v-0.3h-0.2v0.3H214.8z M215,31.5l-0.3-0.5l-0.2,0.1
			l0.3,0.4L215,31.5z M215,25.2l-0.2-0.1l-0.1,0.3l0.2,0.1L215,25.2z M215.7,28.7v-0.5c0,0-0.1,0-0.3-0.1c-0.1,0-0.2-0.1-0.3-0.1
			c-0.3,0.5-0.4,0.8-0.4,0.9c0,0.1,0.1,0.2,0.2,0.3c0.1,0.2,0.2,0.3,0.2,0.3c0-0.1,0-0.2,0.1-0.2c0.1-0.1,0.1-0.1,0.1-0.2
			c0-0.1,0-0.1-0.1-0.2c-0.1-0.1-0.1-0.2-0.1-0.2c0-0.1,0.1-0.3,0.3-0.4C215.5,28.4,215.6,28.5,215.7,28.7z M215.1,24.4l-0.2,0
			l-0.1,0.3l0.1,0.1L215.1,24.4z M215.1,23.8v-0.5h-0.2v0.5H215.1z M215.7,12.9c-0.1-0.3-0.3-0.6-0.6-1.1c0,0.6-0.1,0.9-0.2,1.1
			H215.7z M215.3,7.3l-0.1-0.2L215,7.2l0.1,0.2L215.3,7.3z M215.7,32.2V31c0-0.1-0.1-0.2-0.2-0.4c-0.1-0.2-0.2-0.3-0.2-0.3
			c0,0,0,0.4,0.1,1.2C215.5,31.8,215.5,32.1,215.7,32.2z M215.9,26.7l-0.5-0.1v0.2l0.4,0.1L215.9,26.7z M216.2,23.8
			c-0.2-0.2-0.4-0.3-0.7-0.3c0,0.1,0,0.4,0,0.9c0.1-0.4,0.3-0.6,0.4-0.6C216,23.8,216.1,23.8,216.2,23.8z M216,28.8
			c-0.2,0.1-0.3,0.1-0.4,0c0,0.3,0.1,0.5,0.2,0.5c0-0.1,0-0.2,0.1-0.2C215.9,29,216,28.9,216,28.8z M216.1,27.6l-0.1-0.1l-0.4,0.4
			l0.1,0.1L216.1,27.6z M216,25.3v-0.8l-0.1,0.1C215.9,24.9,215.9,25.1,216,25.3z M216.3,27.3V27H216v0.3H216.3z M216.3,32.4V32H216
			v0.3H216.3z M217.1,24.6c0,0.1-0.1,0.2-0.2,0.4c0-0.2,0-0.5-0.1-0.8c-0.1,0-0.1,0.4-0.1,1.2C216.7,25.2,216.9,24.9,217.1,24.6z
			 M217.2,23.6h-0.6c0,0,0.1,0.2,0.4,0.5C217.2,24,217.2,23.8,217.2,23.6z M217,26.9v-0.6h-0.2v0.6H217z M217.8,24.7v-0.3h-0.2v0.3
			H217.8z M217.8,33.7v-0.3h-0.2v0.3H217.8z M218.4,23.3l-0.1-0.1l-0.2,0.3l0.2,0L218.4,23.3z M218.7,9.3c0-0.1,0-0.2-0.1-0.3
			c0,0-0.1,0.1-0.3,0.3C218.3,9.2,218.4,9.3,218.7,9.3z M218.9,27.5l-0.5-0.1v0.2l0.4,0.1L218.9,27.5z M218.8,26.5l-0.2-0.2
			l-0.1,0.1l0.2,0.2L218.8,26.5z M220,24v-0.2h-0.4V24H220z M220.3,26.1h-0.2l-0.2,0.7h0.2L220.3,26.1z M221.1,25.2
			c-0.1,0-0.2,0-0.4,0c-0.2,0-0.3,0-0.3,0V26C220.6,25.8,220.8,25.6,221.1,25.2z"/>
		<path class="st0" d="M265.6,22.3c0-0.1-0.1,0-0.2,0.2c0,0.6-0.1,1.4-0.4,2.5c0,0,0.1,0.1,0.1,0.1c-0.6,2.6-1.9,5.2-3.7,7.8
			c0,0-0.1,0-0.3-0.1c-0.2-0.1-0.3-0.1-0.3-0.1c0.2-0.2,0.2-0.3,0.2-0.4c0,0-0.2,0-0.7,0l-0.4-1.1c-0.2,0-0.3,0.1-0.3,0.3
			c0,0.3,0.2,0.6,0.5,1c0.3,0.4,0.6,0.6,0.9,0.8c-1.7,1.9-3.4,3.4-5.2,4.5c-0.4,0.2-1.1,0.6-2.2,1.1c-1.1,0.5-1.8,0.7-1.9,0.7h-0.5
			c0-0.2,0.1-0.4,0.2-0.5c-0.1-0.1-0.3-0.3-0.5-0.6c0,0.1-0.1,0.1-0.1,0.1c0,0.1,0,0.3,0,0.6s-0.1,0.5-0.1,0.6
			c-1,0.4-1.7,0.5-2.2,0.5c-0.1,0-0.5,0-1.3,0c-0.8,0-1.2,0-1.3,0c-3.7,0-7.1-0.9-10.1-2.6c-2.9-1.7-5.4-4-7.2-6.9
			c-0.2-0.3-0.5-0.7-0.9-1.2c-0.5-1-1-2.1-1.3-3.4c-0.5-2-0.8-3.3-0.8-3.6v-3c0,0.2,0,0,0.1-0.4c0.1-0.4,0.2-1,0.3-1.8
			c-0.1,0-0.1,0-0.1-0.2c0-0.1,0.2-0.7,0.5-1.8c0,0,0.1-0.1,0.3-0.1c0.2,0,0.3-0.1,0.3-0.2c0-0.1-0.2-0.1-0.5-0.1
			c0.4-0.9,1-2.3,1.8-4.1c0,0,0.1,0,0.2,0c0.1,0,0.2,0,0.2,0c0,0.2,0.1,0.4,0.3,0.6c0.4-0.4,0.3-0.7-0.2-0.9
			c0.3-0.7,1.1-1.6,2.2-2.8c1-0.9,1.9-1.8,2.8-2.7c0.5-0.3,1.2-0.8,2.1-1.3c0.2-0.1,0.2-0.3,0-0.4c0,0,0.1,0,0.1,0.1
			c0.1,0.1,0.2,0.1,0.3,0.1c1,0,1.4-0.4,1.2-1.1c0.1,0.1,0.2,0.2,0.4,0.4c0.2-0.1,0.5-0.3,1-0.5c0.1,0,0-0.1,0-0.2
			c0.2,0,0.4,0.1,0.7,0.2c0.1,0,0.1-0.1,0.2-0.3c0.9-0.2,1.3-0.4,1.3-0.8c0,0,0.1,0,0.2,0.1c0.1,0.1,0.2,0.1,0.4,0.1
			c0.5,0,1.2-0.1,2.1-0.2c0,0,0-0.1,0-0.1v0c0,0-0.1,0-0.2,0s-0.2,0-0.3,0c-0.1,0-0.2,0-0.2,0c0.2,0,0.4-0.1,0.4-0.2
			c-0.1-0.1-0.3-0.2-0.5-0.3c0,0,0.2,0,0.5,0c0-0.2-0.1-0.3-0.4-0.3V0h0.7c0,0.2,0.2,0.5,0.4,0.8c0.2,0.3,0.4,0.5,0.6,0.5
			c0.1,0,0.4,0,0.8,0c0.4,0,0.7,0,0.8,0c0.9,0,2.3,0.2,4.1,0.5c0.1,0,0.3,0.1,0.7,0.3c0.4,0.2,0.6,0.3,0.7,0.3s0.1,0,0.1-0.1
			s0-0.1,0.1-0.1c0.4,0,1.2,0.3,2.4,1c0.4,0.3,0.9,0.7,1.7,1.2c0,0.2,0,0.4,0,0.5c0,0,0.1-0.1,0.2-0.2s0.2-0.2,0.2-0.2
			c0.7,0.6,1.7,1.4,2.9,2.6c0.3,0.2,0.6,0.5,0.9,0.8c0,0.1,0.1,0.3,0.1,0.4c0.1,0.2,0.2,0.3,0.5,0.3c0.9,1.1,1.7,2.2,2.4,3.4
			c0.1,0.2,0.3,0.7,0.6,1.6c0.1,0,0.2,0.1,0.3,0.2c0.2,0.6,0.5,1.5,0.9,2.6c0.1,0.6,0.2,1.6,0.3,2.7l-0.2,0.3
			c0.1,0.3,0.3,0.5,0.5,0.6V22.3z M227.5,15.1c-0.1,0-0.2,0-0.3-0.1c0-0.1,0.1-0.3,0.3-0.5V15.1z M228.9,15.9
			c-0.2-0.5-0.5-0.7-0.7-0.7v0.6c0.2,0.2,0.3,0.3,0.3,0.4c0,0,0.1,0,0.2-0.1C228.8,16,228.8,15.9,228.9,15.9z M229.9,24.3
			c0-0.1-0.1-0.3-0.1-0.5c0-0.2,0-0.4-0.1-0.5c-0.1,0-0.1,0.1-0.2,0.1c-0.1,0.1-0.2,0.1-0.2,0.1C229.4,23.8,229.6,24,229.9,24.3z
			 M230.8,14.8v-0.7c0,0.1,0,0.1-0.1,0.1s-0.2-0.1-0.2-0.3c-0.1,0.1-0.2,0.2-0.4,0.5c-0.1,0.3-0.2,0.5-0.3,0.6
			c0.1,0,0.2,0.1,0.3,0.3s0.3,0.2,0.4,0.3c0-0.1-0.1-0.2-0.2-0.3c-0.1-0.1-0.1-0.2-0.2-0.3c0,0,0.1-0.1,0.1-0.2
			c0.1-0.1,0.1-0.2,0.1-0.2L230.8,14.8z M230.5,13.7v-0.2H230v0.2H230.5z M230.5,10c0,0,0-0.1-0.1-0.2c0-0.1-0.1-0.2-0.1-0.2
			c-0.1,0-0.2,0-0.2,0.1c0,0.1,0,0.1,0,0.2c0,0.1,0,0.2,0,0.2C230.3,10.2,230.4,10.1,230.5,10z M231.1,15.3l-0.2-0.1l-0.1,0.3
			l0.1,0.1L231.1,15.3z M231.9,13.8l-0.2,0.3l-0.1-0.1l0.1-0.3L231.9,13.8z M232.2,14.8v-0.5c-0.1,0-0.2,0-0.3,0.1L232.2,14.8z
			 M232.5,16c-0.1,0-0.3-0.1-0.6-0.4c0,0,0.1,0,0.2-0.1c0.1,0,0.2-0.1,0.2-0.1C232.4,15.7,232.4,15.9,232.5,16z M233,16.4v-0.2
			l-0.4-0.1l0,0.2L233,16.4z M234.1,17.8v-0.7c-0.4-0.1-0.6-0.3-0.6-0.4c-0.1,0.2-0.1,0.4,0,0.6l0.1,0.5H234.1z M234.4,10.5
			c0,0-0.1-0.1-0.2-0.2c-0.1-0.1-0.1-0.2-0.2-0.2c0,0.1,0,0.2,0,0.4c0,0.2,0,0.4,0,0.4C234.1,10.8,234.2,10.7,234.4,10.5z
			 M234.6,16.5l-0.3-0.2l0,0.2l0.3,0.1L234.6,16.5z M234.8,18.5c0,0.3-0.1,0.7-0.2,1.1c-0.2-0.8-0.3-1.3-0.3-1.5
			C234.4,18.1,234.6,18.2,234.8,18.5z M255.5,23.1v-3c-0.1-0.4-0.2-1.1-0.4-1.9c-0.2-0.6-0.5-1.1-0.7-1.7c-0.4-0.8-1-1.5-1.7-2.2
			c0,0-0.1-0.2-0.2-0.4c-0.1-0.2-0.2-0.3-0.3-0.3c-0.1,0-0.2,0-0.1,0.1c0,0,0,0.1-0.1,0.1c-0.1,0-0.5-0.2-1.2-0.7s-1.3-0.8-1.7-0.9
			c-0.4-0.1-0.7-0.1-1.1-0.1c0.1-0.1,0.1-0.1,0.1-0.2l-0.3,0.2c-0.2-0.1-0.4-0.3-0.7-0.6h-0.6v0.4c0,0.1,0,0.2,0,0.3
			c-0.2-0.4-0.3-0.6-0.3-0.8c0,0.1-0.1,0.2-0.2,0.2c-0.6-0.3-1-0.4-1.3-0.3c0.1,0,0.1,0,0.2,0.1c-1,0.2-2.3,0.6-4,1.2
			c-0.8,0.5-1.9,1.4-3.1,2.8c0.1,0,0.3,0.2,0.6,0.6l-0.2,0.2h-0.7c0-0.1,0-0.2,0-0.4l0.1-0.2c-0.4,0.4-0.8,1.1-1.2,1.9
			c-0.4,0.8-0.7,1.4-0.7,1.8c0,0.5-0.1,1-0.1,1.6c-0.1,0.5-0.2,0.8-0.4,0.9c0.2,0.2,0.5,0.8,0.7,1.6c0.2,0.9,0.4,1.4,0.5,1.5
			c1.6,2.8,4,4.6,7.1,5.4c0,0.5,0,0.8,0,0.9c0-0.1,0-0.1,0.1-0.2c0.1,0.1,0.1,0.2,0.1,0.3c0-0.4,0.2-0.7,0.5-0.7
			c0.1,0.1,0.1,0.2,0.1,0.4c0.1-0.1,0.2-0.1,0.3-0.1v-0.6c-0.4-0.4-0.9-1.1-1.5-2.1c1.2-0.9,2-1.3,2.3-1.3c0.2,0,0.2,0,0.2,0.1
			c0,0.1,0,0.2,0.1,0.4c0.1,0.2,0.1,0.3,0.1,0.4c0,0.1-0.1,0.2-0.4,0.4c-0.3,0.2-0.4,0.3-0.4,0.4c0,0.3,0.4,0.8,1.2,1.3
			c0.2-0.1,0.4-0.2,0.6-0.4c-0.1-0.1-0.1-0.2,0-0.3c0.1,0.1,0.1,0.1,0.2,0.1c0.1,0,0.2-0.1,0.4-0.2c0.2-0.1,0.3-0.2,0.3-0.3l0.2,0.2
			c-0.3,0.2-0.7,0.4-1.2,0.9c0.1,0.1,0.2,0.2,0.2,0.3c0.2,0,0.3-0.1,0.5-0.3c0.3,0.3,0.4,0.4,0.4,0.4c0.1,0,0.3-0.1,0.7-0.2
			s0.7-0.2,0.9-0.2c0,0,0,0.1,0,0.3l0.4-0.6c0.3,0,0.7-0.2,1.3-0.5c0.4-0.3,0.9-0.7,1.5-1.3c0.6-0.6,1-1,1.2-1.1
			c0-0.1,0-0.3,0.1-0.5c0.2-0.3,0.6-0.6,1-1c0.1,0.1,0.1,0.1,0.1,0.2c0-0.6,0-0.9,0-0.8c0.1-0.3,0.2-0.8,0.4-1.3c0,0,0,0,0.1,0
			C255.4,23.3,255.5,23.3,255.5,23.1z M235.4,2.3l-0.3,0.3L235,2.5L235.4,2.3L235.4,2.3z M236.4,1.7c-0.5-0.3-0.8-0.4-0.9-0.4
			c0.4,0,0.7,0,0.7,0C236.4,1.3,236.4,1.5,236.4,1.7z M236.2,12.3v-0.4H236v0.4H236.2z M236.5,10.6h-0.2l-0.1,0.4l0.2,0L236.5,10.6z
			 M239.4,5c-0.1-0.1-0.2-0.2-0.2-0.3c0,0,0,0.1-0.1,0.3c-0.1,0.2-0.1,0.3-0.1,0.4L239.4,5z M241,0c-0.1,0.1-0.4,0.5-0.9,1.3
			c0-0.3,0-0.4,0.1-0.4L240,0.7c-0.2,0.2-0.2,0.3-0.2,0.4c0-0.1,0-0.3,0.1-0.5c0.3-0.1,0.4-0.2,0.5-0.4V0H241z M240.7,8V7.6h-0.2V8
			H240.7z M241.3,11.3v-0.6h-0.2v0.6H241.3z M242.4,0.8c-0.1,0-0.2,0-0.3-0.1c0,0,0-0.1,0.1-0.1c0.1,0,0.1-0.1,0.1-0.1
			C242.2,0.6,242.2,0.7,242.4,0.8z M242.8,14.7c0-0.2-0.1-0.4-0.3-0.6c0,0.2-0.1,0.4-0.3,0.6C242.3,14.7,242.5,14.7,242.8,14.7z
			 M243.5,30.8v-0.3h-0.2v0.3H243.5z M244.9,22.6l-0.1-0.4l-0.2,0l0.1,0.3H244.9z M245.7,30.4c0,0-0.3,0-0.7,0c0,0,0-0.1,0.1-0.3
			c0-0.2,0.1-0.3,0.1-0.3C245.2,29.8,245.4,30,245.7,30.4z M245.2,0.5C245.1,0.4,245,0.2,245,0c0.3,0.3,0.3,0.6,0.1,1
			C245.1,0.7,245.2,0.6,245.2,0.5z M245.9,25.3c0,0.1-0.1,0.2-0.2,0.3c-0.2-0.2-0.3-0.4-0.3-0.5C245.5,25.3,245.7,25.3,245.9,25.3z
			 M245.8,8.8l-0.1-0.1L245.4,9l0.2,0.1L245.8,8.8z M246.1,18.6v-0.4c-0.4,0.1-0.6,0.3-0.6,0.6c0,0.2,0.1,0.4,0.2,0.5
			c0-0.1,0.1-0.2,0.2-0.4C246,18.8,246.1,18.7,246.1,18.6z M246.4,19.8l-0.6-0.3l-0.1,0.1l0.6,0.3L246.4,19.8z M246.2,28.3v-0.2
			h-0.4v0.2H246.2z M246.3,21.6h-0.2l-0.1-0.4l0.1-0.1L246.3,21.6z M246.5,30.2l-0.2-0.2l-0.1,0.1l0.2,0.2L246.5,30.2z M247.1,12.4
			c0,0.1,0,0.2,0,0.3c0,0.1,0,0.1,0,0.2c-0.1,0-0.3-0.1-0.7-0.3l0.3-0.3l0.4,0.4C247,12.5,247.1,12.5,247.1,12.4z M246.7,25.8
			c0,0-0.1,0-0.2,0.1c-0.1,0-0.2,0.1-0.2,0.1c0,0.2,0,0.5,0.1,0.8c0.1-0.1,0.1-0.2,0.2-0.5C246.6,26.1,246.7,25.9,246.7,25.8z
			 M246.6,20.5l-0.1,0l-0.2,0.3l0.2,0.1L246.6,20.5z M248.2,21.9c-0.2-0.2-0.7-0.3-1.3-0.4c0.1,0.2,0.4,0.5,0.8,0.8
			C247.8,22.3,248,22.2,248.2,21.9z M247.3,25.6c0,0.2-0.1,0.3-0.4,0.3v0.4C247.1,26.1,247.3,25.9,247.3,25.6z M247.6,3.6V3.4h-0.3
			v0.2H247.6z M248.4,34.3c-0.3-0.2-0.6-0.3-1-0.3c0,0.2,0.1,0.2,0.4,0.2c0.1,0,0.3,0,0.4,0.1C248.3,34.3,248.3,34.3,248.4,34.3z
			 M248.5,14.7c-0.2,0-0.4,0-0.5-0.1c0,0.1-0.1,0.2-0.2,0.3c-0.1,0.2-0.2,0.3-0.2,0.4c0,0.1,0,0.2,0.1,0.4s0.1,0.2,0.1,0.3h0.6
			c0-0.1,0-0.2,0.1-0.3c-0.3,0-0.5-0.1-0.5-0.4C248.1,15.1,248.2,15,248.5,14.7z M248.2,13c-0.1-0.1-0.3-0.1-0.6-0.1v0.4
			C247.8,13.3,248,13.2,248.2,13z M248.8,27.8c-0.1,0-0.2,0-0.5-0.1c-0.2-0.1-0.4-0.1-0.6,0c0.4,0.2,0.7,0.5,0.9,0.7
			c-0.1-0.1-0.2-0.2-0.1-0.3C248.7,28,248.8,27.9,248.8,27.8z M248.2,25.5V25h-0.2v0.6H248.2z M248.4,20.6l-0.2-0.2l-0.1,0.1
			l0.2,0.2L248.4,20.6z M250,13.2c-0.1-0.1-0.2-0.2-0.3-0.2c0,0.3-0.1,0.4-0.3,0.4c-0.1,0-0.3-0.1-0.5-0.2c-0.2-0.1-0.4-0.2-0.5-0.3
			c0.2,0.5,0.3,0.9,0.3,1.2C249,13.9,249.4,13.6,250,13.2z M249.3,16v-0.2h-0.6V16H249.3z M249,8.7V8.4h-0.2v0.3H249z M250.1,32.1
			L250,32l-0.4,0.4l0.1,0.1L250.1,32.1z M250,19.3l0-0.2l-0.3,0.1v0.2L250,19.3z M250.2,16.1l0,0.1l-0.3-0.1l0.1-0.2L250.2,16.1z
			 M250.2,34.4l0-0.2l-0.3,0.2v0.1L250.2,34.4z M250.7,15.9c0,0.1-0.1,0.2-0.3,0.4c-0.1,0.2-0.2,0.3-0.3,0.4
			c0.1-0.1,0.2-0.1,0.4-0.1c0,0,0-0.1,0-0.3C250.6,16.1,250.7,16,250.7,15.9z M250.9,27.6c0-0.1-0.1,0.1-0.4,0.6
			c-0.2-0.2-0.4-0.3-0.4-0.3C250.5,27.8,250.7,27.7,250.9,27.6z M250.8,18.4v-0.6c-0.1,0-0.2,0-0.3-0.1c-0.2,0-0.3-0.1-0.3-0.1
			c0.1,0.2,0.1,0.4,0.1,0.7H250.8z M250.8,29.7l-0.3-0.3c-0.1,0.2-0.1,0.4,0.2,0.6C250.7,30,250.8,29.8,250.8,29.7z M250.8,3.2V2.7
			h-0.2v0.5H250.8z M250.9,35.1v-0.5h-0.2v0.5H250.9z M251.3,31.3c-0.2,0.2-0.4,0.4-0.6,0.6h0.5L251.3,31.3z M251.3,7.7
			c-0.1,0.2-0.3,0.5-0.5,1h0.4c0-0.1,0-0.3,0-0.5C251.3,7.9,251.3,7.8,251.3,7.7z M251.6,4.1l-0.1-0.2l-0.4,0.1v0.2L251.6,4.1z
			 M252.1,11.7l-0.3-0.3h-0.4c0,0.1,0,0.2-0.1,0.3c0,0.1-0.1,0.2-0.1,0.2c0,0,0.1,0,0.3,0.1c0.2,0.1,0.3,0.1,0.3,0.1
			C251.8,11.8,251.9,11.7,252.1,11.7z M252.2,34.6c0-0.1-0.1-0.2-0.2-0.3c-0.1-0.1-0.2-0.2-0.2-0.3c0,0.1-0.1,0.1-0.4,0.1
			c0,0,0,0.1,0.1,0.3c0,0.2,0.1,0.3,0.1,0.3C251.7,34.7,251.9,34.6,252.2,34.6z M251.9,35.5c-0.1-0.1-0.3-0.2-0.5-0.2
			c0,0.1,0.1,0.3,0.3,0.5C251.7,35.7,251.8,35.6,251.9,35.5z M251.9,3.6c-0.1-0.2-0.2-0.4-0.3-0.7c-0.1,0.1-0.1,0.3-0.1,0.4
			c0,0.2,0,0.4,0.1,0.5C251.6,3.6,251.7,3.6,251.9,3.6z M252.3,38.2c-0.5,0.3-0.8,0.5-0.9,0.5c0-0.2,0.1-0.3,0.3-0.5H252.3z
			 M251.8,36.5h-0.2v-0.6h0.2V36.5z M252,10.6h-0.2l-0.1,0.4l0.2,0L252,10.6z M252.6,8.9V8c0-0.3-0.1-0.4-0.4-0.4
			c-0.3,0.3-0.4,0.5-0.4,0.7c0.2-0.1,0.3-0.1,0.4-0.1c0.1,0,0.2,0,0.2,0.1c0,0.1,0,0.2,0,0.2c0,0-0.1,0.1-0.2,0.2
			c-0.1,0.1-0.2,0.2-0.2,0.2C252,8.9,252.3,8.9,252.6,8.9z M252.4,5.3c0-0.5,0-0.9,0-1.3c0-0.4,0-0.7,0-0.7c0,0.1-0.1,0.2-0.2,0.4
			C252,3.8,252,4,252,4.1C252,4.7,252.1,5.1,252.4,5.3z M252.7,10.3c0-0.1-0.1-0.3-0.4-0.6c0,0,0,0.1-0.1,0.1
			c-0.1,0-0.1,0.1-0.1,0.3c0,0.3,0.2,0.5,0.6,0.5C252.6,10.5,252.6,10.4,252.7,10.3z M252.6,19.6v-0.2h-0.5v0.2H252.6z M252.9,36.6
			c-0.2,0.2-0.4,0.3-0.6,0.3l0.1-0.6c0,0,0.1,0.1,0.2,0.1C252.7,36.5,252.8,36.5,252.9,36.6z M252.9,29.9c-0.2,0-0.3-0.1-0.3-0.2V30
			C252.6,30,252.7,30,252.9,29.9z M252.9,10.8l-0.2-0.2l-0.1,0.1l0.1,0.2L252.9,10.8z M253,8.6l0-0.2l-0.3,0.2v0.1L253,8.6z
			 M253.2,11.9c0-0.1-0.1-0.2-0.2-0.3c0,0.2-0.1,0.3-0.3,0.3H253.2z M253.7,10.5c0-0.1-0.1-0.2-0.4-0.5v0.5H253.7z M254.4,35.6
			c0-0.1,0-0.2-0.1-0.3c-0.3,0.1-0.5,0.2-0.7,0.1c0,0.2,0,0.3,0.1,0.3C254,35.7,254.2,35.6,254.4,35.6z M255.7,10.8
			c-0.1,0-0.2,0-0.3-0.1c0,0.2,0,0.3-0.1,0.4c-0.2-0.2-0.4-0.3-0.7-0.3c0.3,0.3,0.5,0.4,0.7,0.4C255.3,11.2,255.5,11.1,255.7,10.8z
			 M255.2,32.4h-0.5c0.2,0.3,0.3,0.4,0.2,0.6C255.1,32.9,255.2,32.7,255.2,32.4z M256.2,12.5c-0.4,0.2-0.8,0.3-1.1,0.3
			c0,0.2,0,0.6,0,1c-0.1-0.1-0.2-0.1-0.3-0.1v-0.8c0.1-0.1,0.1-0.2,0.1-0.4C255.4,12.6,255.8,12.6,256.2,12.5z M255.7,36.1
			c0-0.1-0.1-0.3-0.3-0.5c-0.1,0-0.2,0.1-0.2,0.3c0.1,0,0.2,0,0.3,0.1C255.6,36.1,255.7,36.1,255.7,36.1z M255.6,10.6
			c0.1-0.1,0-0.3-0.1-0.7c0,0.2,0,0.3-0.1,0.4C255.5,10.3,255.6,10.4,255.6,10.6z M256.7,22.9c-0.4-0.2-0.6-0.4-0.7-0.5V23
			c0.1,0,0.2,0,0.4-0.1S256.7,22.9,256.7,22.9z M256.6,24.8c-0.1,0-0.2,0-0.3,0.1c-0.2-0.2-0.3-0.4-0.3-0.5
			C256.2,24.4,256.4,24.5,256.6,24.8z M256.8,18.2c-0.2,0-0.4,0.1-0.8,0.3c-0.1,0,0.1,0.1,0.7,0.4C256.6,18.7,256.7,18.5,256.8,18.2
			z M256.7,25.6c-0.1,0-0.2-0.1-0.3-0.2c-0.1-0.1-0.2-0.2-0.2-0.2c0,0.1,0,0.2-0.1,0.3c0.1,0,0.2,0,0.3,0
			C256.6,25.6,256.7,25.6,256.7,25.6z M257.2,13.3c-0.2,0-0.2-0.1-0.2-0.2c-0.2,0.1-0.5,0.3-0.7,0.5c0.1,0.2,0.2,0.4,0.4,0.7
			C256.7,14.1,256.9,13.8,257.2,13.3z M256.6,28l-0.1,0l-0.2,0.3l0.2,0.1L256.6,28z M256.5,34.1v-0.4h-0.2v0.4H256.5z M256.9,36
			l-0.4-0.1l-0.1,0.3L256.9,36z M256.8,7.5l-0.2-0.2l-0.1,0.1l0.2,0.2L256.8,7.5z M257.6,6.7v-1c-0.3,0.1-0.5,0.2-0.9,0.3
			C256.9,6.2,257.2,6.4,257.6,6.7z M257.1,23.8l-0.2-0.1l-0.1,0.3l0.1,0L257.1,23.8z M257.4,27.6c-0.1,0-0.2,0-0.3,0
			c-0.1,0-0.1,0-0.2,0c0,0,0-0.1,0.1-0.2c0.1-0.1,0.1-0.2,0.1-0.2C257.4,27.3,257.4,27.5,257.4,27.6z M257.8,10.9
			c-0.4-0.2-0.5-0.4-0.5-0.7c-0.1,0.3-0.1,0.5,0,0.7H257.8z M258.7,9.5c-0.4,0-0.9,0-1.5,0c0.1,0,0.3,0.1,0.6,0.1
			c0.3,0.1,0.6,0.1,0.7,0.2C258.6,9.7,258.6,9.6,258.7,9.5z M257.5,12v-0.5h-0.2V12H257.5z M257.8,27.7l-0.2-0.2l-0.1,0.1l0.2,0.2
			L257.8,27.7z M258,18.9h-0.6c0.1-0.3,0.3-0.4,0.5-0.2C258,18.8,258,18.8,258,18.9z M258.8,15.1c-0.1,0-0.3-0.1-0.4-0.2l-0.2,0.3
			c-0.1-0.1-0.1-0.2-0.1-0.4h-0.5c0.4,0.3,0.5,0.5,0.6,0.5c0.1,0,0.3,0,0.4-0.1C258.7,15.2,258.7,15.1,258.8,15.1z M258.1,7.4
			c0,0.1-0.1,0.1-0.4,0.1c0,0.1,0.1,0.2,0.1,0.4c0.1,0.2,0.1,0.3,0.1,0.4C258.1,8.2,258.1,7.9,258.1,7.4z M258.3,23.7
			c0-0.2-0.2-0.3-0.5-0.3v0.5c0,0,0.1,0,0.2-0.1C258.2,23.7,258.3,23.7,258.3,23.7z M259.4,21.5c-0.1,0.2-0.2,0.4-0.4,0.9
			c0-0.1-0.1-0.4-0.3-0.8l-0.6,0.1c0,0,0-0.1,0.1-0.3c0-0.2,0.1-0.3,0.1-0.3L259.4,21.5z M259.6,25.7c0,0.3-0.1,0.5-0.2,0.5
			s-0.2,0-0.2,0.1c0,0-0.1,0.1-0.2,0.1c-0.1,0-0.2,0-0.2-0.1c0-0.1,0-0.1-0.1-0.1c-0.2,0.2-0.2,0.3,0.1,0.3c0,0-0.1,0-0.3,0
			c-0.2,0-0.3,0-0.4,0v-0.6c0.3,0,0.4,0,0.4-0.1c0,0,0.1,0.1,0.1,0.2c0,0.1,0.1,0.2,0.2,0.2c0.1,0,0.2,0,0.4-0.1
			C259.4,25.7,259.5,25.7,259.6,25.7z M258.9,24.8c-0.1-0.1-0.2-0.1-0.4,0c0-0.1-0.1-0.3-0.3-0.5h0.6c0,0.1,0,0.2,0,0.3
			C258.9,24.7,258.9,24.8,258.9,24.8z M258.8,33.1l-0.2,0l-0.1,0.3l0.1,0L258.8,33.1z M258.8,7.8V7.3h-0.2v0.5H258.8z M258.9,8.7
			V8.1h-0.2v0.6H258.9z M259.3,12.4c-0.2,0-0.3-0.1-0.5-0.3c0.1,0,0.2-0.1,0.3-0.2c0.1-0.1,0.2-0.2,0.2-0.2
			C259.3,12.2,259.3,12.4,259.3,12.4z M259.5,10.2c-0.2,0.2-0.4,0.4-0.6,0.5c0.1,0.1,0.2,0.2,0.3,0.2c0-0.2,0-0.3,0.1-0.4
			C259.5,10.5,259.5,10.4,259.5,10.2z M259.3,15.4c0-0.1-0.1-0.2-0.2-0.3c-0.1,0-0.2,0.2-0.2,0.5C259.1,15.6,259.2,15.5,259.3,15.4z
			 M259.5,17.1v-0.2l-0.6-0.1V17L259.5,17.1z M260.3,14c-0.3,0-0.5,0-0.6-0.1v-0.7c-0.1,0.6-0.1,1-0.1,1.2h0.6
			C260.2,14.2,260.2,14.1,260.3,14z M260.5,12c0,0,0-0.1-0.1-0.3c0-0.2-0.1-0.3-0.1-0.3h-0.7c0,0.2,0.1,0.4,0.2,0.6H260.5z
			 M260.1,20.1c0,0,0,0.1,0,0.3c0,0.1,0,0.2,0,0.3c0-0.2-0.1-0.3-0.3-0.4C259.9,20.1,260,20.1,260.1,20.1z M260.1,21.2h-0.3V21h0.3
			V21.2z M260.8,9.5c-0.2-0.2-0.4-0.3-0.5-0.3v0.7C260.7,9.8,260.8,9.7,260.8,9.5z M261.1,20.1l-0.1,0.1l-0.2-0.2l0.1-0.1
			L261.1,20.1z M261.5,11.3c-0.2-0.4-0.4-0.6-0.6-0.6c0,0,0,0.2,0,0.6H261.5z M261.5,27.9H261c0.2-0.2,0.2-0.4,0.2-0.5
			C261.4,27.5,261.5,27.7,261.5,27.9z M261.4,31.2l-0.2,0l-0.1,0.3l0.2,0L261.4,31.2z M261.5,17.1c-0.1,0-0.2,0-0.4,0.1
			c0.1,0.1,0.2,0.3,0.2,0.4c0,0,0-0.1,0.1-0.3C261.4,17.2,261.5,17.1,261.5,17.1z M261.5,28.7l0-0.2l-0.3,0.1v0.2L261.5,28.7z
			 M262.1,15.6c-0.1,0.2-0.3,0.4-0.7,0.6c0-0.1,0-0.2,0-0.4c-0.1-0.2-0.1-0.3-0.1-0.3L262.1,15.6z M262.3,14.7l-0.5,0.1
			c-0.1-0.1-0.2-0.1-0.3-0.1c0.2,0.4,0.3,0.5,0.5,0.5C262.2,15.2,262.3,15.1,262.3,14.7z M262.3,22.4c-0.1-0.1-0.3-0.1-0.5-0.1
			c0,0.1,0,0.2,0.1,0.3c0,0.1,0.1,0.1,0.2,0C262.3,22.5,262.3,22.4,262.3,22.4z M262.9,17.9l-0.3,0.3c-0.2-0.1-0.4-0.3-0.5-0.7
			C262.4,17.6,262.6,17.7,262.9,17.9z M262.9,17v-0.2h-0.7V17H262.9z M262.9,19.9v-0.2l-0.7-0.1v0.2L262.9,19.9z M263,18.7l-0.1,0.1
			l-0.2-0.2l0.1-0.1L263,18.7z M263.4,18.2c-0.2,0-0.3,0-0.4-0.1c0,0.1,0.1,0.3,0.3,0.5C263.3,18.5,263.4,18.4,263.4,18.2z
			 M264.6,19.9c-0.1,0.1-0.3,0.1-0.4,0.1c0,0-0.2-0.1-0.4-0.4c-0.2,0.2-0.3,0.2-0.4,0.2c0-0.1,0.2-0.3,0.5-0.6h0.6
			c0,0,0,0.1,0.1,0.3S264.6,19.9,264.6,19.9z M264.4,18.5c-0.3-0.1-0.6-0.1-0.9-0.1c0.1,0.2,0.3,0.5,0.6,0.7
			C264.3,18.9,264.4,18.7,264.4,18.5z M264.6,23.3c0-0.1-0.1-0.2-0.2-0.3c-0.2,0.2-0.3,0.4-0.3,0.6c0.1-0.1,0.1-0.1,0.2-0.2
			C264.4,23.4,264.5,23.3,264.6,23.3z M264.5,25.7h-0.2l-0.1,0.6h0.2L264.5,25.7z M264.7,16.6h-0.2l-0.1,0.4l0.2,0.1L264.7,16.6z
			 M265.1,17.7l-0.2-0.2l-0.1,0.1l0.2,0.2L265.1,17.7z"/>
		<path class="st0" d="M49.8,111.8H31.5C29,106.3,25.4,98,20.6,87.1c-0.1,0-0.2-0.2-0.4-0.4c-0.1-0.2-0.1-0.5,0-1
			c0-0.1-0.1-0.2-0.3-0.3c-0.2-0.1-0.4-0.3-0.5-0.4c-0.1-0.2-0.3-0.7-0.6-1.7c-0.1-0.1-0.3-0.2-0.5-0.3c-0.2,0.2-0.3,0.6-0.3,1.2
			c-0.2,1-0.2,2.4-0.1,4.2c0.2,2,0.2,3.4,0.2,4.3c-0.1,0-0.3,0.1-0.5,0.2c0,0.3,0.2,0.5,0.6,0.5v10.3c0,0.4,0.1,1,0.2,1.9
			c0,3.5,0,5.3,0.1,5.3c0,0.2-0.2,0.5-0.5,1c-0.4,0.4-0.7,0.7-1.1,0.9H1.2V98.5c0.2,0,0.3-0.1,0.5-0.3C1.7,98,1.5,98,1.1,98v-9.8
			c0.1-0.3,0.3-0.6,0.6-1c0.1-0.2,0-0.3-0.3-0.5c-0.2-0.2-0.4-0.3-0.4-0.4C1,85,1,82.9,1,80.1v-5.3c-0.1-3.7-0.2-6-0.2-6.9
			c0-0.3,0-0.7-0.1-1.4c-0.1-0.7-0.1-1-0.1-1.1V51.3h14.3c0.1,0.1,0.1,0.1,0.2,0.1c-0.1,0.1-0.1,0.2,0,0.2c-0.1,0.1,0.3,0.1,1.1,0.1
			l1.1-0.2c0.1,2.1,0.2,7,0.2,14.9c0,6,0,9,0,9c0.2,0.3,0.5,0.7,0.9,1.1l12.4-25.1h15.8c0.5,0,1.2-0.1,2.2-0.4v0.7L36.4,79.4
			L49.8,111.8z M2.2,98.5v-1L2.7,98L2.2,98.5z M3,83.2l-0.2-0.1l-0.3,0.5l0.3,0.2L3,83.2z M3,75v-0.9H2.6V75H3z M3.3,59.9l-0.2-0.2
			l-0.5,0.2v0.2L3.3,59.9z M3.3,63l-0.2-0.5l-0.3,0.1L3.1,63H3.3z M5.1,96.4l-0.3-0.1l-0.2,0.5l0.3,0.2L5.1,96.4z M6.8,81.5
			c-0.5-0.5-0.8-0.7-1-0.7v0.7H6.8z M6.8,75.7c0,0.1-0.2,0.2-0.5,0.2c0,0.1,0.1,0.3,0.2,0.5C6.8,76.3,6.8,76,6.8,75.7z M6.9,94.9
			v-0.4H6.4v0.4H6.9z M7.9,86.4l-0.2-0.3l-0.2,0.2l0.3,0.3L7.9,86.4z M8,84.7v-0.3H7.5v0.3H8z M8,80.7v-0.7H7.6v0.7H8z M9.3,54.8
			l-0.2-0.2l-0.5,0.2V55L9.3,54.8z M9.9,103.7H9.3v-0.4h0.7V103.7z M10.9,81v-0.3h-0.5V81H10.9z M11.4,76.3l-0.3-0.1l-0.2,0.5
			l0.3,0.1L11.4,76.3z M11.8,66.3L11.5,66l-0.2,0.2l0.2,0.2L11.8,66.3z M12.5,90.6l-0.2-0.3l-0.5,0.2v0.3L12.5,90.6z M15.4,94.3
			L15.1,94L15,94.2l0.2,0.2L15.4,94.3z M22,78.6c-0.4-0.4-0.5-0.7-0.3-1.1c-0.3,0.3-0.4,0.7-0.4,1.3c0,0,0.2,0,0.3-0.1
			C21.9,78.7,22,78.6,22,78.6z M23.1,88.7h-0.3l-0.2,0.6l0.3,0.1L23.1,88.7z M23.1,87.9v-0.8h-0.3v0.8H23.1z M24.4,91.2l-0.2-0.2
			l-0.7,0.4l0.2,0.3L24.4,91.2z M24.7,78.7v-0.8c-0.3,0.2-0.5,0.1-0.6-0.3h-0.3v0.6C24,78.5,24.3,78.7,24.7,78.7z M25,91.6l-0.3-0.1
			L24.5,92l0.3,0.2L25,91.6z M28.6,83.4V83H28v0.4H28.6z M32.1,89.1l-0.3-0.3L31.6,89l0.2,0.2L32.1,89.1z M33.2,84.2l-0.9-0.3
			l-0.2,0.5c0.2,0,0.4,0,0.6-0.1C33,84.2,33.1,84.2,33.2,84.2z M33.4,86.5v-0.9c-0.4,0.2-0.7,0.5-0.9,0.9c0,0,0.2,0,0.4,0
			C33.1,86.5,33.3,86.5,33.4,86.5z M34.4,82.6c-0.7,0.1-1.1,0.5-1.2,1.1c0.3,0,0.5,0.1,0.6,0.2c0.4-0.4,0.5-0.5,0.3-0.5
			C34.1,83.2,34.2,83,34.4,82.6z M34.6,89.6v-0.5h-0.3v0.5H34.6z M35.5,86.9l-0.2-0.2l-0.7,0.5l0.2,0.2L35.5,86.9z M36.4,102.9h-1.3
			v-0.4h1.3V102.9z M43.1,58.1v-0.4h-0.5v0.4H43.1z"/>
		<path class="st0" d="M75.6,91.8v-2.1c-0.7,0.7-1.1,1.2-1.2,1.4c-0.1,0.3-0.2,0.4-0.5,0.4c-0.1,0-0.2-0.2-0.2-0.7
			c-0.1-0.5-0.1-1-0.2-1.6c-0.1-0.6-0.1-1.2-0.2-1.8s-0.1-1.1-0.2-1.4c0-0.3-0.1-0.5-0.3-0.8c-0.2-0.3-0.3-0.5-0.3-0.8
			c0-0.2,0-0.5,0.2-1c0.1-0.4,0.2-0.9,0.3-1.4c0.1-0.5,0.2-1.1,0.3-1.7c0.1-0.6,0.2-1.2,0.2-1.7c0.4,0,0.6,0.1,0.7,0.3
			c0.1,0.2,0.5,0.3,1.3,0.3c0.4,0,0.8,0,1.3,0c0.5,0,0.8,0,0.9,0s0.3,0.1,0.6,0.2c0.3,0.1,0.4,0.2,0.5,0.3c1.2,0.2,2.3,0.3,3.2,0.4
			c0.9,0.1,1.9,0.1,3,0.2c1.1,0,2.3,0,3.8,0c1.5,0,3.3,0,5.6,0c1.9,0,3.6,0,5.3,0s2.8,0,3.5-0.1c0.6,0.1,1.1,0.2,1.7,0.3
			c0.6,0.1,1.1,0.3,1.4,0.6c0,0.7,0.1,1.4,0.2,1.9c0.1,0.6,0.2,1.2,0.2,1.8c0.1,0.6,0.1,1.3,0.2,2c0,0.7,0,1.5,0,2.5
			c0,0.6,0,1.1-0.1,1.5c-0.1,0.4-0.2,0.6-0.5,0.6c-0.2,0-0.4-0.1-0.7-0.3c-0.3-0.2-0.5-0.3-0.8-0.3c-0.3,0-0.8,0.1-1.4,0.2
			c-0.7,0.1-1.3,0.2-2.1,0.3c-0.7,0.1-1.6,0.3-2.7,0.6l-0.5,1.1l-2.6-1.6H75.6z M74.8,82.4h0.5V82h-0.5V82.4z M105.4,89.7
			c0-0.2-0.1-0.2-0.2-0.2c-0.2,0-0.3,0.1-0.3,0.2c0,0.2,0.2,0.2,0.3,0.2C105.3,89.9,105.4,89.9,105.4,89.7z"/>
		<path class="st0" d="M177.6,113.6c-0.2,0-1.6,0.3-4.4,0.6l-21.7-20.6c-0.2,0-0.4,0-0.6-0.1c-1-0.9-2-1.8-3-2.7
			c-1.2-1.1-1.9-1.9-1.9-2.4c-0.1,0.1-0.1,0.2-0.1,0.3c-0.5-0.1-0.9-0.4-1.2-1c-0.2,0-0.3-0.1-0.5-0.2c-0.4-0.5-1-1.1-1.7-2
			c-0.3-0.2-0.9-0.6-1.7-1.2c0.1,0.3,0.2,0.1,0.2-0.5l-0.3-0.2c-0.3,0.7-0.5,1.3-0.8,1.7c-0.1-0.3-0.4-0.7-0.8-1.3
			c-0.2,0.3-0.3,0.6-0.2,0.8c0,0.6,0,1-0.1,1.3c0,0.1,0.2,0.2,0.5,0.2c0.3,0,0.5-0.1,0.5-0.3c0,0.6-0.1,0.8-0.3,0.8l-0.5-0.2
			c0,0.1,0,0.2-0.1,0.3c-0.1,0.2-0.1,0.3-0.1,0.5c0.2,0.1,0.4,0.2,0.8,0.2c-0.1,0.5-0.2,1.2-0.5,2.1l0.3,0.3c0-0.1,0.1-0.4,0.1-0.8
			h0.9v6.2c-0.1,0-0.2,0-0.3-0.1c-0.2-0.1-0.3-0.1-0.3-0.1l-0.3,0.3c0.2,0.5,0.5,0.9,1,1.2c0,0.1,0,1.6,0,4.4c0,0.1,0,0.3,0.2,0.5
			s0.2,0.4,0.2,0.6v10.6c-0.8,0-2.9,0-6.3,0c-0.9,0-1.4,0-1.5,0c-0.1,0-0.3-0.3-0.6-0.7v0.5c-0.7,0-1.9,0-3.6,0.2
			c-1.8,0-3,0.1-3.6,0.1l-0.3-0.2l0.6-25.2c-0.1,0-0.1-0.1-0.2-0.2v-3c0-0.2,0.1-0.5,0.2-1c0.1-0.4,0.2-0.7,0.2-0.9
			c0-0.3-0.2-0.5-0.5-0.6c0-0.6,0.1-2.1,0.2-4.5c0.1-2,0.1-3.5,0.1-4.6c0-0.2,0-0.5-0.1-1c-0.1-0.5-0.1-0.9-0.1-1v-10l-0.2-9.3
			c1,0.3,2.5,0.9,4.3,1.7c1.1,0.7,2.7,2,4.9,4c1.5,1.4,3.1,2.8,4.6,4.3c1.4,1.2,3.2,2.8,5.6,5c0.2,0.1,0.4,0.2,0.7,0.3
			c3.8,3.5,9.6,8.8,17.4,15.9c0,0,0.1-0.2,0.2-0.3c0-0.7,0-1.7,0-3.1c-0.1-1.6-0.1-2.3-0.1-2.1v-6.8l-0.4-16.7
			c0.2-0.1,0.4-0.2,0.6-0.4c1.3-0.1,3.6-0.4,6.8-0.8c3-0.4,4.6-0.6,4.7-0.6c1,0,1.7,0.1,2.2,0.3c0.2,0.1,0.4,0,0.5-0.3L177.6,113.6z
			 M126.4,86c0.2,0.2,0.1,0.7-0.2,1.6v-1.7L126.4,86z M128,71.6l-0.3-0.9l-0.2,0.1l0.3,0.8H128z M128.4,86.6l-0.2-0.5l-0.2,0.1
			l0.2,0.5H128.4z M128.4,69v-0.7H128V69H128.4z M128.4,90.2v-0.5H128v0.5H128.4z M129.3,86.6l-0.8-0.2v0.3l0.7,0.2L129.3,86.6z
			 M129.8,84.2v-0.7c-0.3,0.4-0.6,0.9-1.1,1.6c0.1,0,0.2,0,0.4-0.1c0.2,0,0.3-0.1,0.3-0.1c-0.1-0.3-0.2-0.5-0.2-0.6
			C129.4,84.2,129.5,84.2,129.8,84.2z M130.8,89.3v-1.1h-0.3v1.1H130.8z M133.3,90.9v-0.2c-0.4-0.2-0.6-0.3-0.7-0.2
			C132.8,90.8,133,90.9,133.3,90.9z M134.2,99.5v-0.8h-0.4v0.8H134.2z M134.4,71.3l-0.2-0.1l-0.2,0.5l0.2,0.2L134.4,71.3z
			 M134.4,89.3h-0.2l-0.2,0.6l0.2,0.1L134.4,89.3z M135.6,76.3v-0.7h-0.3v0.7H135.6z M135.6,80.2v-0.7h-0.3v0.7H135.6z M137.5,79.5
			c-0.1-0.2-0.3-0.8-0.7-1.9c-0.2,0.8-0.4,1.4-0.7,1.8c0.2,0,0.4,0,0.6-0.1c0.2,0,0.3-0.1,0.5-0.1C137.4,79.3,137.5,79.4,137.5,79.5
			z M136.9,87l-0.8-0.2v0.3l0.7,0.2L136.9,87z M137.6,105.6c0,0.4-0.1,0.7-0.2,0.9c0-0.3-0.1-0.5-0.3-0.7
			C137.3,105.7,137.5,105.6,137.6,105.6z M138.5,86.7c-0.1-0.4-0.3-0.8-0.5-1.4c0,0.8-0.1,1.3-0.2,1.5l-0.4-0.4
			c0,0.4,0.2,0.5,0.5,0.5C138.1,87,138.3,86.9,138.5,86.7z M138.3,84.2v-1.1H138v1.1H138.3z M138.8,98.1c-0.4,0-0.5,0.2-0.5,0.5
			c0,0.2,0,0.4,0.1,0.5c0.1,0.1,0.1,0.2,0.1,0.2C138.7,99.2,138.8,98.8,138.8,98.1z M138.9,101.3c-0.5,0.2-0.7,0.6-0.7,1.1
			c0,0.4,0.2,0.8,0.5,1.2c-0.1-0.4-0.1-0.8,0-1.3C138.9,101.7,138.9,101.4,138.9,101.3z M139.4,106.6l-0.2,0.2l-0.3-0.2l0.2-0.2
			L139.4,106.6z M139.6,90.9v-0.5h-0.3v0.5H139.6z M139.8,94.7v-1.1h-0.4v1.1H139.8z M140.3,88.3c-0.1-0.2-0.1-1-0.1-2.4
			c-0.1,0.6-0.3,1.5-0.6,2.6c0.1,0,0.2,0,0.3-0.1C140.1,88.3,140.2,88.3,140.3,88.3z M141.4,75.4v-0.3h-0.7v0.3H141.4z M142.9,75.8
			v-0.3h-0.7v0.3H142.9z M142.6,72.2v-1.1h-0.4v1.1H142.6z M145.1,82.6l-0.3-0.1l-0.2,0.5l0.3,0.2L145.1,82.6z M146.3,87.5
			c-0.3-0.3-0.4-0.5-0.3-0.5c-0.3,0.3-0.4,0.6-0.4,0.9C145.9,87.7,146.1,87.5,146.3,87.5z M146.2,86l-0.3-0.1l-0.2,0.5l0.2,0.1
			L146.2,86z M146.4,79.4l-0.3-0.3l-0.2,0.2l0.2,0.2L146.4,79.4z M146.6,84.3l-0.3-0.2l-0.2,0.5l0.2,0.1L146.6,84.3z M150.7,74
			l-0.3-0.1l-0.2,0.5l0.3,0.1L150.7,74z M152.8,82.9c0-0.1-0.1-0.2-0.2-0.4c-0.1-0.2-0.2-0.3-0.2-0.3c0-0.3,0-0.7,0-1.1
			c-0.1,0.3-0.5,0.8-1.2,1.5V83l0.2,0.2C151.8,83.2,152.3,83.1,152.8,82.9z M152.2,89.8L152,89l-0.3,0.2l0.2,0.6H152.2z M152.6,84.2
			v-0.5h-0.4v0.5H152.6z M154.1,82c-0.2,0.2-0.4,0.5-0.7,0.8h0.9L154.1,82z M154.6,77.4v-0.5h-0.4v0.5H154.6z M158.9,89.9l-0.2-0.2
			l-0.7,0.6l0.2,0.2L158.9,89.9z M162.1,97.7V97h-0.3v0.7H162.1z M163.2,90.9v-0.7c-0.1,0-0.3,0.1-0.5,0.2L163.2,90.9z M164.3,74.1
			v-0.3h-0.5v0.3H164.3z M165.7,77.8v-1.1h-0.3v1.1H165.7z M169.6,78.9v-0.5h-0.3v0.5H169.6z M173.6,100.3v-0.7h-0.3v0.7H173.6z"/>
		<path class="st0" d="M263.3,83.6c-0.1-0.2-0.2-0.1-0.3,0.4c0,0.9-0.2,2.2-0.6,4c0,0.1,0.1,0.1,0.2,0.2c-1,4.1-3,8.2-5.9,12.4
			c-0.1,0-0.2-0.1-0.5-0.2c-0.3-0.1-0.4-0.2-0.5-0.2c0.3-0.3,0.4-0.5,0.4-0.6c0,0.1-0.3,0.1-1.1,0.1l-0.6-1.7
			c-0.3,0-0.5,0.2-0.5,0.5c0,0.5,0.3,1,0.8,1.6c0.5,0.6,1,1,1.4,1.2c-2.7,3-5.4,5.4-8.2,7.1c-0.6,0.4-1.7,0.9-3.5,1.7
			c-1.8,0.8-2.8,1.1-3,1.1h-0.8c0-0.3,0.1-0.6,0.4-0.8c-0.2-0.1-0.5-0.4-0.8-0.9c-0.1,0.1-0.1,0.2-0.2,0.2c0,0.2,0,0.5-0.1,1
			c-0.1,0.5-0.2,0.8-0.2,1c-1.6,0.6-2.7,0.8-3.5,0.8c-0.2,0-0.8,0-2.1,0.1c-1.2,0.1-1.9,0.1-2.1,0.1c-5.8,0-11.2-1.4-16-4.1
			c-4.7-2.6-8.5-6.3-11.5-10.9c-0.4-0.4-0.8-1.1-1.4-2c-0.9-1.6-1.6-3.4-2.1-5.3c-0.9-3.2-1.3-5.2-1.3-5.8v-4.7
			c0,0.3,0.1,0.1,0.2-0.6c0.1-0.7,0.3-1.6,0.5-2.8c-0.2,0.1-0.2-0.1-0.2-0.4c0-0.2,0.3-1.1,0.8-2.8c0,0,0.2-0.1,0.5-0.2
			c0.3,0,0.5-0.2,0.5-0.3s-0.3-0.2-0.8-0.2c0.6-1.5,1.5-3.6,2.8-6.5c0,0,0.2,0,0.3-0.1c0.2,0,0.3-0.1,0.3-0.1c0,0.3,0.2,0.6,0.5,0.9
			c0.6-0.6,0.4-1-0.4-1.4c0.5-1.1,1.7-2.6,3.5-4.5c1.5-1.4,3-2.8,4.5-4.3c0.8-0.5,1.8-1.2,3.3-2.1c0.3-0.2,0.3-0.4,0-0.7
			c0,0,0.1,0.1,0.2,0.2c0.1,0.1,0.3,0.2,0.5,0.2c1.5,0,2.2-0.6,1.9-1.7c0.2,0.2,0.4,0.4,0.7,0.7c0.3-0.2,0.8-0.5,1.5-0.8
			c0.1,0,0.1-0.2-0.1-0.3c0.3,0,0.7,0.1,1.1,0.4c0.1,0,0.2-0.2,0.4-0.5c1.4-0.3,2.1-0.7,2.1-1.2c0,0,0.2,0.1,0.3,0.2
			c0.2,0.1,0.4,0.2,0.6,0.2c0.8,0,1.8-0.1,3.3-0.3c0,0,0-0.1,0.1-0.2v-0.1c-0.1,0-0.2,0-0.3,0c-0.2,0-0.3,0-0.5,0
			c-0.2,0.1-0.3,0.1-0.4,0.1c0.4,0,0.6-0.1,0.7-0.3c-0.2-0.1-0.4-0.3-0.8-0.5c0,0,0.3,0,0.8,0c0-0.3-0.2-0.5-0.6-0.5v-0.8h1.1
			c0,0.4,0.3,0.8,0.6,1.3c0.4,0.5,0.7,0.8,0.9,0.8c0.2,0,0.6,0,1.3-0.1c0.7-0.1,1.1-0.1,1.3-0.1c1.4,0,3.6,0.3,6.5,0.8
			c0.2,0.1,0.5,0.2,1.1,0.5c0.6,0.3,1,0.4,1.1,0.4c0.2,0,0.2,0,0.2-0.1c0-0.1,0.1-0.1,0.2-0.1c0.7,0,1.9,0.5,3.7,1.5
			c0.6,0.5,1.5,1.1,2.7,1.9c-0.1,0.3,0,0.6,0.1,0.8c0.1-0.1,0.1-0.2,0.3-0.4c0.1-0.2,0.2-0.3,0.3-0.4c1.2,0.9,2.7,2.3,4.6,4.1
			c0.4,0.3,0.9,0.7,1.4,1.3c0,0.2,0.1,0.4,0.2,0.7c0.1,0.3,0.4,0.4,0.8,0.5c1.4,1.7,2.6,3.4,3.8,5.3c0.2,0.3,0.5,1.1,0.9,2.6
			c0.1,0.1,0.3,0.2,0.5,0.4c0.4,1,0.8,2.4,1.4,4.2c0.1,1,0.3,2.5,0.5,4.3l-0.3,0.5c0.2,0.5,0.4,0.8,0.8,0.9V83.6z M203,72.2
			c-0.1,0-0.3-0.1-0.5-0.2c0-0.2,0.2-0.4,0.5-0.8V72.2z M205.2,73.6c-0.4-0.8-0.7-1.1-1.1-1.1v0.9c0.3,0.3,0.5,0.5,0.5,0.6
			c0,0,0.2-0.1,0.3-0.2C205,73.7,205.1,73.6,205.2,73.6z M206.8,86.8c-0.1-0.2-0.1-0.4-0.1-0.8c0-0.4-0.1-0.6-0.1-0.7
			c-0.1,0.1-0.2,0.1-0.4,0.2c-0.2,0.1-0.3,0.2-0.4,0.2C206,86.1,206.3,86.4,206.8,86.8z M208.3,71.9v-1.1c0,0.2-0.1,0.2-0.2,0.2
			c-0.2,0-0.3-0.2-0.4-0.5c-0.2,0.1-0.3,0.4-0.6,0.8c-0.2,0.4-0.4,0.7-0.5,0.9c0.1,0.1,0.3,0.2,0.5,0.4c0.3,0.2,0.5,0.4,0.6,0.4
			c-0.1-0.2-0.1-0.3-0.3-0.5c-0.1-0.2-0.2-0.4-0.3-0.5c0,0,0.1-0.2,0.2-0.3c0.1-0.2,0.2-0.3,0.2-0.3L208.3,71.9z M207.8,70.1v-0.3
			H207v0.3H207.8z M207.8,64.3c0-0.1,0-0.2-0.1-0.3c-0.1-0.2-0.1-0.3-0.1-0.3c-0.2,0-0.3,0.1-0.4,0.2c-0.1,0.1-0.1,0.2,0,0.4
			c0,0.2,0.1,0.3,0.1,0.4C207.5,64.5,207.7,64.4,207.8,64.3z M208.7,72.5l-0.3-0.2l-0.2,0.5l0.2,0.2L208.7,72.5z M210,70.2l-0.3,0.5
			l-0.2-0.2l0.2-0.5L210,70.2z M210.5,71.9v-0.8c-0.1,0-0.3,0.1-0.5,0.2L210.5,71.9z M211,73.8c-0.2,0-0.5-0.2-1-0.7
			c0,0,0.2,0,0.4-0.1c0.2-0.1,0.3-0.1,0.4-0.1C210.7,73.3,210.8,73.6,211,73.8z M211.7,74.3V74l-0.7-0.2l-0.1,0.3L211.7,74.3z
			 M213.5,76.6v-1.1c-0.7-0.2-1-0.4-1-0.6c-0.1,0.3-0.1,0.6-0.1,0.9l0.2,0.8H213.5z M213.9,65c-0.1,0-0.1-0.2-0.3-0.3
			c-0.1-0.2-0.2-0.3-0.3-0.4c0,0.2,0,0.4,0,0.7c-0.1,0.4,0,0.6,0.1,0.7C213.5,65.5,213.6,65.3,213.9,65z M214.3,74.4l-0.5-0.3
			l-0.1,0.3l0.5,0.2L214.3,74.4z M214.5,77.6c0,0.5-0.1,1.1-0.3,1.7c-0.3-1.3-0.5-2.1-0.5-2.4C214,77,214.3,77.2,214.5,77.6z
			 M247.3,85v-4.8c-0.1-0.7-0.3-1.7-0.7-3c-0.4-0.9-0.7-1.8-1.1-2.7c-0.7-1.2-1.6-2.4-2.7-3.5c-0.1,0-0.2-0.2-0.3-0.6
			c-0.2-0.3-0.3-0.5-0.5-0.5c-0.2,0-0.3,0-0.2,0.1c0,0.1,0,0.1-0.2,0.1c-0.1,0-0.7-0.4-1.9-1.1c-1.2-0.8-2.1-1.2-2.7-1.4
			c-0.6-0.2-1.2-0.2-1.8-0.2c0.1-0.1,0.2-0.2,0.2-0.4l-0.5,0.4c-0.3-0.2-0.7-0.5-1.1-1h-0.9v0.6c0.1,0.2,0,0.3-0.1,0.5
			c-0.3-0.6-0.5-1-0.5-1.3c0,0.2-0.1,0.3-0.4,0.3c-0.9-0.5-1.6-0.6-2.1-0.5c0.1,0,0.2,0.1,0.4,0.2c-1.5,0.4-3.6,1-6.4,2
			c-1.3,0.8-2.9,2.2-4.9,4.4c0.2,0.1,0.5,0.4,1,0.9l-0.3,0.4h-1.1c-0.1-0.2-0.1-0.4,0-0.6l0.2-0.4c-0.6,0.7-1.2,1.7-1.9,3
			c-0.7,1.3-1,2.2-1.1,2.8c-0.1,0.8-0.1,1.6-0.2,2.5c-0.1,0.9-0.3,1.3-0.6,1.4c0.4,0.4,0.7,1.2,1.1,2.6c0.4,1.4,0.6,2.2,0.8,2.4
			c2.6,4.4,6.3,7.2,11.2,8.5c0,0.8,0,1.3,0.1,1.4c0-0.1,0.1-0.2,0.2-0.4c0.1,0.1,0.2,0.3,0.2,0.5c0-0.7,0.3-1,0.8-1.1
			c0.2,0.2,0.2,0.4,0.2,0.6c0.1-0.1,0.3-0.2,0.5-0.2v-0.9c-0.7-0.6-1.4-1.7-2.4-3.3c1.9-1.4,3.1-2.1,3.6-2.1c0.3,0,0.4,0.1,0.4,0.2
			c0,0.1,0,0.4,0.2,0.7c0.1,0.3,0.2,0.5,0.2,0.6c0,0.2-0.2,0.4-0.7,0.7c-0.5,0.3-0.7,0.5-0.7,0.7c0,0.5,0.6,1.2,1.8,2.1
			c0.3-0.2,0.6-0.4,0.9-0.7c-0.2-0.2-0.2-0.4-0.1-0.5c0.1,0.1,0.2,0.2,0.4,0.2c0.2,0,0.4-0.1,0.6-0.3c0.3-0.2,0.4-0.4,0.5-0.4
			l0.3,0.3c-0.5,0.3-1.1,0.7-2,1.4c0.2,0.1,0.3,0.3,0.3,0.5c0.3,0,0.5-0.2,0.8-0.5c0.4,0.4,0.6,0.6,0.7,0.6c0.2,0,0.5-0.1,1.2-0.3
			c0.6-0.2,1.1-0.3,1.4-0.3c-0.1,0.1,0,0.2,0.1,0.5l0.6-0.9c0.5,0,1.2-0.3,2.1-0.8c0.7-0.4,1.4-1.1,2.4-2.1c0.9-1,1.5-1.5,1.8-1.7
			c0-0.2,0-0.5,0.2-0.8c0.4-0.4,0.9-0.9,1.6-1.5c0.2,0.1,0.2,0.2,0.2,0.4c0-1,0-1.4-0.1-1.3c0.2-0.5,0.4-1.2,0.7-2.1
			c0,0,0.1,0,0.2,0C247.2,85.3,247.3,85.2,247.3,85z M215.5,52l-0.5,0.5l-0.2-0.2l0.5-0.5L215.5,52z M217.2,51.1
			c-0.9-0.5-1.3-0.7-1.4-0.7c0.7,0,1,0,1.1-0.1C217.1,50.5,217.2,50.8,217.2,51.1z M216.7,67.8v-0.7h-0.3v0.7H216.7z M217.3,65.2
			H217l-0.2,0.7l0.3,0.1L217.3,65.2z M221.8,56.3c-0.2-0.2-0.3-0.3-0.3-0.5c0,0.1-0.1,0.2-0.2,0.5c-0.2,0.3-0.2,0.5-0.2,0.7
			L221.8,56.3z M224.4,48.4c-0.2,0.2-0.7,0.8-1.4,2.1c0-0.4,0.1-0.6,0.2-0.6l-0.3-0.3c-0.3,0.3-0.4,0.5-0.4,0.7c0-0.2,0-0.5,0.2-0.8
			c0.4-0.2,0.7-0.4,0.8-0.7v-0.4H224.4z M223.9,61v-0.5h-0.4V61H223.9z M224.9,66.3v-0.9h-0.4v0.9H224.9z M226.5,49.7
			c-0.1,0-0.3-0.1-0.5-0.2c0,0,0.1-0.1,0.2-0.2c0.1,0,0.2-0.1,0.2-0.2C226.3,49.3,226.3,49.5,226.5,49.7z M227.3,71.6
			c0-0.3-0.2-0.6-0.5-1c0,0.3-0.2,0.6-0.5,0.9C226.4,71.6,226.7,71.6,227.3,71.6z M228.4,97.1v-0.5h-0.4v0.5H228.4z M230.6,84.1
			l-0.2-0.6l-0.3,0.1l0.2,0.5H230.6z M231.9,96.5c-0.1,0-0.4,0-1.1,0c0,0,0-0.2,0.1-0.5c0.1-0.3,0.1-0.4,0.1-0.5
			C231,95.6,231.3,95.9,231.9,96.5z M231.1,49.2c-0.2-0.2-0.3-0.5-0.3-0.8c0.4,0.4,0.5,0.9,0.2,1.5C231,49.5,231,49.3,231.1,49.2z
			 M232.1,88.5c-0.1,0.1-0.2,0.3-0.3,0.5c-0.3-0.3-0.5-0.6-0.5-0.8C231.5,88.4,231.8,88.5,232.1,88.5z M231.9,62.3l-0.2-0.2
			l-0.3,0.5l0.3,0.2L231.9,62.3z M232.5,77.9v-0.7c-0.7,0.2-1,0.5-1,1c0,0.3,0.1,0.6,0.4,0.8c0-0.2,0.1-0.3,0.3-0.6
			S232.4,78,232.5,77.9z M232.9,79.8l-0.9-0.5l-0.2,0.2l0.9,0.5L232.9,79.8z M232.6,93.2v-0.3h-0.7v0.3H232.6z M232.8,82.6h-0.3
			l-0.2-0.6l0.2-0.2L232.8,82.6z M233.2,96.2l-0.3-0.3l-0.2,0.2l0.3,0.3L233.2,96.2z M234,68c0,0.2,0,0.3-0.1,0.4
			c-0.1,0.1-0.1,0.2-0.1,0.3c-0.2,0-0.5-0.2-1.1-0.5l0.5-0.5l0.6,0.6C233.9,68.2,234,68.1,234,68z M233.5,89.3c-0.1,0-0.2,0-0.4,0.1
			c-0.2,0.1-0.3,0.1-0.4,0.1c0,0.3,0.1,0.7,0.2,1.3c0.1-0.1,0.2-0.3,0.3-0.7C233.3,89.7,233.4,89.4,233.5,89.3z M233.3,80.8
			l-0.2-0.1l-0.3,0.5l0.3,0.2L233.3,80.8z M235.8,83c-0.4-0.3-1.1-0.5-2.1-0.6c0.2,0.3,0.6,0.7,1.2,1.3
			C235.2,83.7,235.5,83.5,235.8,83z M234.4,89c0,0.4-0.2,0.5-0.7,0.5v0.7C234.1,89.8,234.4,89.4,234.4,89z M234.8,54.1v-0.4h-0.5
			v0.4H234.8z M236,102.6c-0.5-0.4-1-0.5-1.5-0.5c0,0.3,0.2,0.4,0.6,0.4c0.2,0,0.4,0.1,0.6,0.2C235.9,102.7,236,102.7,236,102.6z
			 M236.3,71.7c-0.4,0-0.6-0.1-0.8-0.2c0,0.1-0.1,0.3-0.3,0.5c-0.2,0.3-0.3,0.5-0.3,0.6s0,0.3,0.1,0.6s0.1,0.4,0.1,0.4h1
			c0-0.2,0.1-0.3,0.2-0.5c-0.5,0-0.8-0.2-0.8-0.7C235.6,72.3,235.9,72.1,236.3,71.7z M235.8,69c-0.2-0.2-0.5-0.2-0.9-0.2v0.7
			C235.2,69.4,235.5,69.2,235.8,69z M236.8,92.4c-0.1,0-0.4,0-0.8-0.2c-0.4-0.1-0.7-0.1-0.9,0c0.6,0.4,1.1,0.7,1.4,1.1
			c-0.2-0.2-0.3-0.3-0.2-0.5C236.6,92.7,236.8,92.6,236.8,92.4z M235.7,88.8v-0.9h-0.4v0.9H235.7z M236.1,81l-0.3-0.3l-0.2,0.2
			l0.3,0.3L236.1,81z M238.6,69.2c-0.2-0.2-0.3-0.3-0.5-0.3c0,0.4-0.2,0.6-0.5,0.6c-0.2,0-0.5-0.1-0.8-0.3c-0.3-0.2-0.6-0.4-0.8-0.4
			c0.3,0.8,0.5,1.4,0.5,1.9C237,70.3,237.7,69.9,238.6,69.2z M237.6,73.7v-0.3h-0.9v0.3H237.6z M237.1,62.1v-0.5h-0.4v0.5H237.1z
			 M238.9,99.2l-0.2-0.2l-0.7,0.7l0.2,0.2L238.9,99.2z M238.6,79l-0.1-0.3l-0.5,0.2v0.3L238.6,79z M239,73.8l-0.1,0.2l-0.5-0.2
			l0.2-0.3L239,73.8z M239,102.9l-0.1-0.3l-0.5,0.3v0.2L239,102.9z M239.7,73.6c-0.1,0.2-0.2,0.4-0.4,0.6c-0.2,0.3-0.4,0.5-0.4,0.6
			c0.2-0.2,0.4-0.2,0.7-0.2c0,0,0-0.2,0.1-0.5C239.7,73.9,239.7,73.7,239.7,73.6z M240.1,92c0-0.2-0.2,0.2-0.6,1
			c-0.4-0.4-0.6-0.5-0.6-0.5C239.4,92.4,239.8,92.3,240.1,92z M240,77.6v-0.9c-0.1,0-0.3,0-0.5-0.1c-0.3-0.1-0.4-0.1-0.5-0.1
			c0.2,0.3,0.2,0.7,0.2,1.1H240z M240,95.4l-0.5-0.5c-0.2,0.3-0.1,0.6,0.3,1C239.8,95.8,239.8,95.6,240,95.4z M239.8,53.5v-0.8h-0.3
			v0.8H239.8z M240.1,104v-0.8h-0.4v0.8H240.1z M240.8,97.9c-0.3,0.3-0.6,0.6-1,0.9h0.8L240.8,97.9z M240.7,60.6
			c-0.2,0.4-0.5,0.9-0.8,1.5h0.7c0-0.2,0-0.4,0.1-0.8C240.7,60.9,240.7,60.7,240.7,60.6z M241.2,54.9l-0.2-0.3l-0.6,0.2v0.3
			L241.2,54.9z M242,66.8l-0.5-0.5h-0.7c0,0.1,0,0.2-0.1,0.4c-0.1,0.2-0.1,0.3-0.1,0.3c0,0,0.2,0.1,0.5,0.2c0.3,0.1,0.4,0.2,0.5,0.2
			C241.5,67,241.7,66.8,242,66.8z M242.1,103.2c-0.1-0.1-0.2-0.2-0.4-0.4c-0.2-0.2-0.3-0.3-0.3-0.4c0,0.1-0.2,0.2-0.6,0.2
			c0,0.1,0,0.2,0.1,0.5c0.1,0.3,0.1,0.4,0.1,0.5C241.4,103.2,241.7,103.2,242.1,103.2z M241.6,104.5c-0.2-0.2-0.5-0.3-0.8-0.3
			c0,0.2,0.2,0.5,0.5,0.8C241.4,104.9,241.5,104.7,241.6,104.5z M241.6,54c-0.1-0.3-0.3-0.7-0.5-1.1c-0.1,0.2-0.2,0.4-0.2,0.7
			c0,0.3,0,0.6,0.2,0.8C241.2,54.1,241.3,54,241.6,54z M242.4,108.8c-0.8,0.5-1.3,0.8-1.4,0.8c0-0.3,0.2-0.5,0.5-0.8H242.4z
			 M241.4,106.2h-0.3v-1h0.3V106.2z M241.8,65.2h-0.3l-0.2,0.7l0.3,0.1L241.8,65.2z M242.7,62.5v-1.4c0-0.5-0.2-0.7-0.7-0.7
			c-0.5,0.5-0.7,0.8-0.6,1.1c0.3-0.1,0.5-0.2,0.6-0.2c0.2,0,0.3,0.1,0.3,0.2c-0.1,0.2-0.1,0.3,0,0.4c-0.1,0.1-0.2,0.1-0.4,0.3
			c-0.2,0.1-0.3,0.2-0.4,0.3C241.9,62.5,242.3,62.5,242.7,62.5z M242.5,56.8c0-0.8,0-1.5,0-2.1c-0.1-0.7-0.1-1-0.1-1.1
			c0,0.2-0.1,0.4-0.3,0.6c-0.2,0.3-0.3,0.5-0.3,0.6C241.7,55.8,242,56.5,242.5,56.8z M242.9,64.7c0.1-0.2-0.2-0.5-0.7-1
			c0,0.1-0.1,0.1-0.2,0.2c-0.2,0.1-0.2,0.2-0.2,0.4c0,0.5,0.3,0.8,1,0.8C242.7,65,242.8,64.9,242.9,64.7z M242.7,79.5v-0.4H242v0.4
			H242.7z M243.2,106.3c-0.3,0.3-0.6,0.5-1,0.5l0.2-0.9c0,0.1,0.2,0.1,0.3,0.2C242.9,106.2,243.1,106.2,243.2,106.3z M243.2,95.6
			c-0.4,0-0.5-0.1-0.5-0.4v0.7C242.8,95.9,242.9,95.8,243.2,95.6z M243.2,65.4l-0.3-0.3l-0.2,0.2l0.2,0.3L243.2,65.4z M243.3,62
			l-0.1-0.3l-0.5,0.3v0.2L243.3,62z M243.7,67.2c0-0.1-0.1-0.3-0.3-0.5c0,0.3-0.2,0.5-0.5,0.5H243.7z M244.5,64.9
			c0-0.1-0.2-0.4-0.7-0.8v0.8H244.5z M245.7,104.8c0-0.1-0.1-0.3-0.2-0.5c-0.5,0.2-0.8,0.3-1.1,0.2c0,0.4,0.1,0.5,0.2,0.5
			C244.9,104.8,245.3,104.8,245.7,104.8z M247.7,65.5c-0.1,0-0.3-0.1-0.5-0.2c0,0.3-0.1,0.5-0.2,0.6c-0.4-0.4-0.7-0.5-1.1-0.5
			c0.5,0.5,0.9,0.7,1.1,0.7C247.1,66.1,247.3,65.9,247.7,65.5z M246.9,99.7h-0.8c0.4,0.4,0.5,0.7,0.4,0.9
			C246.8,100.5,246.9,100.2,246.9,99.7z M248.5,68.1c-0.7,0.4-1.3,0.5-1.7,0.5c0,0.4,0,0.9,0,1.6c-0.2-0.2-0.4-0.2-0.5-0.2v-1.2
			c0.2-0.2,0.2-0.4,0.2-0.7C247.2,68.3,247.8,68.3,248.5,68.1z M247.7,105.6c0-0.2-0.2-0.5-0.5-0.8c-0.2,0-0.3,0.2-0.3,0.5
			c0.1,0,0.2,0,0.4,0.1C247.5,105.6,247.6,105.6,247.7,105.6z M247.6,65.1c0.2-0.2,0.1-0.5-0.2-1.1c0,0.3-0.1,0.5-0.2,0.7
			C247.4,64.6,247.6,64.8,247.6,65.1z M249.3,84.6c-0.6-0.3-0.9-0.6-1.1-0.8v1c0.2,0,0.4,0,0.6-0.1C249,84.7,249.2,84.6,249.3,84.6z
			 M249.1,87.6c-0.1,0-0.3,0.1-0.5,0.2c-0.3-0.3-0.5-0.6-0.5-0.8C248.4,87.1,248.8,87.2,249.1,87.6z M249.5,77.2
			c-0.3,0-0.7,0.2-1.3,0.5c-0.2,0,0.2,0.2,1.1,0.6C249.2,78,249.2,77.6,249.5,77.2z M249.3,89c-0.2,0-0.3-0.2-0.5-0.4
			c-0.2-0.2-0.3-0.3-0.3-0.3c0,0.1-0.1,0.3-0.2,0.5c0.1,0,0.3,0,0.5,0.1C249.1,88.9,249.2,89,249.3,89z M250,69.5
			c-0.3,0-0.4-0.1-0.4-0.4c-0.4,0.2-0.7,0.4-1.1,0.8c0.1,0.3,0.3,0.7,0.6,1.1C249.3,70.7,249.6,70.2,250,69.5z M249.1,92.7l-0.2-0.1
			l-0.3,0.5l0.3,0.2L249.1,92.7z M249,102.4v-0.7h-0.4v0.7H249z M249.6,105.3l-0.7-0.2l-0.2,0.5L249.6,105.3z M249.5,60.2l-0.3-0.3
			l-0.2,0.2l0.3,0.3L249.5,60.2z M250.6,59v-1.6c-0.4,0.1-0.9,0.3-1.4,0.5C249.6,58.1,250,58.5,250.6,59z M250,86l-0.3-0.2l-0.2,0.5
			l0.2,0.1L250,86z M250.4,92c-0.2,0-0.3,0-0.4,0.1c-0.1,0.1-0.2,0.1-0.3,0.1c0,0,0.1-0.2,0.2-0.4c0.2-0.2,0.2-0.3,0.2-0.4
			C250.3,91.6,250.4,91.8,250.4,92z M251,65.7c-0.6-0.4-0.8-0.7-0.8-1.1c-0.2,0.5-0.2,0.8-0.1,1.1H251z M252.5,63.4
			c-0.6,0-1.4,0-2.4,0c0.2,0.1,0.5,0.1,1,0.2c0.5,0.1,0.9,0.2,1.1,0.3C252.2,63.8,252.3,63.6,252.5,63.4z M250.6,67.3v-0.8h-0.4v0.8
			H250.6z M250.9,92.2l-0.3-0.3l-0.2,0.2l0.3,0.3L250.9,92.2z M251.4,78.3h-0.9c0.2-0.5,0.5-0.6,0.8-0.4
			C251.3,78.1,251.4,78.2,251.4,78.3z M252.5,72.3c-0.2,0-0.4-0.1-0.6-0.3l-0.4,0.5c-0.1-0.1-0.2-0.3-0.2-0.6h-0.8
			c0.6,0.5,0.9,0.8,0.9,0.8c0.2,0,0.4,0,0.6-0.2C252.4,72.4,252.5,72.3,252.5,72.3z M251.5,60.1c0,0.1-0.2,0.2-0.7,0.2
			c0.1,0.2,0.1,0.4,0.2,0.7c0.1,0.3,0.2,0.5,0.2,0.7C251.5,61.3,251.5,60.8,251.5,60.1z M251.9,85.8c0-0.4-0.3-0.5-0.8-0.5v0.8
			c0,0,0.2,0,0.3-0.1C251.6,85.9,251.7,85.8,251.9,85.8z M253.6,82.3c-0.2,0.3-0.4,0.7-0.7,1.4c0-0.2-0.1-0.6-0.5-1.2l-1,0.2
			c0,0,0-0.2,0.1-0.5c0.1-0.3,0.1-0.4,0.1-0.5L253.6,82.3z M253.8,89c0,0.5-0.1,0.8-0.3,0.8s-0.4,0-0.4,0.1c0,0.1-0.1,0.1-0.3,0.1
			c-0.2,0-0.3-0.1-0.3-0.2c0-0.1-0.1-0.2-0.1-0.2c-0.4,0.3-0.3,0.5,0.2,0.5c-0.1,0-0.2,0-0.5-0.1c-0.3,0-0.5,0-0.6,0v-1
			c0.4,0,0.6,0,0.6-0.2c0,0,0.1,0.1,0.2,0.3c0.1,0.2,0.2,0.3,0.3,0.3s0.4-0.1,0.6-0.2C253.5,89.1,253.7,89,253.8,89z M252.8,87.7
			c-0.2-0.2-0.4-0.2-0.7,0c0-0.2-0.2-0.5-0.5-0.8h1c0,0.2,0,0.3,0.1,0.5C252.7,87.5,252.8,87.6,252.8,87.7z M252.5,100.7l-0.3-0.1
			l-0.2,0.5l0.2,0.1L252.5,100.7z M252.5,60.8V60h-0.4v0.8H252.5z M252.7,62.1v-0.9h-0.3v0.9H252.7z M253.4,68.1
			c-0.3,0-0.5-0.2-0.8-0.5c0.1,0,0.2-0.2,0.4-0.3c0.2-0.2,0.3-0.3,0.3-0.3C253.4,67.6,253.4,68,253.4,68.1z M253.8,64.6
			c-0.4,0.3-0.7,0.6-0.9,0.8c0.1,0.2,0.3,0.3,0.5,0.3c0-0.3,0.1-0.4,0.2-0.6C253.7,65,253.8,64.8,253.8,64.6z M253.4,72.8
			c0-0.1-0.1-0.3-0.3-0.5c-0.2,0-0.3,0.3-0.3,0.8C253,73,253.2,72.9,253.4,72.8z M253.8,75.5v-0.4l-0.9-0.2v0.4L253.8,75.5z
			 M255,70.5c-0.5,0-0.8,0-1-0.2v-1.1c-0.1,1-0.2,1.6-0.2,1.8h1C254.8,70.9,254.9,70.7,255,70.5z M255.3,67.4c0,0,0-0.2-0.1-0.5
			c-0.1-0.3-0.1-0.4-0.1-0.5h-1.1c0,0.4,0.1,0.7,0.4,0.9H255.3z M254.6,80.1c0,0.1,0,0.2-0.1,0.5c0,0.2,0,0.4,0,0.5
			c0-0.3-0.1-0.5-0.5-0.7C254.3,80.2,254.5,80.1,254.6,80.1z M254.6,82h-0.5v-0.3h0.5V82z M255.8,63.4c-0.3-0.3-0.6-0.5-0.8-0.5v1.1
			C255.5,63.9,255.8,63.7,255.8,63.4z M256.3,80.2l-0.2,0.2l-0.3-0.3l0.2-0.2L256.3,80.2z M256.8,66.3c-0.3-0.7-0.6-1-0.9-1
			c-0.1,0.1-0.1,0.4-0.1,1H256.8z M256.8,92.5H256c0.3-0.3,0.4-0.6,0.4-0.8C256.7,92,256.8,92.2,256.8,92.5z M256.6,97.8l-0.3-0.1
			l-0.2,0.5l0.3,0.1L256.6,97.8z M256.8,75.4c-0.2,0-0.4,0.1-0.6,0.2c0.2,0.2,0.3,0.4,0.3,0.6c0,0,0-0.2,0.2-0.4
			C256.7,75.6,256.8,75.5,256.8,75.4z M256.8,93.8l-0.1-0.3l-0.5,0.2V94L256.8,93.8z M257.8,73.1c-0.2,0.3-0.5,0.6-1.1,0.9
			c0-0.2,0-0.4-0.1-0.6c-0.1-0.3-0.2-0.4-0.2-0.5L257.8,73.1z M258.2,71.7l-0.8,0.2c-0.2-0.2-0.3-0.2-0.5-0.2
			c0.3,0.6,0.5,0.8,0.8,0.8C258,72.5,258.2,72.2,258.2,71.7z M258.2,83.8c-0.2-0.2-0.4-0.2-0.8-0.2c0,0.1,0,0.3,0.2,0.5
			c0,0.1,0.1,0.1,0.3,0C258.1,84,258.2,83.9,258.2,83.8z M259.1,76.6l-0.5,0.5c-0.4-0.2-0.6-0.5-0.8-1.1
			C258.2,76.2,258.6,76.4,259.1,76.6z M259.1,75.3v-0.4H258v0.4H259.1z M259.1,79.8v-0.4l-1.1-0.2v0.3L259.1,79.8z M259.2,78
			l-0.2,0.2l-0.3-0.3l0.2-0.2L259.2,78z M259.9,77.2c-0.3,0-0.5-0.1-0.7-0.2c0,0.2,0.2,0.5,0.5,0.8
			C259.8,77.6,259.9,77.5,259.9,77.2z M261.7,79.9c-0.2,0.2-0.4,0.2-0.6,0.2c-0.1,0-0.3-0.2-0.7-0.6c-0.3,0.3-0.5,0.4-0.7,0.4
			c0-0.1,0.3-0.4,0.8-0.9h0.9c0,0.1,0,0.2,0.1,0.4S261.7,79.8,261.7,79.9z M261.5,77.6c-0.5-0.2-1-0.2-1.4-0.2
			c0.2,0.4,0.5,0.7,0.9,1.1C261.4,78.2,261.5,77.9,261.5,77.6z M261.7,85.2c0-0.2-0.1-0.3-0.3-0.5c-0.3,0.3-0.5,0.6-0.5,1
			c0.1-0.1,0.2-0.2,0.4-0.3C261.5,85.3,261.6,85.3,261.7,85.2z M261.6,89h-0.3l-0.2,0.9h0.3L261.6,89z M262,74.7h-0.3l-0.2,0.6
			l0.3,0.2L262,74.7z M262.6,76.4l-0.3-0.3l-0.2,0.2l0.3,0.3L262.6,76.4z"/>
	</g>
	<g>
		<path class="st0" d="M67.4,127.4c0,0.9-0.5,1.7-0.5,1.7l-6.3,7.7h0.7c0.5,0,1.4,0,1.4,0.6c0,0.7-0.9,0.7-1.4,0.7h-1.7
			c-10.4,13.9-10.7,16.5-10.7,17.4c0,0.7,0.5,0.8,0.8,0.8c1.9,0.2,7.3-4.4,7.3-4.6c0.2-0.1,0.4-0.1,0.5-0.1s0.2,0.1,0.2,0.2
			c0,0.6-0.7,1.2-0.7,1.2c-6,5.3-7.3,4.6-7.5,4.6c-2.4,0-2.2-2.2-2.2-2.2c0-4.1,3.9-10.8,8.7-17.3h-4.4c-0.6,0-1.3,0-1.3-0.7
			c0-0.6,0.7-0.6,1.3-0.6H57c7.4-9.8,8.8-11,9.3-11C67,125.9,67.4,126.6,67.4,127.4z"/>
		<path class="st0" d="M67.5,155.5c0,0.8,0.5,0.9,0.8,0.9c1.7,0,7.1-4.7,7.9-4.7c0.1,0,0.2,0.1,0.2,0.2c0,0.4-0.7,1.2-0.7,1.2
			c-5.9,5.1-7.6,4.5-7.6,4.6c-2.1,0-2.2-2.2-2.2-2.2c0-1.1,0.1-2,0.6-3.6v0.1c-2.2,2.1-6.6,4.8-6.6,4.8c-1,0.6-1.7,0.7-2.3,0.7
			c-1.9,0-2-1.8-2-2.7c0-3.6,3.7-8.1,3.7-8.1c5.7-7,8.7-7.5,8.7-7.5c2-0.9,4.1,0.6,3.6,3.5c1-1.5,2.3-3.8,4.7-3.8
			c0.6,0,0.7,0.3,0.7,0.6c0,0.4-0.2,0.9-0.3,1C67.8,152.2,67.5,154.7,67.5,155.5z M70.4,143.6c0-0.9-0.1-2.3-1.1-2.3
			c-1.7,0-6.3,5.3-7.5,6.6c0,0-4.3,4.5-4.3,7.4c0,0.2,0,0.6,0.3,0.7c0.3,0.1,1.2-0.2,3.2-1.4C61.3,154.3,70.4,148.5,70.4,143.6z"/>
		<path class="st0" d="M94.3,127.4c0,0.9-0.5,1.7-0.5,1.7l-6.3,7.7h0.7c0.5,0,1.4,0,1.4,0.6c0,0.7-0.9,0.7-1.4,0.7h-1.7
			c-10.4,13.9-10.7,16.5-10.7,17.4c0,0.7,0.5,0.8,0.8,0.8c1.9,0.2,7.3-4.4,7.3-4.6c0.2-0.1,0.4-0.1,0.5-0.1s0.2,0.1,0.2,0.2
			c0,0.6-0.7,1.2-0.7,1.2c-6,5.3-7.3,4.6-7.5,4.6c-2.4,0-2.2-2.2-2.2-2.2c0-4.1,3.9-10.8,8.7-17.3h-4.4c-0.6,0-1.3,0-1.3-0.7
			c0-0.6,0.7-0.6,1.3-0.6h5.4c7.4-9.8,8.8-11,9.3-11C93.9,125.9,94.3,126.6,94.3,127.4z"/>
		<path class="st0" d="M102.6,127.4c0,0.9-0.5,1.7-0.5,1.7l-6.3,7.7h0.7c0.5,0,1.4,0,1.4,0.6c0,0.7-0.9,0.7-1.4,0.7h-1.7
			c-10.4,13.9-10.7,16.5-10.7,17.4c0,0.7,0.5,0.8,0.8,0.8c1.9,0.2,7.3-4.4,7.3-4.6c0.2-0.1,0.4-0.1,0.5-0.1s0.2,0.1,0.2,0.2
			c0,0.6-0.7,1.2-0.7,1.2c-6,5.3-7.3,4.6-7.5,4.6c-2.4,0-2.2-2.2-2.2-2.2c0-4.1,3.9-10.8,8.7-17.3h-4.4c-0.6,0-1.3,0-1.3-0.7
			c0-0.6,0.7-0.6,1.3-0.6h5.4c7.4-9.8,8.8-11,9.3-11C102.2,125.9,102.6,126.6,102.6,127.4z"/>
		<path class="st0" d="M104.6,149.5c-0.6,0-0.8,0.5-1.2,1.1c-0.2,0.3-5.1,7.2-10.4,7.2c-0.8,0-2.2-0.2-2.3-2.5
			c-0.3-7.5,8.5-17.1,13.8-17.1c2.6,0,2.7,2.5,2.7,3.5c0,1.2-0.3,3.5-2.1,6.4c3.1-0.2,5.5-2,6.6-4.4c0.1-0.3,0.4-0.5,0.6-0.5
			c0.8,0,0.7,1,0.7,1.1C111.6,147.2,108.4,149.5,104.6,149.5z M102.7,149.2c-2.5-0.6-4.5-2.5-4.5-5.2c0-0.3,0-0.7,0.1-1
			c-2.4,2.6-5.2,7.3-5.2,11.6c0,1.6,0.7,1.5,0.8,1.5C97.2,156,101.4,150.9,102.7,149.2z M105,142.8c0-2-1.2-2.4-1.9-2.4
			c-2.7,0-3.6,2.8-3.6,3.7c0,1.7,1.4,3.3,3.9,4C104.7,145.3,105,143.7,105,142.8z"/>
		<path class="st0" d="M120.7,149.5c-0.6,0-0.8,0.5-1.2,1.1c-0.2,0.3-5.1,7.2-10.4,7.2c-0.8,0-2.2-0.2-2.3-2.5
			c-0.3-7.5,8.5-17.1,13.8-17.1c2.6,0,2.7,2.5,2.7,3.5c0,1.2-0.3,3.5-2.1,6.4c3.1-0.2,5.5-2,6.6-4.4c0.1-0.3,0.4-0.5,0.6-0.5
			c0.8,0,0.7,1,0.7,1.1C127.7,147.2,124.5,149.5,120.7,149.5z M118.8,149.2c-2.5-0.6-4.5-2.5-4.5-5.2c0-0.3,0-0.7,0.1-1
			c-2.4,2.6-5.2,7.3-5.2,11.6c0,1.6,0.7,1.5,0.8,1.5C113.3,156,117.4,150.9,118.8,149.2z M121.1,142.8c0-2-1.2-2.4-1.9-2.4
			c-2.7,0-3.6,2.8-3.6,3.7c0,1.7,1.4,3.3,3.9,4C120.8,145.3,121.1,143.7,121.1,142.8z"/>
		<path class="st0" d="M131.4,152.2c0-1.8,1.5-3.7,3.7-3.7c0.4,0,1,0.1,1.5,0.3c1.3-1.7,2.8-3.2,6.5-9.2c0.1-0.1-0.6-1.5,1.5-1.1
			c2.4,0.5,3.5,11.1,0.7,15.3c1.5,0.1,4-1.1,4.3-1.1c0.1,0,0.1,0,0.1,0.1c0,0.4-2,2.2-4.5,2.2c-0.2,0-0.5,0-0.7-0.1
			c-2.5,2.7-4.3,2.5-6.3,2.6c-2.4,0.1-4.9-1-6.2-3.3C131.6,153.6,131.4,153,131.4,152.2z M135.1,149.8c-1.1,0-2.4,1.4-2.4,2.8
			c0,0.2,0,0.3,0.1,0.5c0.7-0.9,1.8-2.1,2.8-3.3C135.4,149.9,135.3,149.8,135.1,149.8z M133,153.8c0.8,1.4,3.3,2.5,5.3,2.5
			c1.9,0,3.3-0.9,4.1-2.1c-1.9-1-4-2.5-5.6-3.7C135.4,151.8,134,153,133,153.8z M137.7,149.5c1.8,1.2,3.8,2.7,5.5,3.6
			c1.8-3.2,1.3-11.3,0.5-11.4c-1.7,2.5-3.6,5.3-5.5,7.3C138,149.2,137.9,149.4,137.7,149.5z"/>
		<path class="st0" d="M167.6,127.4c0,0.9-0.5,1.7-0.5,1.7l-6.3,7.7h0.7c0.5,0,1.4,0,1.4,0.6c0,0.7-0.9,0.7-1.4,0.7h-1.7
			c-10.4,13.9-10.7,16.5-10.7,17.4c0,0.7,0.5,0.8,0.8,0.8c1.9,0.2,7.3-4.4,7.3-4.6c0.2-0.1,0.4-0.1,0.5-0.1s0.2,0.1,0.2,0.2
			c0,0.6-0.7,1.2-0.7,1.2c-6,5.3-7.3,4.6-7.5,4.6c-2.4,0-2.2-2.2-2.2-2.2c0-4.1,3.9-10.8,8.7-17.3h-4.4c-0.6,0-1.3,0-1.3-0.7
			c0-0.6,0.7-0.6,1.3-0.6h5.4c7.4-9.8,8.8-11,9.3-11C167.2,125.9,167.6,126.6,167.6,127.4z"/>
		<path class="st0" d="M175.6,151.7c0.2,0,0.3,0.1,0.3,0.2c0,0.4-0.7,1.2-0.7,1.2c-6,4.8-7.4,4.6-7.6,4.6c-2.1,0-2.2-2.2-2.2-2.2
			c-0.1-0.4,0-0.8,0-1.3c-5.5,3.4-6.2,3.6-7,3.6c-2.1,0-2.2-2.2-2.2-2.2c0-0.2,0-0.4,0-0.6c0-2.2,5.1-16.1,10.3-16.1
			c0.5,0,0.7,0.2,0.7,0.6c0,0.4-0.3,0.9-0.4,1c-8.1,11.2-8.8,14.4-8.8,14.4c-0.1,0.3-0.1,0.5-0.1,0.7c0,0.7,0.5,0.8,0.8,0.8
			c0.5,0,4.8-2.3,7.1-3.8c0.9-3.2,5.9-13.8,10-13.8c0.5,0,0.7,0.2,0.7,0.6c0,0.4-0.3,0.9-0.4,1c-8.6,11.8-8.9,14.2-8.9,15
			s0.5,0.8,0.8,0.9c1.5,0.3,7.4-4.4,7.4-4.6C175.4,151.7,175.5,151.7,175.6,151.7z"/>
		<path class="st0" d="M204,127.3c0,0.9-0.6,1.8-0.6,1.8l-7.2,8.8c-10.6,14-10.9,16.8-10.9,17.5c0,0.8,0.5,0.9,0.8,0.9
			c1.6,0.2,6.9-4.7,7.8-4.7c0.2,0,0.3,0.1,0.3,0.2c0,0.4-0.7,1.2-0.7,1.2c-3.3,2.7-6.4,4.7-7.6,4.6c-2.1-0.2-2.2-2.2-2.2-2.2
			c0-0.8,0.1-1.8,0.5-3.2c-1.7,1.5-5.9,5.2-8.5,5.2c-2,0-2.1-1.7-2.1-2.7c0-4.9,7.6-14.4,12.4-15.7c2.2-0.7,3.5,0.9,3.7,3.2
			c5.3-7.9,12.4-15.8,12.4-15.8c0.4-0.4,0.7-0.5,1-0.5c0.2,0,0.4,0.1,0.4,0.1C203.8,126.4,204,126.9,204,127.3z M185.7,142.4
			c-3.2,1.8-10.4,8.9-10.4,13c0,0.3-0.1,0.7,0.3,0.7c0.4,0,1.3-0.2,3.3-1.5c2.2-1.3,7.8-8.1,9.5-10.6
			C188.3,142.1,188.1,140.9,185.7,142.4z"/>
		<path class="st0" d="M202.7,138.8c0.5,0,0.7,0.2,0.7,0.6c0,0.4-0.3,0.9-0.4,1c-8.1,11.2-8.8,14.4-8.8,14.4
			c-0.1,0.3-0.1,0.5-0.1,0.7c0,0.7,0.5,0.8,0.8,0.8c1.5,0.2,7.3-4.4,7.3-4.6c0.2-0.1,0.4-0.1,0.5-0.1s0.2,0.1,0.2,0.2
			c0,0.4-0.7,1.2-0.7,1.2c-5.3,4.7-7.3,4.6-7.5,4.6c-2.3-0.1-2.2-2.2-2.2-2.2c0-3.7,2.8-9,7-15C200,139.7,201.5,138.8,202.7,138.8z
			 M202.8,135.4c0-1.4,1.6-3.7,2.7-3.7c0.4,0,0.7,0.3,0.7,0.9c0,1.6-1.6,3.7-2.6,3.7c-0.2,0-0.3,0-0.4-0.1
			C202.9,136.2,202.8,135.9,202.8,135.4z"/>
		<path class="st0" d="M214.6,149.5c-0.6,0-0.8,0.5-1.2,1.1c-0.2,0.3-5.1,7.2-10.4,7.2c-0.8,0-2.2-0.2-2.3-2.5
			c-0.3-7.5,8.5-17.1,13.8-17.1c2.6,0,2.7,2.5,2.7,3.5c0,1.2-0.3,3.5-2.1,6.4c3.1-0.2,5.5-2,6.6-4.4c0.1-0.3,0.4-0.5,0.6-0.5
			c0.8,0,0.7,1,0.7,1.1C221.6,147.2,218.3,149.5,214.6,149.5z M212.6,149.2c-2.5-0.6-4.5-2.5-4.5-5.2c0-0.3,0-0.7,0.1-1
			c-2.4,2.6-5.2,7.3-5.2,11.6c0,1.6,0.7,1.5,0.8,1.5C207.1,156,211.3,150.9,212.6,149.2z M215,142.8c0-2-1.2-2.4-1.9-2.4
			c-2.7,0-3.6,2.8-3.6,3.7c0,1.7,1.4,3.3,3.9,4C214.7,145.3,215,143.7,215,142.8z"/>
	</g>
	<path class="st0" d="M46.9,167.1l-1.2-1.4l-2.1-3.7l0,0l-3.7-4c0.8-1.3,0.8-2.8-0.1-3.9c-0.1-0.1-0.2-0.2-0.3-0.3l-7.5-8.2
		c-0.1-0.1-0.1-0.2-0.2-0.3c-0.8-0.9-2.1-1.2-3.3-0.8l-0.2-0.2l3.2-0.8l-0.4-2.8l0,0l-0.3-0.4l1.9-1.1l1.4,0.9c0,0,0,0,0,0.1
		c0.2,0.2,0.5,0.2,0.7,0.1c0.2-0.2,0.2-0.5,0-0.7c-0.1-0.1-0.1-0.1-0.2-0.2l-1.1-0.7l0.3-0.2l-1.1-1.8l-1.2,0.7l-1.1-0.7l0,0
		c0,0,0,0-0.1,0c-0.2-0.1-0.4,0-0.5,0.3c-0.1,0.2-0.1,0.4,0,0.5l0,0l0.7,0.4l-1,0.6l-0.6-1.1l-4.3,2.6l-1.3-1.4c0,0,0,0,0-0.1
		c-0.2-0.3-0.7-0.2-1.2,0l-2.9-3.1c0.2-0.2,0.3-0.6,0.1-1c0,0,0,0,0,0c0.1-0.1,0.1-0.3,0-0.5c-0.1-0.2-0.3-0.3-0.4-0.3
		c-0.4-0.5-0.8-0.7-1.1-0.6l0,0l0,0c0,0,0,0,0,0c0,0,0,0,0,0l-0.3,0.2l-1.9-0.8l-1.1-2.9c0-0.4-0.1-0.8-0.4-1.1c0,0,0,0,0,0l0,0l0,0
		c-0.6-0.6-1.5-0.7-2.2-0.1c-0.6,0.6-0.7,1.6-0.1,2.2c0,0.1,0.1,0.1,0.1,0.1l0.1,0.2l-2.6-1.1c-0.1-0.3-0.3-0.5-0.6-0.7
		c-0.5-0.2-1.1-0.1-1.3,0.4c-0.2,0.4,0.1,1,0.6,1.2c0.5,0.2,1,0.1,1.2-0.3l3,1.3l1.3,3.1L1,142.2l2,3.4l2.8-1.6l3.5,5.1l-0.8,0.5
		l-1-1.1c0.1-0.3,0-0.6-0.2-0.8c-0.4-0.4-1.1-0.4-1.6,0c-0.5,0.4-0.6,1.1-0.2,1.6c0.2,0.2,0.5,0.3,0.8,0.3l0.8,0.9l-0.9,0.5l2,3.4
		l16.8-9.9l1.5,1.6c-1,1.3-1.1,3-0.1,4.2c0.1,0.1,0.3,0.3,0.4,0.4l7.4,8c0.1,0.1,0.2,0.2,0.2,0.3c0.9,1.1,2.6,1.2,3.9,0.5l3.7,4.1
		l3.4,2.5l1.2,1.3L46.9,167.1z M16.9,133.7l-0.6,0.4l-0.3-0.8L16.9,133.7z M17.6,136.4l1.4-0.8l2.9,3.2c-0.5,0.4-0.7,1-0.4,1.3
		c0,0,0,0,0.1,0.1l1,1.1l-1.2,0.7L17.6,136.4z"/>
	<path class="st0" d="M218.7,167.3l1.2-1.3l3.4-2.5l3.7-4.1c1.4,0.7,3,0.5,3.9-0.5c0.1-0.1,0.2-0.2,0.2-0.3l7.4-8
		c0.1-0.1,0.3-0.2,0.4-0.4c1-1.1,0.9-2.9-0.1-4.2l1.5-1.6l16.8,9.9l2-3.4l-0.9-0.5l0.8-0.9c0.3,0,0.6-0.1,0.8-0.3
		c0.4-0.4,0.3-1.1-0.2-1.6c-0.5-0.4-1.2-0.5-1.6,0c-0.2,0.2-0.3,0.5-0.2,0.8l-1,1.1l-0.8-0.5l3.5-5.1l2.8,1.6l2-3.4l-12.5-7.4
		l1.3-3.1l3-1.3c0.2,0.4,0.8,0.5,1.2,0.3c0.5-0.2,0.8-0.8,0.6-1.2c-0.2-0.4-0.8-0.6-1.3-0.4c-0.3,0.1-0.5,0.4-0.6,0.7l-2.6,1.1
		l0.1-0.2c0,0,0.1-0.1,0.1-0.1c0.6-0.7,0.5-1.7-0.1-2.2c-0.6-0.5-1.6-0.5-2.2,0.1l0,0l0,0c0,0,0,0,0,0c-0.3,0.3-0.4,0.7-0.4,1.1
		l-1.1,2.9l-1.9,0.8l-0.3-0.2c0,0,0,0,0,0c0,0,0,0,0,0l0,0l0,0c-0.3-0.1-0.8,0.1-1.1,0.6c-0.1,0-0.3,0.1-0.4,0.3
		c-0.1,0.2-0.1,0.4,0,0.5c0,0,0,0,0,0c-0.1,0.4-0.1,0.8,0.1,1l-2.9,3.1c-0.4-0.3-0.9-0.3-1.2,0c0,0,0,0,0,0.1l-1.3,1.4l-4.3-2.6
		l-0.6,1.1l-1-0.6l0.7-0.4l0,0c0.1-0.1,0.2-0.3,0-0.5c-0.1-0.2-0.3-0.3-0.5-0.3c0,0,0,0-0.1,0l0,0l-1.1,0.7l-1.2-0.7l-1.1,1.8
		l0.3,0.2l-1.1,0.7c-0.1,0-0.2,0.1-0.2,0.2c-0.2,0.2-0.2,0.5,0,0.7c0.2,0.2,0.5,0.2,0.7-0.1c0,0,0,0,0-0.1l1.4-0.9l1.9,1.1l-0.3,0.4
		l0,0l-0.4,2.8l3.2,0.8l-0.2,0.2c-1.2-0.4-2.5-0.1-3.3,0.8c-0.1,0.1-0.1,0.2-0.2,0.3l-7.5,8.2c-0.1,0.1-0.2,0.2-0.3,0.3
		c-0.9,1-0.9,2.6-0.1,3.9l-3.7,4l0,0l-2.1,3.7l-1.2,1.4L218.7,167.3z M249.4,133.3l-0.3,0.8l-0.6-0.4L249.4,133.3z M244,141.9
		l-1.2-0.7l1-1.1c0,0,0,0,0.1-0.1c0.3-0.3,0.1-0.9-0.4-1.3l2.9-3.2l1.4,0.8L244,141.9z"/>
</g>
</svg>
