<?xml version="1.0" encoding="utf-8"?>
<!-- Generator: Adobe Illustrator 18.0.0, SVG Export Plug-In . SVG Version: 6.00 Build 0)  -->
<!DOCTYPE svg PUBLIC "-//W3C//DTD SVG 1.1//EN" "http://www.w3.org/Graphics/SVG/1.1/DTD/svg11.dtd">
<svg version="1.1" id="Capa_1" xmlns="http://www.w3.org/2000/svg" xmlns:xlink="http://www.w3.org/1999/xlink" x="0px" y="0px"
	 viewBox="0 0 143.7 66.5" style="enable-background:new 0 0 143.7 66.5;" xml:space="preserve">
<style type="text/css">
	.st0{fill:#656564;}
	.st1{fill:url(#SVGID_1_);}
	.st2{fill:url(#SVGID_2_);}
	.st3{fill:url(#SVGID_3_);}
	.st4{fill:url(#SVGID_4_);}
	.st5{fill:url(#SVGID_5_);}
	.st6{fill:url(#SVGID_6_);}
	.st7{opacity:0.4;fill:url(#SVGID_7_);}
	.st8{fill:url(#SVGID_8_);}
	.st9{opacity:0.4;fill:url(#SVGID_9_);}
	.st10{fill:url(#SVGID_10_);}
	.st11{opacity:0.4;fill:url(#SVGID_11_);}
	.st12{fill:#787878;}
</style>
<g>
	<g>
		<g>
			<path class="st0" d="M5,55.3h6.3v1.1H6.1v3.4h5.1v1.1H6.1v4.3h5.1v1.1H5V55.3z"/>
			<path class="st0" d="M12.3,58.1h1v1.5c0.4-0.6,0.9-1,1.4-1.3c0.5-0.3,1.1-0.4,1.7-0.4c0.6,0,1.1,0.2,1.6,0.5
				c0.5,0.3,0.8,0.7,1,1.2c0.2,0.5,0.3,1.3,0.3,2.4v4.2h-1v-3.9c0-0.9,0-1.6-0.1-1.9c-0.1-0.5-0.4-0.9-0.7-1.2
				c-0.3-0.3-0.8-0.4-1.3-0.4c-0.6,0-1.2,0.2-1.7,0.6c-0.5,0.4-0.8,0.9-1,1.6c-0.1,0.4-0.2,1.1-0.2,2.2v3h-1V58.1z"/>
			<path class="st0" d="M24.5,55h1v11.3h-1V55z"/>
			<path class="st0" d="M35.2,58.1v8.1h-1v-1.4c-0.4,0.5-0.9,0.9-1.5,1.2c-0.5,0.3-1.1,0.4-1.8,0.4c-1.1,0-2.1-0.4-2.9-1.2
				c-0.8-0.8-1.2-1.8-1.2-3c0-1.2,0.4-2.2,1.2-3c0.8-0.8,1.8-1.2,3-1.2c0.7,0,1.3,0.1,1.8,0.4c0.5,0.3,1,0.7,1.4,1.3v-1.5H35.2z
				 M31,58.9c-0.6,0-1.1,0.1-1.6,0.4c-0.5,0.3-0.9,0.7-1.2,1.2c-0.3,0.5-0.4,1.1-0.4,1.6c0,0.6,0.1,1.1,0.4,1.6
				c0.3,0.5,0.7,0.9,1.2,1.2c0.5,0.3,1,0.4,1.6,0.4c0.6,0,1.1-0.1,1.6-0.4c0.5-0.3,0.9-0.7,1.2-1.2c0.3-0.5,0.4-1,0.4-1.7
				c0-0.9-0.3-1.7-0.9-2.4C32.7,59.2,31.9,58.9,31,58.9z"/>
			<path class="st0" d="M40.5,58.1h1v1.5c0.4-0.6,0.9-1,1.4-1.3c0.5-0.3,1.1-0.4,1.7-0.4c0.6,0,1.1,0.2,1.6,0.5
				c0.5,0.3,0.8,0.7,1,1.2c0.2,0.5,0.3,1.3,0.3,2.4v4.2h-1v-3.9c0-0.9,0-1.6-0.1-1.9c-0.1-0.5-0.4-0.9-0.7-1.2
				c-0.3-0.3-0.8-0.4-1.3-0.4c-0.6,0-1.2,0.2-1.7,0.6c-0.5,0.4-0.8,0.9-1,1.6c-0.1,0.4-0.1,1.1-0.1,2.2v3h-1V58.1z"/>
			<path class="st0" d="M49.1,58.1h1v3.8c0,0.9,0,1.6,0.1,1.9c0.1,0.5,0.4,0.9,0.9,1.2c0.4,0.3,0.9,0.4,1.5,0.4
				c0.6,0,1.1-0.1,1.5-0.4c0.4-0.3,0.7-0.6,0.8-1.1c0.1-0.3,0.2-1,0.2-2v-3.8h1.1v4c0,1.1-0.1,2-0.4,2.5c-0.3,0.6-0.7,1-1.2,1.3
				c-0.5,0.3-1.2,0.5-2,0.5c-0.8,0-1.5-0.2-2-0.5c-0.5-0.3-0.9-0.8-1.2-1.3c-0.3-0.6-0.4-1.4-0.4-2.6V58.1z"/>
			<path class="st0" d="M57.9,66.2V55h1v4.5c0.4-0.5,0.9-0.9,1.5-1.2c0.5-0.3,1.1-0.4,1.8-0.4c1.1,0,2.1,0.4,2.9,1.2
				c0.8,0.8,1.2,1.8,1.2,3c0,1.2-0.4,2.2-1.2,3c-0.8,0.8-1.8,1.2-3,1.2c-0.7,0-1.3-0.1-1.8-0.4c-0.5-0.3-1-0.7-1.4-1.3v1.5H57.9z
				 M62.1,65.4c0.6,0,1.1-0.1,1.6-0.4c0.5-0.3,0.9-0.7,1.2-1.2c0.3-0.5,0.4-1.1,0.4-1.6c0-0.6-0.1-1.1-0.4-1.6
				c-0.3-0.5-0.7-0.9-1.2-1.2c-0.5-0.3-1-0.4-1.6-0.4c-0.6,0-1.1,0.1-1.6,0.4c-0.5,0.3-0.9,0.7-1.2,1.2c-0.3,0.5-0.4,1-0.4,1.7
				c0,0.9,0.3,1.7,0.9,2.4C60.4,65.1,61.2,65.4,62.1,65.4z"/>
			<path class="st0" d="M74.5,63.6l0.9,0.5c-0.3,0.6-0.6,1-1,1.4c-0.4,0.4-0.8,0.6-1.3,0.8c-0.5,0.2-1,0.3-1.6,0.3
				c-1.3,0-2.4-0.4-3.1-1.3c-0.7-0.9-1.1-1.8-1.1-2.9c0-1,0.3-1.9,0.9-2.8c0.8-1,1.9-1.5,3.2-1.5c1.4,0,2.5,0.5,3.3,1.6
				c0.6,0.7,0.9,1.7,0.9,2.8h-7.3c0,0.9,0.3,1.7,0.9,2.3c0.6,0.6,1.3,0.9,2.2,0.9c0.4,0,0.8-0.1,1.2-0.2c0.4-0.1,0.7-0.3,1-0.6
				C73.9,64.5,74.2,64.1,74.5,63.6z M74.5,61.4c-0.1-0.6-0.3-1-0.6-1.3c-0.3-0.3-0.6-0.6-1.1-0.8c-0.4-0.2-0.9-0.3-1.4-0.3
				c-0.8,0-1.5,0.3-2.1,0.8c-0.4,0.4-0.7,0.9-0.9,1.7H74.5z"/>
			<path class="st0" d="M88.4,59.8l-0.8,0.5c-0.7-1-1.7-1.4-2.9-1.4c-1,0-1.8,0.3-2.5,1c-0.7,0.6-1,1.4-1,2.3c0,0.6,0.2,1.1,0.5,1.7
				c0.3,0.5,0.7,0.9,1.2,1.2c0.5,0.3,1.1,0.4,1.8,0.4c1.2,0,2.2-0.5,2.9-1.4l0.8,0.5c-0.4,0.6-0.9,1-1.6,1.4
				c-0.7,0.3-1.4,0.5-2.2,0.5c-1.3,0-2.3-0.4-3.2-1.2c-0.8-0.8-1.3-1.8-1.3-3c0-0.8,0.2-1.5,0.6-2.2c0.4-0.7,0.9-1.2,1.6-1.6
				c0.7-0.4,1.5-0.6,2.3-0.6c0.5,0,1.1,0.1,1.6,0.2c0.5,0.2,0.9,0.4,1.3,0.6C87.9,59.1,88.2,59.4,88.4,59.8z"/>
			<path class="st0" d="M89.4,58.1h1.1v1.2c0.3-0.5,0.7-0.8,1-1c0.4-0.2,0.7-0.3,1.1-0.3c0.3,0,0.6,0.1,0.9,0.3L93,59.1
				c-0.2-0.1-0.4-0.1-0.6-0.1c-0.3,0-0.7,0.1-1,0.4c-0.3,0.3-0.6,0.7-0.7,1.3c-0.1,0.5-0.2,1.4-0.2,2.8v2.7h-1.1V58.1z"/>
			<path class="st0" d="M100.6,63.6l0.9,0.5c-0.3,0.6-0.6,1-1,1.4c-0.4,0.4-0.8,0.6-1.3,0.8c-0.5,0.2-1,0.3-1.6,0.3
				c-1.3,0-2.4-0.4-3.1-1.3c-0.7-0.9-1.1-1.8-1.1-2.9c0-1,0.3-1.9,0.9-2.8c0.8-1,1.9-1.5,3.2-1.5c1.4,0,2.5,0.5,3.3,1.6
				c0.6,0.7,0.9,1.7,0.9,2.8h-7.3c0,0.9,0.3,1.7,0.9,2.3c0.6,0.6,1.3,0.9,2.2,0.9c0.4,0,0.8-0.1,1.2-0.2c0.4-0.1,0.7-0.3,1-0.6
				C100,64.5,100.3,64.1,100.6,63.6z M100.6,61.4c-0.1-0.6-0.3-1-0.6-1.3c-0.3-0.3-0.6-0.6-1.1-0.8c-0.4-0.2-0.9-0.3-1.4-0.3
				c-0.8,0-1.5,0.3-2.1,0.8c-0.4,0.4-0.7,0.9-0.9,1.7H100.6z"/>
			<path class="st0" d="M111.2,58.1v8.1h-1v-1.4c-0.4,0.5-0.9,0.9-1.5,1.2c-0.5,0.3-1.1,0.4-1.8,0.4c-1.1,0-2.1-0.4-2.9-1.2
				c-0.8-0.8-1.2-1.8-1.2-3c0-1.2,0.4-2.2,1.2-3c0.8-0.8,1.8-1.2,3-1.2c0.7,0,1.3,0.1,1.8,0.4c0.5,0.3,1,0.7,1.4,1.3v-1.5H111.2z
				 M107,58.9c-0.6,0-1.1,0.1-1.6,0.4c-0.5,0.3-0.9,0.7-1.2,1.2c-0.3,0.5-0.4,1.1-0.4,1.6c0,0.6,0.1,1.1,0.4,1.6
				c0.3,0.5,0.7,0.9,1.2,1.2c0.5,0.3,1,0.4,1.6,0.4c0.6,0,1.1-0.1,1.6-0.4c0.5-0.3,0.9-0.7,1.2-1.2c0.3-0.5,0.4-1,0.4-1.7
				c0-0.9-0.3-1.7-0.9-2.4C108.7,59.2,107.9,58.9,107,58.9z"/>
			<path class="st0" d="M113.8,55.1h1v3h1.7V59h-1.7v7.2h-1V59h-1.4v-0.9h1.4V55.1z"/>
			<path class="st0" d="M117.8,54.8c0.2,0,0.4,0.1,0.6,0.3c0.2,0.2,0.3,0.4,0.3,0.6c0,0.2-0.1,0.4-0.3,0.6c-0.2,0.2-0.4,0.3-0.6,0.3
				c-0.2,0-0.4-0.1-0.6-0.3c-0.2-0.2-0.3-0.4-0.3-0.6c0-0.2,0.1-0.4,0.3-0.6C117.4,54.9,117.6,54.8,117.8,54.8z M117.3,58.1h1v8.1
				h-1V58.1z"/>
			<path class="st0" d="M119.1,58.1h1.1l2.7,5.9l2.7-5.9h1.1l-3.7,8.1h-0.2L119.1,58.1z"/>
			<path class="st0" d="M135.8,58.1v8.1h-1v-1.4c-0.4,0.5-0.9,0.9-1.5,1.2c-0.5,0.3-1.1,0.4-1.8,0.4c-1.1,0-2.1-0.4-2.9-1.2
				c-0.8-0.8-1.2-1.8-1.2-3c0-1.2,0.4-2.2,1.2-3c0.8-0.8,1.8-1.2,3-1.2c0.7,0,1.3,0.1,1.8,0.4c0.5,0.3,1,0.7,1.4,1.3v-1.5H135.8z
				 M131.6,58.9c-0.6,0-1.1,0.1-1.6,0.4c-0.5,0.3-0.9,0.7-1.2,1.2c-0.3,0.5-0.4,1.1-0.4,1.6c0,0.6,0.1,1.1,0.4,1.6
				c0.3,0.5,0.7,0.9,1.2,1.2c0.5,0.3,1,0.4,1.6,0.4c0.6,0,1.1-0.1,1.6-0.4c0.5-0.3,0.9-0.7,1.2-1.2c0.3-0.5,0.4-1,0.4-1.7
				c0-0.9-0.3-1.7-0.9-2.4C133.3,59.2,132.5,58.9,131.6,58.9z"/>
		</g>
	</g>
	<g>
		<linearGradient id="SVGID_1_" gradientUnits="userSpaceOnUse" x1="-0.2632" y1="25.4848" x2="57.8422" y2="25.4848">
			<stop  offset="0" style="stop-color:#75BDED"/>
			<stop  offset="0.2565" style="stop-color:#70B6E8"/>
			<stop  offset="0.6391" style="stop-color:#61A1DA"/>
			<stop  offset="1" style="stop-color:#4E88C8"/>
		</linearGradient>
		<path class="st1" d="M53.3,14.4c-0.1-5.2-4.1-9.3-9-9.3c-2.1,0-4,0.7-5.5,2c-1.9-4.1-5.9-7-10.6-7c-6.5,0-11.8,5.6-11.8,12.6
			c0,0.2,0,0.3,0,0.5c-1.1-0.3-2.2-0.5-3.3-0.5c-3.1,0-5.9,1.1-8.1,3C1.9,18.2,0,22.1,0,26.4c0,4.4,1.9,8.2,4.9,10.8
			c0.7,0.6,1.4,1.1,2.2,1.6c-1,1.3-1.8,2.8-2.2,4.5c-0.4,1.2-0.6,2.5-0.6,3.8c0,1.4,0.2,2.7,0.6,3.9H25c-0.1-0.1-0.3-0.3-0.4-0.4
			c-1.9-1.9-3.5-4.2-4.6-6.8c-1.1-2.6-1.7-5.4-1.7-8.4c0-3,0.6-5.8,1.7-8.4c1.1-2.6,2.6-4.9,4.6-6.8c1.9-1.9,4.2-3.5,6.8-4.6
			c1.1-0.5,2.3-0.8,3.5-1.1c0.1,0,0.2-0.1,0.3-0.2c2.6-1.1,5.4-1.7,8.4-1.7c3,0,5.7,0.6,8.3,1.7c2,0.8,3.8,1.9,5.4,3.3
			C56.4,16.1,55,14.9,53.3,14.4z"/>
		<linearGradient id="SVGID_2_" gradientUnits="userSpaceOnUse" x1="3.144015e-003" y1="26.649" x2="60.7991" y2="26.649">
			<stop  offset="0" style="stop-color:#75BDED"/>
			<stop  offset="0.1663" style="stop-color:#69ADE2"/>
			<stop  offset="0.4498" style="stop-color:#5A99D4"/>
			<stop  offset="0.7298" style="stop-color:#518CCB"/>
			<stop  offset="1" style="stop-color:#4E88C8"/>
		</linearGradient>
		<path class="st2" d="M34.9,28.3h12.4c-0.8-0.8-1.6-1.5-2.6-2.1c-1.5-0.9-3.1-1.3-5-1.3c-0.4,0-0.8,0-1.2,0.1
			C37.1,25.9,35.9,27,34.9,28.3z"/>
		<linearGradient id="SVGID_3_" gradientUnits="userSpaceOnUse" x1="-0.6442" y1="39.9234" x2="60.8034" y2="39.9234">
			<stop  offset="0" style="stop-color:#75BDED"/>
			<stop  offset="0.1663" style="stop-color:#69ADE2"/>
			<stop  offset="0.4498" style="stop-color:#5A99D4"/>
			<stop  offset="0.7298" style="stop-color:#518CCB"/>
			<stop  offset="1" style="stop-color:#4E88C8"/>
		</linearGradient>
		<path class="st3" d="M60.6,40.6l0.2-1.3h0C60.7,39.7,60.6,40.1,60.6,40.6z"/>
		<linearGradient id="SVGID_4_" gradientUnits="userSpaceOnUse" x1="-2.726499e-003" y1="45.558" x2="60.8019" y2="45.558">
			<stop  offset="0" style="stop-color:#75BDED"/>
			<stop  offset="0.1663" style="stop-color:#69ADE2"/>
			<stop  offset="0.4498" style="stop-color:#5A99D4"/>
			<stop  offset="0.7298" style="stop-color:#518CCB"/>
			<stop  offset="1" style="stop-color:#4E88C8"/>
		</linearGradient>
		<path class="st4" d="M38.3,43.1c1.6,1,3.4,1.5,5.3,1.5c0.4,0,0.9,0,1.3-0.1c0.3-0.2,0.7-0.4,1-0.6l0.3,0.4
			c0.2-0.1,0.5-0.1,0.7-0.2c1-0.3,2-0.8,2.8-1.5l6.6,7.9c0.3-0.8,0.4-1.7,0.4-2.6c0-1.7-0.5-3.2-1.4-4.5c1.1-0.7,2.1-1.7,2.9-2.9
			H35.4C36.1,41.6,37.1,42.4,38.3,43.1z"/>
		<linearGradient id="SVGID_5_" gradientUnits="userSpaceOnUse" x1="-5.450714e-002" y1="44.1986" x2="60.8182" y2="44.1986">
			<stop  offset="0" style="stop-color:#75BDED"/>
			<stop  offset="0.1663" style="stop-color:#69ADE2"/>
			<stop  offset="0.4498" style="stop-color:#5A99D4"/>
			<stop  offset="0.7298" style="stop-color:#518CCB"/>
			<stop  offset="1" style="stop-color:#4E88C8"/>
		</linearGradient>
		<path class="st5" d="M45.8,43.9c-0.3,0.2-0.6,0.4-1,0.6c0.4-0.1,0.8-0.1,1.3-0.2L45.8,43.9z"/>
		<linearGradient id="SVGID_6_" gradientUnits="userSpaceOnUse" x1="2.137274e-003" y1="32.7677" x2="60.7959" y2="32.7677">
			<stop  offset="0" style="stop-color:#75BDED"/>
			<stop  offset="0.1663" style="stop-color:#69ADE2"/>
			<stop  offset="0.4498" style="stop-color:#5A99D4"/>
			<stop  offset="0.7298" style="stop-color:#518CCB"/>
			<stop  offset="1" style="stop-color:#4E88C8"/>
		</linearGradient>
		<path class="st6" d="M23.8,42.5c-1.1-2.6-1.7-5.4-1.7-8.3c0-3,0.6-5.8,1.7-8.4c1.1-2.6,2.6-4.9,4.6-6.8c1.9-1.9,4-3.3,6.5-4.4
			c-1.2,0.3-2.4,0.6-3.5,1.1c-2.6,1.1-4.9,2.6-6.8,4.6c-1.9,1.9-3.5,4.2-4.6,6.8c-1.1,2.6-1.7,5.4-1.7,8.4c0,3,0.6,5.8,1.7,8.4
			c1.1,2.6,2.6,4.9,4.6,6.8c0.1,0.1,0.3,0.3,0.4,0.4h5.3c-0.7-0.5-1.3-1.1-1.9-1.7C26.5,47.4,24.9,45.1,23.8,42.5z"/>
		<linearGradient id="SVGID_7_" gradientUnits="userSpaceOnUse" x1="26.6113" y1="14.1181" x2="26.6113" y2="50.9365">
			<stop  offset="0" style="stop-color:#FFFFFF"/>
			<stop  offset="1" style="stop-color:#000000"/>
		</linearGradient>
		<path class="st7" d="M23.8,42.5c-1.1-2.6-1.7-5.4-1.7-8.3c0-3,0.6-5.8,1.7-8.4c1.1-2.6,2.6-4.9,4.6-6.8c1.9-1.9,4-3.3,6.5-4.4
			c-1.2,0.3-2.4,0.6-3.5,1.1c-2.6,1.1-4.9,2.6-6.8,4.6c-1.9,1.9-3.5,4.2-4.6,6.8c-1.1,2.6-1.7,5.4-1.7,8.4c0,3,0.6,5.8,1.7,8.4
			c1.1,2.6,2.6,4.9,4.6,6.8c0.1,0.1,0.3,0.3,0.4,0.4h5.3c-0.7-0.5-1.3-1.1-1.9-1.7C26.5,47.4,24.9,45.1,23.8,42.5z"/>
		<linearGradient id="SVGID_8_" gradientUnits="userSpaceOnUse" x1="7.610318e-004" y1="39.9234" x2="60.8008" y2="39.9234">
			<stop  offset="0" style="stop-color:#75BDED"/>
			<stop  offset="0.1663" style="stop-color:#69ADE2"/>
			<stop  offset="0.4498" style="stop-color:#5A99D4"/>
			<stop  offset="0.7298" style="stop-color:#518CCB"/>
			<stop  offset="1" style="stop-color:#4E88C8"/>
		</linearGradient>
		<path class="st8" d="M58.9,39.3H34.5c0.3,0.5,0.6,0.9,0.9,1.3h22.8h2.4c0.1-0.4,0.1-0.8,0.2-1.3H58.9z"/>
		<linearGradient id="SVGID_9_" gradientUnits="userSpaceOnUse" x1="47.6321" y1="14.1225" x2="47.6321" y2="50.9349">
			<stop  offset="0" style="stop-color:#FFFFFF"/>
			<stop  offset="1" style="stop-color:#000000"/>
		</linearGradient>
		<path class="st9" d="M58.9,39.3H34.5c0.3,0.5,0.6,0.9,0.9,1.3h22.8h2.4c0.1-0.4,0.1-0.8,0.2-1.3H58.9z"/>
		<linearGradient id="SVGID_10_" gradientUnits="userSpaceOnUse" x1="1.267066e-004" y1="26.0115" x2="60.8008" y2="26.0115">
			<stop  offset="0" style="stop-color:#75BDED"/>
			<stop  offset="0.1663" style="stop-color:#69ADE2"/>
			<stop  offset="0.4498" style="stop-color:#5A99D4"/>
			<stop  offset="0.7298" style="stop-color:#518CCB"/>
			<stop  offset="1" style="stop-color:#4E88C8"/>
		</linearGradient>
		<path class="st10" d="M44.7,26.3c1,0.6,1.9,1.3,2.6,2.1h4.9c-1-1.4-2.2-2.5-3.7-3.3c-1.5-0.9-3.1-1.3-5-1.3c-1.8,0-3.5,0.4-5,1.3
			c0,0-0.1,0-0.1,0.1c0.4,0,0.8-0.1,1.2-0.1C41.6,25,43.2,25.4,44.7,26.3z"/>
		<linearGradient id="SVGID_11_" gradientUnits="userSpaceOnUse" x1="45.3582" y1="14.1174" x2="45.3582" y2="50.9379">
			<stop  offset="0" style="stop-color:#FFFFFF"/>
			<stop  offset="1" style="stop-color:#000000"/>
		</linearGradient>
		<path class="st11" d="M44.7,26.3c1,0.6,1.9,1.3,2.6,2.1h4.9c-1-1.4-2.2-2.5-3.7-3.3c-1.5-0.9-3.1-1.3-5-1.3c-1.8,0-3.5,0.4-5,1.3
			c0,0-0.1,0-0.1,0.1c0.4,0,0.8-0.1,1.2-0.1C41.6,25,43.2,25.4,44.7,26.3z"/>
	</g>
	<path class="st12" d="M131.5,39.3c-0.6,1.1-1.4,2.1-2.3,2.9c-0.9,0.8-2,1.4-3.2,1.9c-1.2,0.5-2.5,0.7-3.8,0.7
		c-1.4,0-2.8-0.3-4.1-0.8c-1.3-0.5-2.4-1.3-3.3-2.2c-0.9-0.9-1.7-2.1-2.2-3.3c-0.5-1.3-0.8-2.6-0.8-4.1c0-1.4,0.3-2.8,0.8-4.1
		c0.5-1.3,1.3-2.4,2.2-3.3c0.9-0.9,2.1-1.7,3.3-2.2c1.3-0.5,2.6-0.8,4.1-0.8c1.3,0,2.6,0.2,3.8,0.7c1.2,0.5,2.3,1.1,3.2,1.9
		c0.9,0.8,1.7,1.8,2.3,2.9c0.6,1.1,1,2.3,1.2,3.6h11c-0.2-2.8-0.8-5.4-2-7.9c-1.2-2.5-2.7-4.6-4.7-6.4c-1.9-1.8-4.2-3.2-6.7-4.3
		c-2.5-1.1-5.2-1.6-8-1.6c-3,0-5.8,0.6-8.3,1.7c-2.6,1.1-4.9,2.6-6.8,4.6c-1.9,1.9-3.5,4.2-4.6,6.8c-0.2,0.4-0.3,0.8-0.4,1.2
		c-0.1-0.4-0.3-0.8-0.4-1.2c-1.1-2.6-2.6-4.9-4.6-6.8c-1.9-1.9-4.2-3.5-6.8-4.6c-2.6-1.1-5.4-1.7-8.3-1.7c-3,0-5.8,0.6-8.4,1.7
		c-2.6,1.1-4.9,2.6-6.8,4.6c-1.9,1.9-3.5,4.2-4.6,6.8c-1.1,2.6-1.7,5.4-1.7,8.4v16.8h11V34.4c0-1.4,0.3-2.8,0.8-4.1
		c0.5-1.3,1.3-2.4,2.2-3.3c0.9-0.9,2.1-1.7,3.3-2.2c1.3-0.5,2.6-0.8,4.1-0.8c1.4,0,2.8,0.3,4.1,0.8c1.3,0.5,2.4,1.3,3.3,2.2
		c0.9,0.9,1.7,2.1,2.2,3.3c0.5,1.3,0.8,2.6,0.8,4.1v16.8h11v-6.8c1,1.9,2.3,3.6,3.8,5.1c0.6,0.6,1.2,1.1,1.9,1.7h26.5
		c0.5-0.4,1-0.8,1.5-1.3c1.9-1.8,3.5-3.9,4.7-6.4c1.2-2.5,1.8-5.1,2-7.9h-11C132.5,37,132.1,38.2,131.5,39.3z"/>
</g>
</svg>
